<mxfile host="app.diagrams.net" modified="2022-09-07T01:26:13.905Z" agent="5.0 (Macintosh; Intel Mac OS X 10_15_7) AppleWebKit/537.36 (KHTML, like Gecko) Chrome/104.0.0.0 Safari/537.36" etag="lweRN3gWgBPSDI9n9A1C" version="20.2.4" type="github">
  <diagram id="iWpOMX7xPqUjz648kuVm" name="第 1 页">
    <mxGraphModel dx="1234" dy="681" grid="0" gridSize="10" guides="1" tooltips="1" connect="1" arrows="1" fold="1" page="1" pageScale="1" pageWidth="827" pageHeight="1169" math="0" shadow="0">
      <root>
        <mxCell id="0" />
        <mxCell id="1" parent="0" />
        <mxCell id="Z7-XO79M6wbMjkOLd19U-1" value="TransitEntryActivity" style="rounded=1;whiteSpace=wrap;html=1;verticalAlign=top;fillColor=#dae8fc;strokeColor=#6c8ebf;" vertex="1" parent="1">
          <mxGeometry x="330" y="90" width="120" height="60" as="geometry" />
        </mxCell>
        <mxCell id="Z7-XO79M6wbMjkOLd19U-4" style="edgeStyle=orthogonalEdgeStyle;rounded=0;orthogonalLoop=1;jettySize=auto;html=1;entryX=0.5;entryY=0;entryDx=0;entryDy=0;" edge="1" parent="1" source="Z7-XO79M6wbMjkOLd19U-2" target="Z7-XO79M6wbMjkOLd19U-3">
          <mxGeometry relative="1" as="geometry" />
        </mxCell>
        <mxCell id="Z7-XO79M6wbMjkOLd19U-2" value="TransitEntryFragment" style="rounded=1;whiteSpace=wrap;html=1;fillColor=#fff2cc;strokeColor=#d6b656;" vertex="1" parent="1">
          <mxGeometry x="340" y="120" width="120" height="40" as="geometry" />
        </mxCell>
        <mxCell id="Z7-XO79M6wbMjkOLd19U-8" style="edgeStyle=orthogonalEdgeStyle;rounded=0;orthogonalLoop=1;jettySize=auto;html=1;entryX=0.5;entryY=0;entryDx=0;entryDy=0;" edge="1" parent="1" source="Z7-XO79M6wbMjkOLd19U-3" target="Z7-XO79M6wbMjkOLd19U-7">
          <mxGeometry relative="1" as="geometry" />
        </mxCell>
        <mxCell id="Z7-XO79M6wbMjkOLd19U-22" value="否" style="edgeLabel;html=1;align=center;verticalAlign=middle;resizable=0;points=[];" vertex="1" connectable="0" parent="Z7-XO79M6wbMjkOLd19U-8">
          <mxGeometry x="-0.08" relative="1" as="geometry">
            <mxPoint as="offset" />
          </mxGeometry>
        </mxCell>
        <mxCell id="Z7-XO79M6wbMjkOLd19U-19" value="是" style="edgeStyle=orthogonalEdgeStyle;rounded=0;orthogonalLoop=1;jettySize=auto;html=1;entryX=0.917;entryY=0.125;entryDx=0;entryDy=0;entryPerimeter=0;" edge="1" parent="1" source="Z7-XO79M6wbMjkOLd19U-3" target="Z7-XO79M6wbMjkOLd19U-6">
          <mxGeometry relative="1" as="geometry" />
        </mxCell>
        <mxCell id="Z7-XO79M6wbMjkOLd19U-3" value="有卡" style="rhombus;whiteSpace=wrap;html=1;" vertex="1" parent="1">
          <mxGeometry x="345" y="210" width="110" height="60" as="geometry" />
        </mxCell>
        <mxCell id="Z7-XO79M6wbMjkOLd19U-5" value="IssueTransCardList&lt;br&gt;Activity" style="rounded=1;whiteSpace=wrap;html=1;verticalAlign=top;fillColor=#dae8fc;strokeColor=#6c8ebf;" vertex="1" parent="1">
          <mxGeometry x="160" y="205" width="120" height="60" as="geometry" />
        </mxCell>
        <mxCell id="Z7-XO79M6wbMjkOLd19U-6" value="IssueTransCardList&lt;br&gt;Fragment" style="rounded=1;whiteSpace=wrap;html=1;fillColor=#fff2cc;strokeColor=#d6b656;" vertex="1" parent="1">
          <mxGeometry x="170" y="235" width="120" height="40" as="geometry" />
        </mxCell>
        <mxCell id="Z7-XO79M6wbMjkOLd19U-10" style="edgeStyle=orthogonalEdgeStyle;rounded=0;orthogonalLoop=1;jettySize=auto;html=1;entryX=0.5;entryY=0;entryDx=0;entryDy=0;" edge="1" parent="1" source="Z7-XO79M6wbMjkOLd19U-7" target="Z7-XO79M6wbMjkOLd19U-9">
          <mxGeometry relative="1" as="geometry" />
        </mxCell>
        <mxCell id="Z7-XO79M6wbMjkOLd19U-7" value="获取赠卡数据" style="rounded=1;whiteSpace=wrap;html=1;" vertex="1" parent="1">
          <mxGeometry x="340" y="320" width="120" height="40" as="geometry" />
        </mxCell>
        <mxCell id="Z7-XO79M6wbMjkOLd19U-15" style="edgeStyle=orthogonalEdgeStyle;rounded=0;orthogonalLoop=1;jettySize=auto;html=1;entryX=0;entryY=0.617;entryDx=0;entryDy=0;entryPerimeter=0;" edge="1" parent="1" source="Z7-XO79M6wbMjkOLd19U-9" target="Z7-XO79M6wbMjkOLd19U-11">
          <mxGeometry relative="1" as="geometry" />
        </mxCell>
        <mxCell id="Z7-XO79M6wbMjkOLd19U-24" value="是" style="edgeLabel;html=1;align=center;verticalAlign=middle;resizable=0;points=[];" vertex="1" connectable="0" parent="Z7-XO79M6wbMjkOLd19U-15">
          <mxGeometry x="-0.2992" y="-2" relative="1" as="geometry">
            <mxPoint as="offset" />
          </mxGeometry>
        </mxCell>
        <mxCell id="Z7-XO79M6wbMjkOLd19U-16" style="edgeStyle=orthogonalEdgeStyle;rounded=0;orthogonalLoop=1;jettySize=auto;html=1;" edge="1" parent="1" source="Z7-XO79M6wbMjkOLd19U-9" target="Z7-XO79M6wbMjkOLd19U-13">
          <mxGeometry relative="1" as="geometry" />
        </mxCell>
        <mxCell id="Z7-XO79M6wbMjkOLd19U-23" value="否" style="edgeLabel;html=1;align=center;verticalAlign=middle;resizable=0;points=[];" vertex="1" connectable="0" parent="Z7-XO79M6wbMjkOLd19U-16">
          <mxGeometry x="-0.0857" y="1" relative="1" as="geometry">
            <mxPoint as="offset" />
          </mxGeometry>
        </mxCell>
        <mxCell id="Z7-XO79M6wbMjkOLd19U-9" value="有赠卡" style="rhombus;whiteSpace=wrap;html=1;" vertex="1" parent="1">
          <mxGeometry x="345" y="410" width="110" height="60" as="geometry" />
        </mxCell>
        <mxCell id="Z7-XO79M6wbMjkOLd19U-11" value="GiftCardActivity" style="rounded=1;whiteSpace=wrap;html=1;verticalAlign=top;fillColor=#dae8fc;strokeColor=#6c8ebf;" vertex="1" parent="1">
          <mxGeometry x="515" y="403" width="120" height="60" as="geometry" />
        </mxCell>
        <mxCell id="Z7-XO79M6wbMjkOLd19U-12" value="GiftCardFragment" style="rounded=1;whiteSpace=wrap;html=1;fillColor=#fff2cc;strokeColor=#d6b656;" vertex="1" parent="1">
          <mxGeometry x="525" y="433" width="120" height="40" as="geometry" />
        </mxCell>
        <mxCell id="Z7-XO79M6wbMjkOLd19U-18" style="edgeStyle=orthogonalEdgeStyle;rounded=0;orthogonalLoop=1;jettySize=auto;html=1;" edge="1" parent="1" source="Z7-XO79M6wbMjkOLd19U-13" target="Z7-XO79M6wbMjkOLd19U-17">
          <mxGeometry relative="1" as="geometry" />
        </mxCell>
        <mxCell id="Z7-XO79M6wbMjkOLd19U-13" value="CheckServiceActivity" style="rounded=1;whiteSpace=wrap;html=1;verticalAlign=top;fillColor=#dae8fc;strokeColor=#6c8ebf;" vertex="1" parent="1">
          <mxGeometry x="340" y="540" width="120" height="60" as="geometry" />
        </mxCell>
        <mxCell id="Z7-XO79M6wbMjkOLd19U-14" value="CheckService&lt;br&gt;Fragment" style="rounded=1;whiteSpace=wrap;html=1;fillColor=#fff2cc;strokeColor=#d6b656;" vertex="1" parent="1">
          <mxGeometry x="350" y="570" width="120" height="40" as="geometry" />
        </mxCell>
        <mxCell id="Z7-XO79M6wbMjkOLd19U-21" style="edgeStyle=orthogonalEdgeStyle;rounded=0;orthogonalLoop=1;jettySize=auto;html=1;entryX=0.417;entryY=0.975;entryDx=0;entryDy=0;entryPerimeter=0;" edge="1" parent="1" source="Z7-XO79M6wbMjkOLd19U-17" target="Z7-XO79M6wbMjkOLd19U-6">
          <mxGeometry relative="1" as="geometry">
            <mxPoint x="220" y="280" as="targetPoint" />
          </mxGeometry>
        </mxCell>
        <mxCell id="Z7-XO79M6wbMjkOLd19U-25" value="是" style="edgeLabel;html=1;align=center;verticalAlign=middle;resizable=0;points=[];" vertex="1" connectable="0" parent="Z7-XO79M6wbMjkOLd19U-21">
          <mxGeometry x="-0.8403" y="-2" relative="1" as="geometry">
            <mxPoint as="offset" />
          </mxGeometry>
        </mxCell>
        <mxCell id="Z7-XO79M6wbMjkOLd19U-28" style="edgeStyle=orthogonalEdgeStyle;rounded=0;orthogonalLoop=1;jettySize=auto;html=1;entryX=0;entryY=0.5;entryDx=0;entryDy=0;" edge="1" parent="1" source="Z7-XO79M6wbMjkOLd19U-17" target="Z7-XO79M6wbMjkOLd19U-26">
          <mxGeometry relative="1" as="geometry" />
        </mxCell>
        <mxCell id="Z7-XO79M6wbMjkOLd19U-29" value="否" style="edgeLabel;html=1;align=center;verticalAlign=middle;resizable=0;points=[];" vertex="1" connectable="0" parent="Z7-XO79M6wbMjkOLd19U-28">
          <mxGeometry x="-0.2667" relative="1" as="geometry">
            <mxPoint as="offset" />
          </mxGeometry>
        </mxCell>
        <mxCell id="Z7-XO79M6wbMjkOLd19U-17" value="有未完成业务" style="rhombus;whiteSpace=wrap;html=1;" vertex="1" parent="1">
          <mxGeometry x="345" y="670" width="110" height="60" as="geometry" />
        </mxCell>
        <mxCell id="Z7-XO79M6wbMjkOLd19U-26" value="TrafficIntroActivity" style="rounded=1;whiteSpace=wrap;html=1;verticalAlign=top;fillColor=#dae8fc;strokeColor=#6c8ebf;" vertex="1" parent="1">
          <mxGeometry x="515" y="670" width="120" height="60" as="geometry" />
        </mxCell>
        <mxCell id="Z7-XO79M6wbMjkOLd19U-27" value="TrafficIntroFragment" style="rounded=1;whiteSpace=wrap;html=1;fillColor=#fff2cc;strokeColor=#d6b656;" vertex="1" parent="1">
          <mxGeometry x="525" y="700" width="120" height="40" as="geometry" />
        </mxCell>
        <mxCell id="Z7-XO79M6wbMjkOLd19U-41" style="edgeStyle=orthogonalEdgeStyle;rounded=0;orthogonalLoop=1;jettySize=auto;html=1;entryX=0.829;entryY=0.026;entryDx=0;entryDy=0;entryPerimeter=0;" edge="1" parent="1" source="Z7-XO79M6wbMjkOLd19U-30" target="Z7-XO79M6wbMjkOLd19U-32">
          <mxGeometry relative="1" as="geometry">
            <Array as="points">
              <mxPoint x="1378" y="301" />
              <mxPoint x="1378" y="504" />
              <mxPoint x="1292" y="504" />
            </Array>
          </mxGeometry>
        </mxCell>
        <mxCell id="Z7-XO79M6wbMjkOLd19U-42" value="startActivity" style="edgeLabel;html=1;align=center;verticalAlign=middle;resizable=0;points=[];" vertex="1" connectable="0" parent="Z7-XO79M6wbMjkOLd19U-41">
          <mxGeometry x="-0.3605" y="-2" relative="1" as="geometry">
            <mxPoint y="1" as="offset" />
          </mxGeometry>
        </mxCell>
        <mxCell id="Z7-XO79M6wbMjkOLd19U-49" style="edgeStyle=orthogonalEdgeStyle;rounded=0;orthogonalLoop=1;jettySize=auto;html=1;entryX=0.5;entryY=0;entryDx=0;entryDy=0;" edge="1" parent="1" source="Z7-XO79M6wbMjkOLd19U-30" target="Z7-XO79M6wbMjkOLd19U-34">
          <mxGeometry relative="1" as="geometry" />
        </mxCell>
        <mxCell id="Z7-XO79M6wbMjkOLd19U-50" value="startActivity" style="edgeLabel;html=1;align=center;verticalAlign=middle;resizable=0;points=[];" vertex="1" connectable="0" parent="Z7-XO79M6wbMjkOLd19U-49">
          <mxGeometry x="-0.2761" y="-1" relative="1" as="geometry">
            <mxPoint as="offset" />
          </mxGeometry>
        </mxCell>
        <mxCell id="Z7-XO79M6wbMjkOLd19U-51" style="edgeStyle=orthogonalEdgeStyle;rounded=0;orthogonalLoop=1;jettySize=auto;html=1;entryX=0.5;entryY=0;entryDx=0;entryDy=0;" edge="1" parent="1" source="Z7-XO79M6wbMjkOLd19U-30" target="Z7-XO79M6wbMjkOLd19U-33">
          <mxGeometry relative="1" as="geometry">
            <Array as="points">
              <mxPoint x="1484" y="287" />
            </Array>
          </mxGeometry>
        </mxCell>
        <mxCell id="Z7-XO79M6wbMjkOLd19U-52" value="startActivity" style="edgeLabel;html=1;align=center;verticalAlign=middle;resizable=0;points=[];" vertex="1" connectable="0" parent="Z7-XO79M6wbMjkOLd19U-51">
          <mxGeometry x="-0.5146" y="1" relative="1" as="geometry">
            <mxPoint as="offset" />
          </mxGeometry>
        </mxCell>
        <mxCell id="Z7-XO79M6wbMjkOLd19U-30" value="GiftCard" style="rounded=1;whiteSpace=wrap;html=1;" vertex="1" parent="1">
          <mxGeometry x="1205" y="281" width="105" height="39" as="geometry" />
        </mxCell>
        <mxCell id="Z7-XO79M6wbMjkOLd19U-39" style="edgeStyle=orthogonalEdgeStyle;rounded=0;orthogonalLoop=1;jettySize=auto;html=1;entryX=0.5;entryY=0;entryDx=0;entryDy=0;" edge="1" parent="1" source="Z7-XO79M6wbMjkOLd19U-31" target="Z7-XO79M6wbMjkOLd19U-32">
          <mxGeometry relative="1" as="geometry" />
        </mxCell>
        <mxCell id="Z7-XO79M6wbMjkOLd19U-40" value="startActivity" style="edgeLabel;html=1;align=center;verticalAlign=middle;resizable=0;points=[];" vertex="1" connectable="0" parent="Z7-XO79M6wbMjkOLd19U-39">
          <mxGeometry x="-0.0727" relative="1" as="geometry">
            <mxPoint as="offset" />
          </mxGeometry>
        </mxCell>
        <mxCell id="Z7-XO79M6wbMjkOLd19U-46" value="startActivity" style="edgeStyle=orthogonalEdgeStyle;rounded=0;orthogonalLoop=1;jettySize=auto;html=1;entryX=0.5;entryY=1;entryDx=0;entryDy=0;" edge="1" parent="1" source="Z7-XO79M6wbMjkOLd19U-31" target="Z7-XO79M6wbMjkOLd19U-30">
          <mxGeometry relative="1" as="geometry" />
        </mxCell>
        <mxCell id="Z7-XO79M6wbMjkOLd19U-47" style="edgeStyle=orthogonalEdgeStyle;rounded=0;orthogonalLoop=1;jettySize=auto;html=1;entryX=1;entryY=0.5;entryDx=0;entryDy=0;" edge="1" parent="1" source="Z7-XO79M6wbMjkOLd19U-31" target="Z7-XO79M6wbMjkOLd19U-34">
          <mxGeometry relative="1" as="geometry" />
        </mxCell>
        <mxCell id="Z7-XO79M6wbMjkOLd19U-48" value="startActivity" style="edgeLabel;html=1;align=center;verticalAlign=middle;resizable=0;points=[];" vertex="1" connectable="0" parent="Z7-XO79M6wbMjkOLd19U-47">
          <mxGeometry x="0.1852" y="-2" relative="1" as="geometry">
            <mxPoint as="offset" />
          </mxGeometry>
        </mxCell>
        <mxCell id="Z7-XO79M6wbMjkOLd19U-31" value="TransitEntry" style="rounded=1;whiteSpace=wrap;html=1;" vertex="1" parent="1">
          <mxGeometry x="1205" y="439" width="105" height="39" as="geometry" />
        </mxCell>
        <mxCell id="Z7-XO79M6wbMjkOLd19U-35" style="edgeStyle=orthogonalEdgeStyle;rounded=0;orthogonalLoop=1;jettySize=auto;html=1;entryX=0.25;entryY=1;entryDx=0;entryDy=0;exitX=1;exitY=0.25;exitDx=0;exitDy=0;" edge="1" parent="1" source="Z7-XO79M6wbMjkOLd19U-32" target="Z7-XO79M6wbMjkOLd19U-33">
          <mxGeometry relative="1" as="geometry">
            <mxPoint x="1322" y="599" as="sourcePoint" />
          </mxGeometry>
        </mxCell>
        <mxCell id="Z7-XO79M6wbMjkOLd19U-36" value="startActivityForResult" style="edgeLabel;html=1;align=center;verticalAlign=middle;resizable=0;points=[];" vertex="1" connectable="0" parent="Z7-XO79M6wbMjkOLd19U-35">
          <mxGeometry x="-0.7616" y="1" relative="1" as="geometry">
            <mxPoint x="38" y="1" as="offset" />
          </mxGeometry>
        </mxCell>
        <mxCell id="Z7-XO79M6wbMjkOLd19U-37" style="edgeStyle=orthogonalEdgeStyle;rounded=0;orthogonalLoop=1;jettySize=auto;html=1;entryX=0.829;entryY=1;entryDx=0;entryDy=0;entryPerimeter=0;" edge="1" parent="1" source="Z7-XO79M6wbMjkOLd19U-32" target="Z7-XO79M6wbMjkOLd19U-34">
          <mxGeometry relative="1" as="geometry">
            <Array as="points">
              <mxPoint x="1052" y="599" />
            </Array>
          </mxGeometry>
        </mxCell>
        <mxCell id="Z7-XO79M6wbMjkOLd19U-38" value="startActivityForResult" style="edgeLabel;html=1;align=center;verticalAlign=middle;resizable=0;points=[];" vertex="1" connectable="0" parent="Z7-XO79M6wbMjkOLd19U-37">
          <mxGeometry x="-0.6248" y="-1" relative="1" as="geometry">
            <mxPoint x="-19" y="1" as="offset" />
          </mxGeometry>
        </mxCell>
        <mxCell id="Z7-XO79M6wbMjkOLd19U-32" value="CheckService" style="rounded=1;whiteSpace=wrap;html=1;" vertex="1" parent="1">
          <mxGeometry x="1205" y="588" width="105" height="39" as="geometry" />
        </mxCell>
        <mxCell id="Z7-XO79M6wbMjkOLd19U-33" value="TrafficIntro" style="rounded=1;whiteSpace=wrap;html=1;" vertex="1" parent="1">
          <mxGeometry x="1431" y="439" width="105" height="39" as="geometry" />
        </mxCell>
        <mxCell id="Z7-XO79M6wbMjkOLd19U-34" value="IssuedTransCard" style="rounded=1;whiteSpace=wrap;html=1;" vertex="1" parent="1">
          <mxGeometry x="965" y="439" width="105" height="39" as="geometry" />
        </mxCell>
        <mxCell id="Z7-XO79M6wbMjkOLd19U-44" value="" style="shape=image;verticalLabelPosition=bottom;labelBackgroundColor=default;verticalAlign=top;aspect=fixed;imageAspect=0;image=data:image/png,iVBORw0KGgoAAAANSUhEUgAAAiwAAAEsCAYAAADgn+h0AAAMcGlDQ1BJQ0MgUHJvZmlsZQAASImVVwdYU8kWnluSkJCEEkBASuhNEKkBpITQAkgvgo2QBBJKjAlBxV4WFVy7iIANXRVRbCsgduzKotj7YkFFWRd1saHyJiSg677yvfN9c+e/Z87858y5M/feA4DWB55UmodqA5AvKZAlhAczR6elM0lPAQp0ABnYAzqPL5ey4+KiAZSB/u/y7gZAlP1VZyXXP8f/q+gKhHI+AMhYiDMFcn4+xMcBwKv4UlkBAESl3mpygVSJZ0OsJ4MBQrxKibNVeLsSZ6rw4X6bpAQOxJcB0KDyeLJsAOj3oJ5ZyM+GPPTPELtKBGIJAFrDIA7gi3gCiJWxD8vPn6jE5RDbQ3spxDAewMr8jjP7b/yZg/w8XvYgVq2rXzRCxHJpHm/q/5ma/y35eYoBH7awUUWyiATl+mEOb+VOjFJiKsRdksyYWGWuIf4gFqjyDgBKESkiklX2qAlfzoH5AwYQuwp4IVEQm0AcJsmLiVbrM7PEYVyI4W5Bp4gLuEkQG0K8UCgPTVTbbJRNTFD7QuuzZBy2Wn+OJ+v3q/T1QJGbzFbzvxEJuWp+jF4kSkqFmAKxdaE4JQZiOsQu8tzEKLXNyCIRJ2bARqZIUMZvDXGCUBIerOLHCrNkYQlq+5J8+cB6sY0iMTdGjfcViJIiVPnBTvF5/fHDtWCXhRJ28gCPUD46emAtAmFIqGrt2HOhJDlRzfNBWhCcoJqLU6R5cWp73FKYF67UW0LsIS9MVM/FUwrg5lTx41nSgrgkVZx4UQ4vMk4VD74MRAMOCAFMoIAtE0wEOUDc2tXQBe9UI2GAB2QgGwiBs1ozMCO1f0QCr4mgCPwBkRDIB+cF948KQSHUfxnUqq7OIKt/tLB/Ri54CnE+iAJ58F7RP0sy6C0FPIEa8T+882Djw3jzYFOO/3v9gPabhg010WqNYsAjU2vAkhhKDCFGEMOIDrgxHoD74dHwGgSbG87CfQbW8c2e8JTQRnhEuE5oJ9yeIJ4r+yHKUaAd8oepc5H5fS5wW8jpiQfj/pAdMuMGuDFwxj2gHzYeCD17Qi1HHbcyK8wfuP+2gu+ehtqO7EpGyUPIQWT7H2fSHemegyzKXH+fH1WsmYP55gyO/Oif8132BbCP+tESW4jtx85iJ7Dz2GGsATCxY1gj1oIdUeLB3fWkf3cNeEvojycX8oj/4Y+n9qnMpNy11rXT9bNqrEA4pUB58DgTpVNl4mxRAZMNvw5CJlfCdxnGdHN1cwNA+a1Rvb7exvd/QxCDlm+6eb8D4H+sr6/v0Ddd5DEA9nrD43/wm86eBYCOJgDnDvIVskKVDldeCPAtoQVPmhEwA1bwW+YM3IAX8ANBIBREgliQBNLAeJhlEdznMjAZTAdzQDEoBcvAalABNoDNYDvYBfaBBnAYnABnwEVwGVwHd+Hu6QAvQTd4B3oRBCEhNISBGCHmiA3ihLghLCQACUWikQQkDclAshEJokCmI/OQUmQFUoFsQmqQvchB5ARyHmlDbiMPkU7kDfIJxVAqqoeaorbocJSFstEoNAkdh2ajk9AidD66BC1Hq9GdaD16Ar2IXkfb0ZdoDwYwTcwAs8CcMRbGwWKxdCwLk2EzsRKsDKvG6rAm+JyvYu1YF/YRJ+IMnIk7wx0cgSfjfHwSPhNfjFfg2/F6/BR+FX+Id+NfCTSCCcGJ4EvgEkYTsgmTCcWEMsJWwgHCaXiWOgjviESiAdGO6A3PYhoxhziNuJi4jribeJzYRnxM7CGRSEYkJ5I/KZbEIxWQiklrSTtJx0hXSB2kDxqaGuYabhphGukaEo25GmUaOzSOalzReKbRS9Ym25B9ybFkAXkqeSl5C7mJfIncQe6l6FDsKP6UJEoOZQ6lnFJHOU25R3mrqalpqemjGa8p1pytWa65R/Oc5kPNj1RdqiOVQx1LVVCXULdRj1NvU9/SaDRbWhAtnVZAW0KroZ2kPaB9oDPoLnQuXUCfRa+k19Ov0F9pkbVstNha47WKtMq09mtd0urSJmvbanO0edoztSu1D2rf1O7RYeiM0InVyddZrLND57zOc12Srq1uqK5Ad77uZt2Tuo8ZGMOKwWHwGfMYWxinGR16RD07Pa5ejl6p3i69Vr1ufV19D/0U/Sn6lfpH9NsNMANbA65BnsFSg30GNww+DTEdwh4iHLJoSN2QK0PeGw41DDIUGpYY7ja8bvjJiGkUapRrtNyowei+MW7saBxvPNl4vfFp466hekP9hvKHlgzdN/SOCWriaJJgMs1ks0mLSY+pmWm4qdR0relJ0y4zA7MgsxyzVWZHzTrNGeYB5mLzVebHzF8w9ZlsZh6znHmK2W1hYhFhobDYZNFq0WtpZ5lsOddyt+V9K4oVyyrLapVVs1W3tbn1KOvp1rXWd2zINiwbkc0am7M2723tbFNtF9g22D63M7Tj2hXZ1drds6fZB9pPsq+2v+ZAdGA55Dqsc7jsiDp6OoocKx0vOaFOXk5ip3VObcMIw3yGSYZVD7vpTHVmOxc61zo/dDFwiXaZ69Lg8mq49fD04cuHnx3+1dXTNc91i+vdEbojIkfMHdE04o2boxvfrdLtmjvNPcx9lnuj+2sPJw+hx3qPW54Mz1GeCzybPb94eXvJvOq8Or2tvTO8q7xvsvRYcazFrHM+BJ9gn1k+h30++nr5Fvju8/3Tz9kv12+H3/ORdiOFI7eMfOxv6c/z3+TfHsAMyAjYGNAeaBHIC6wOfBRkFSQI2hr0jO3AzmHvZL8Kdg2WBR8Ifs/x5czgHA/BQsJDSkJaQ3VDk0MrQh+EWYZlh9WGdYd7hk8LPx5BiIiKWB5xk2vK5XNruN2R3pEzIk9FUaMSoyqiHkU7Rsuim0ahoyJHrRx1L8YmRhLTEAtiubErY+/H2cVNijsUT4yPi6+Mf5owImF6wtlERuKExB2J75KCk5Ym3U22T1YkN6dopYxNqUl5nxqSuiK1ffTw0TNGX0wzThOnNaaT0lPSt6b3jAkds3pMx1jPscVjb4yzGzdl3PnxxuPzxh+ZoDWBN2F/BiEjNWNHxmdeLK+a15PJzazK7OZz+Gv4LwVBglWCTqG/cIXwWZZ/1oqs59n+2SuzO0WBojJRl5gjrhC/zonI2ZDzPjc2d1tuX15q3u58jfyM/IMSXUmu5NREs4lTJrZJnaTF0vZJvpNWT+qWRcm2yhH5OHljgR78qW9R2Ct+UjwsDCisLPwwOWXy/ik6UyRTWqY6Tl009VlRWNEv0/Bp/GnN0y2mz5n+cAZ7xqaZyMzMmc2zrGbNn9UxO3z29jmUOblzfpvrOnfF3L/mpc5rmm86f/b8xz+F/1RbTC+WFd9c4Ldgw0J8oXhh6yL3RWsXfS0RlFwodS0tK/28mL/4ws8jfi7/uW9J1pLWpV5L1y8jLpMsu7E8cPn2FTorilY8XjlqZf0q5qqSVX+tnrD6fJlH2YY1lDWKNe3l0eWNa63XLlv7uUJUcb0yuHJ3lUnVoqr36wTrrqwPWl+3wXRD6YZPG8Ubb20K31RfbVtdtpm4uXDz0y0pW87+wvqlZqvx1tKtX7ZJtrVvT9h+qsa7pmaHyY6ltWitorZz59idl3eF7Gqsc67btNtgd+kesEex58XejL039kXta97P2l/3q82vVQcYB0rqkfqp9d0Noob2xrTGtoORB5ub/JoOHHI5tO2wxeHKI/pHlh6lHJ1/tO9Y0bGe49LjXSeyTzxuntB89+Tok9dOxZ9qPR11+tyZsDMnz7LPHjvnf+7wed/zBy+wLjRc9LpY3+LZcuA3z98OtHq11l/yvtR42edyU9vItqNXAq+cuBpy9cw17rWL12Out91IvnHr5tib7bcEt57fzrv9+k7hnd67s+8R7pXc175f9sDkQfXvDr/vbvdqP/Iw5GHLo8RHdx/zH798In/yuWP+U9rTsmfmz2qeuz0/3BnWefnFmBcdL6Uve7uK/9D5o+qV/atf/wz6s6V7dHfHa9nrvjeL3xq93faXx1/NPXE9D97lv+t9X/LB6MP2j6yPZz+lfnrWO/kz6XP5F4cvTV+jvt7ry+/rk/JkvP5fAQw2NCsLgDfbAKClAcCAdRtljKoW7BdEVb/2I/CfsKpe7BcvAOrg/3t8F/y7uQnAni2w/IL8WrBWjaMBkOQDUHf3waYWeZa7m4qLCusUwoO+vrewZiOtBODLsr6+3uq+vi+bYbCwdjwuUdWgSiHCmmFj3JfM/Ezwb0RVn363xh97oIzAA/zY/wvrhZDCbwQi9AAAAGxlWElmTU0AKgAAAAgABAEaAAUAAAABAAAAPgEbAAUAAAABAAAARgEoAAMAAAABAAIAAIdpAAQAAAABAAAATgAAAAAAAACQAAAAAQAAAJAAAAABAAKgAgAEAAAAAQAAAiygAwAEAAAAAQAAASwAAAAAWMy2gwAAAAlwSFlzAAAWJQAAFiUBSVIk8AAAQABJREFUeAHsvQecnld153/ed0ZdstWrJVmSu+TeO8022JgANhCyBBIgSwtJYJMQ8sn/v2wK2WSTkCwkG5YUsktvNmBsY4x775bcLVmS1a1iy+pl5t3f95x73/edd2akkUa2Zelead7neW4795x77jnnObc8ldmzZ9dqtYpZpdNM14puc6jouVapmf6T5IGLHj1wrWfXA2Vrnhqx9bz1myhbVTnV2qi7wC/0L/ynQVHGX5E/IVv5LfK3SUeESnF9U/RP8MjBqH+rcEBVykKiUtc0WPwq0wNLRaGTZ91ijNSJpJucHUsFmyOnYozwn1qJ82pqUZcbNV4wxeu+wC/0L/xXxl+RPy5uk2CV5Czy1wlS9E/Rvxge2BJVWRUaGG5BEBfBb8IPQgTJ/ldTnO7d2xJFPH+lhsL1nNTqZorJQMFc8bcEJWUY5FN2D+Qo8Bu0KfQPvghGLPzng0kkKeOvyJ8if8UDRf+gXA9q/VuVyYJtkWVj0hhc4q3flWjyjuAq4RbvvYewUhSHaaLAMwStJ+ohxaWL8spMSXm8VIFf6A/DBNM458RP4T+8Tk6WMv6CJYr8KfJXA6LonyQmUaoKB5P+rSIRHW+siMaD7kNYIjTjPgwNYrO3BFPPBarKei5/SPWRTyW9TgwcZYCwcnx7XLh/iUz5C/ygFYSs05w7p6xTExIV+hf+K+PPB4lkR5E/Rf4iLov+cS1xEOhf/BvJsEiK0r0ngbmLA3ep6E7uOF+c69lIj78QHSqkRy+V5l1D1RLjWlZluQUW/6iPivgp8J0UkANaFfo7TwQ1RJnCf2KLMv6K/Cnyt+if0Lbo0aw7Dzb9K4MlfB5hOIgQiSYoDHfKuxtWi13cD4dx4TaOUnNGiKf79BiGCA/K63GR4A4UxRKqFPFAWoGPz6nQH94q/JfHERxRxp/enIv8kc1e5G/RP7zJFv3rujKMjGw6YE3oD93Bm50kaJgfyfAgIYUox6xSxGGUYPxRyoPfu8sgPCpYMPofhowS0+rbAj/IlafLCv3hjcJ/ZfwV+VPkb9E/aF74gFDXrcRJRur1X2l+gyP2gNe/vq0ZWkAI/jl7JMPCOsPYIB2aNBMLUrnXRBZKVAIBg6hB3HzvRb0KVktBZIwaL8xCFrL5pcAv9C/8V8afhEGRPyEXi/xFzQQtiv4p+ldGSBXjAfsh9mQk48ItCvGJe1iUSB7kSMO6SFykPLJA2CdPHW7QyAjxw+b0RBqxbvnpjkzKGj/u4VKN1K2oAt9VVdCx0B8uKfxXxp+PB36K/EFOIj31Vxeiui3yt+gf8QM69GDQv5XZx83xTQe83ftIcBcII4JnLgwQrIscF9SpaDKpU1nijdBvPLv/1OvIhKSeVEUjV9ypfgyaAj8RqE47nhUK/Qv/lfGngVDkT12IIm6L/C36Bz5gXLjOcG0RP3UdUueYppumfNy+zvSvZnMwFdzdQevdeAjs9Agt3AWSJ4MQGsSrjBNL96xDUXRyCrhdQiWubsnODele1H/0GFc3Ugp8kajQPxil8F+MEx89Pm7K+BMtJFSDIiE3ivwp8rfoHxcPB53+9UW3LPYMd2OojWRP+EO2M/zqsoOcXkyWiEI6Tzu5aZJhkogpPZyS3cBh4ocUV9CqMK99KfAL/Qv/hTJ2xRy3ZfyJGE4K/fi1yB9/gSzyt+gf170Hof71HcY1eUmS5RJvMuE0SdYLUsN9IW5scNR+p7tTEK1SM0xZIEj4Qap4dtJCynBHXAbg70r1MvHmVOAX+hf+iyHj46WMv7qBkgSKixBkSpE/Rf4W/YOUiL+DTv/yteZkZ4gIOTRi4o7f8I74M7TyG/1g8vCcQk7i0RffqnYA1Kfhc8amq1fV9Jwq95hI47fAd4EtSuAOLfSHEOKLwn9l/BX5o8EQIYsGnor8jRfqon8OHP3rL7YwOUowmN2fnPvzXfhXMBpkNnCJWx8Q2ViJKD9WzvPxg/WHM8atQGXIeTwDaamww9EP1+RziSz69bSUQmSBLyIU+sMKhf8YXAwQhTy2mpzlZfwV+VPkr8ZH0T+hfLOMcIHxOtW/km8h8VjsB0KxvZi7vKpA8T4F5Giq85OEpBzMENEyJLgLcyPuuNefQ4gy/OZasf7DvIm0Ar/QH74p/IchDyXySCnjr8ifkJFiiiJ/i/6BDRTEE/qPpCAcLPpXqz0zyg0h6TsTIIVH6Ud56kMm3XNGCwtq66tb2OOcclFlTXNACBqmgtzCVRrV5UW43HutBb4oQYAiQaNCf3hJ9HCS6KfwXxpZsEiMxTL+ivwp8heJGZqpUvSP6w/9ICIOWP1brdQ/7KOOB1NcHSwXgRVcbySGIAoDhCyk1pUIT1EsdvuQyJ/io6h7WSjIY6fP6eiGe/0V+IlIUKfQPxip8J9GRhl/Rf4gIEM+uJQt8rfoHzECvHCw6t9qPk5fNIjBwfjwQRKOaYiTHvE7JRuETDGQsoXrMQwoSZkYXMpCLgiM5InsesDzEmlcCvxEDEgCoaFToT9EcD6COoX/nBxl/BX5U5e6WaAW+RuKhd9YZFz0j2uUpFYONP3r/pW6ysSSwODIFoVUBi+7PkXhilQPPKNKgk+0Wzkv88tvhDJqSJaLzuv1rH7niifUUNQTdaGaUijwRbhC/8J/eUSU8Vfkj0RC/UUm5GSRv65UnBhF/xxc+te/JYTJ4Ja6jBA3NpJHxNeguOyMI974zDnWhUclnon1FmHN5IPgstKlLr93EycXVJS7/GPw+dtzgV/ojwVc+K+MP+RKkT8+For85eUNPVH0T6jSon+TjRF7M7Ix4l4QcYobFmkxE8ZH1T0gSBTxUFAw3PXxIGErS4R4GIw8KSO3+k6zC2OPlVGYJ5cif4EfNA/yFfqLiQr/lfHHi02RPy5Hi/wt+qfoX62SDWPCrQyfI8fGqJ8kiLcpTFy3Pdw9yySRGyuoVaZ/3DJRMWVmQS2Z6sZJ5CG7//Hm5KXIga0UZgvmigfKF/iF/s5TYoTCf2X8FfkTshG5qLv8WRPe/or8LfrnYNO/vss42RwSjhoVbjtkA0IDRHHpSddYX8HVp5A8Aa2CXE2GTFY2yuH/3UihHjLz14hn8HmsojwU+IX+zlP+4xK68F8Zf4kbivyR7GR9V5G/Rf8ctPp3jo7mT46PZDUk20EXLPq6sHA7Q09ukJAHK4OhE1HYI2F3UEJ3iqBiPusX94quh4jzJMUV+CJCJnSiEY+F/g2ywHauugv/JQ4RQcr4Q4TEe1aRP06LGDEhX4v8LfrnQNO/mhLSSE/K0hfJJnHImhNseawJ4j2trizI5Klhv0S2NGAQIQgRlaes8rEWJmI9hdTQxror8EUL/ScU+gcd+C38V8ZfkT8hWIv8Lfqn6F8pBdkfFT5+6NYESrNuVaBEecjuR916iLgwYsJg8ehU1i+4S7hJWjgl1bM1ew08kp9UbYGfKSKq7SP6Dxpodvycmo081GzuvIqtWpN7JsMq9C/8Jx5oHqg87CP+a66W+zL+y/iDD7qEIv/L+GsWFLuQP2GwJO5hG10+QY+VKQ3hkmrDzCPBjRJxWXYJpNtgRBkyqofF/WNHm02aVLNJE2s2dHDVXlhds5UvVGzxYtUNk7aEVvhTDjObOqVm48ZWbOu2mq1W2fmLKrbhZRVGoO4Gfmq10OdtVc6xbEwBOxrbpQWt8PuL//4A/8p31+y8s1grVLWXRbf/9pdV27lz7/E/dKTZ9GmijOi/dEnV1r2oulJXBEkb/b8/4B9dffD2f8GfoV76/2CVf4X/Dyz+b2/W2J0yAFiL4opGPc1AT0+RjYW1yUiodWqXjxsNSpIRQ1IuOGyo2bveaXbaSTj2c4h7jsJaurxiP/hhmy1cgiBphAx/5CEqf3nNTjqhXmnK1Glbtlbs+hsqdsvtvcOPzHiAMnSgOkIRp6XGFe1IYjdUT/D7i//+BP8wGYzRkzUbLrqOH1+z5Sv3Hv/p08w+/Osx1fe9H9bs7ntErZb+35/wz205WPu/4A8FDt7xX/q/9P+BxP9SNVmpJ+XNY45qUueu9uora5UXYwXN7tpdF54V8Kj8wWc67FSMFcVt2mS2YKHZY49rOuIFsldsymSz3/lUpx19FGWiHNdc3W/+eqeMFeKJMdu23axDtgsr5IcMkjHzjk477xwiUhZlzfB58w91GtdcvTdX+d2MUX7sLtBphe/5c5MS/JzLT2D1tN7x39/g33l3RUaesBS5Hn+iYitWyIzbF/hDqEL/oAGkSPy/v/X/wc7/BX+kl/jTeRR23Ufj3yukYv0V/i/j/1WSf/KwhNZx3Q3v6caP1Zc2x0PBZ6uDN/WkeRy2J7vi1j1C2s9f0S/xTCe9W8bEoYfG9Mstt1Xtp9fp7aZDFXuo2AlzzN57RYcNH2Z25a/U7K+/1KYpCmBFOPfsmk2fqhGgmNWaQvrmD9ps0UKz9vaKnX92p739MrM2eUjefknNHplrMoh8jqoOP+rhN+pww4SqUxRmEe9bHtDcntCA31/89zf49z1k9vDcig1QT2O4gG9/8dcXK31OD/5Ic4SF/on/97f+P9j5v+AfEs7FnIbrwSb/Sv8fWP2Ptvc3blzmvq5ETO0GiSfEibVhPJGAeoLr454pnDAMdJENcIqmcI48QmnKc+PNFfvJNclYCSlOjfboY2bXXAvYio0bX7GTT5SxoyIZ/hEzG/C/8e12N1aAv3NnzW6+vWL33a+iKjBE005TplAj8BQE39vmzxEHWAfdBB8TK8wTqVspGUIzfIrvLf77K/ydMhjDWIFaBx/+wQTe1QX/0v8H3fgv/B9j32V94f/XNf+3w8xVNxekxnXvqh49Li3u9ohuOYAWoyFO1Qt1j5JP+t5vUISzj4vIlzdU7Je38h5PRZ06ThfvS6RR5p4H5CG5tNO9LBMnCr4WwLgaVRprLCi2fn3NFi/VfQv8J58xO+fMaOek8WbP6JmGAP9Nb+i0yRPjvf/an5sWhPYM/4Tja3Y8bVW48RZNVa1swPdYFTv0kJrNUZ7Dp5kddljNtmhqa+ESs0WLKj610ikDqRV/WjVlcsXecAFpNfvlLVUbOKDTTpxtdsQRndbWpimZVRV76FGzJ55QHoAJVjP9J2u67I0XKkH0uunWqg0YoF0+2sh1lAzBalvNVq2q2kOPxPROT/CnTZMn6pyAH1/CFv0FBPovF+ybbg36UH9P8DP+xx7VaaefWrGJE5RP9uULKnvLHd4smixMven65Sbon2Ppy5EjxQ/HmujXadO1eHrTppot0iLdhYuj7e7F6wH/DJ/27Sn/NcOH/mFQd+c/h7Eb/Av8Qv/CfzG8+yr/y/gLgRa6rMifV0L+tsuesBrn3YrWLsjhUb/BC6JEKR8UI0pKGaVdMQ26hop/dKhiY8cqXkUWLjTbuoVuU8BYoXpVwjN/KPu1a82GDavY+DGRluEP1jZc7jdsAD6QusJfr50ubjgpacgQJZMjwR+gaaPTTlaClNXKFSajSXX0AP98TTsdMYt1MRX78TVd4VPfhHFmn/ioSekG/jQa5T5zpm7eULP7HzT71ncxAsjdgK87G3VozU4/Bdy1q2m12UVvqlm7jA5nYuU/TLueTj3J7Pa7zH74Y5kSTLM10X+UFL3joBpWr+m0t7zJ3GgBPtNvXv4Us9tkPPzox1CzK/zRTfAdptKhF00dr0XON8tgycaWp7fAp75LL66p3dC9gf9kGS7Hz6nYHfdQH5WSM0KmP/gTj5HziY92iH7R597/Sps5UxCV5V55yb79fbVDCa34e41eN/0f8PvKfxm+ryfBIKGyHvp/d/gHbgV+oX/hP8ZUGX8uWSRLJBN2of+K/An5/0rK33bpQFe8KMSQ8Eh5Av4RvCSKds2sxqD4lE99FkoLjcB9UgpusChuLVtdvbIoc9yxNXvzhTXf5vyiPCePPcF22Irevms2WEYH5evwqdMD8Nu6w1eDmjYrec4Mn7Uab5OyVXU2R14NvDxeceMir07NZs7wZsuwqtmGTWF4ZPjjZHR96j932iHysID/E89UbIkU/eBBFdVZs1GjzM7AKNL/b35PFTfhz8AGbeDzc+klZju0hfjBhyr24ktmkyeYHXec8FLG88+t2TPPdtpjT3aF7wj5T6cMh4pt13TOg1qH8tJL8nbIG3WcvBbQ/wIvr8XMWkib8Qf+1m1mq2Qo0XZvjBpIv8i54zF4WoCvKvSs35b+P3x6GFkwHXU8v8xs8fNmw4dW3IPm3hv1geOYGtsMH/p9UvQ79BCVFpwnnzZ7Xp6pQVosjVdr9OianXFaFPzW93RtgZ+q1GXP+Q/8CYFbwp+OBfe4iFa7xj9q4LfAp//3ZPwX+gf3FP5jyJXx1yx4ivxxavRb/rYj3V3Ou7TBGtBT0kaNgYcSCEEviEqWlqGg8uV47oYNjgG74WWunqKpjE77rd9QtRSRR4O37sOnd9q6dZTQXzf4lPUWKZ27fB/wHaK3NVL9V8/Er9YupKVSsIdpbcvh02ta/BtTSz6nhWIU/BOPl46shtHw6GNEJmhep3YnnWgyVgLmT6+v2I03JVyV8bpfVGXMdKj+qp0mL8pVP63aps2NdsGUhLiGS/Afv1qRYaT6Ev7nnl2x97y7w798/cYLMTi6wg90E866/NNXtf17ERUHnLPPrNl73016TVNHZvMon/AH7lMysP7yf0Q6HhlUzn/9vAwtnYnjhqHi1DKHzzMdQG7vd8VTJ/URbrmzYlfJCwQs/sD793+3o9H/KklKM3x2dx2q7dPk/4nWKv3yZuUAjqq57udV+/THO7X2qNONlquvqdpm6Ef2RH+/kl/B645U3Qf+u+I/8I8yUZqavYX4tAWf/qetu8K/wBetCv0L/5Xxl2RJlkVF/rhekL7oTf+/GvIXMe4d4yMU5cArVYpxYa8GIsRrcoe5giPZNTKqISkbCiVlQZpmGcjkyuKN56MkNP0iT8M115t96R9ZC1HVmzZ5KM/6kRz6Dx8FToC4J+dzXFQtaNA2vCRA7ZDn4hGtJaENzfBnTIu4F9eb3XwLyUpN+G/ZUrEbblJlqgcPxBEzeQsndMXfo5Ty0MMmY4P8Dfh3akrlhdXQU1M0Y4HcFX4z/R+SZwUvUIYP/e/SuSfsnqIc5XcF3/uPHGSiiNoc/wJ+RHaFP04eEOI3bzH72bXcNuAvXVax22TEUE8u2wp/xgzS5BFaX9H0E3fkj2o4/O/nN1EySkE/nqJEyktUivH2N8HvK/9RA0Cb8aeavuDfTP8CX0Qr9BffMF76Lv+c/Qr/lfHncqwh/4r82b3+2Z38lcHCGYiEqEyP9eBOcZSchBYLYyOP2zi6zxldE9QfXTF4msopi08TKfdiTQvceHPFFi02+8lPKvJMAIY69i38Bx+OOmnrHC2uzQ3DaGLNyxFaR8GUCmfDbNjYHf5U31JttkZGxU5/I++K/9LlbVTt9XKIWjyoHqriKaURv1wen5wA/Bw4sZcwYoS2Gw/oGX9yLNNCVwyjVvqvUtuod8QI1rcAUM9RZRf48aKcEtJFmR1/rlGoK/yRmvIirNG00rYd3eEvXb7r/meNDfW+oPIddVooJsFfpkMDoT9h+jQiu8LPeJC+L/gvcGzAp94MP9IK/Fdy/Bf6B+Nn/i/8V8ZfkT+MAsKey3+dzpGUrMqG6PZXXEVKWWkxqL9gkSdpknhrpVSUq2iuBxc777MMSl6+63l0P3xopD23SIloUPUWHpglS82OORJYAUMX/Ud0cm68AvBV4e7gq8Iu8FG0y5Zpt46mhfCWjDyk0156Oeo5/jid58ICWMGfOw8Ygp9gZPgDBgR81mJ85INqlAcVUJDpoDNg4p5ndvC0ws/4k2urvBThQUp4JPwffdzsRabN1BCmKWhPhi81T4LiKrZtm9IiSddoCzFzHwsPBuU4cbiZ/liobuSoHIVjFYKD0o8TmehIpIIW/KvVwH/LVk0n9UD/rVujtNfgt13hDxRH0cbx42p+Im7eAUXWiuBX24Wbo1LzHVROP0+kHP0PTygo097wX0/4QztHFcDqv8BAvz3gX+AX+hf+K+OvyJ/9U/76tmYGKEoGURVbYD1Cstu1H4kux0MRurZRhKK5lYb2bcu6RclW8Qh4AXIoLv0xJcRqWc+jSHbooJ/8LBTdZvgiUxSi7h7gkzOHnuBTmLUprJNoU/0naE3FrXd4rdrlAnyVZjponhLRjym0wh85kl1CGA/euD7jT3U94e+tTvjff7/Ok3mwgUeACPp3w59GktW7Imh7n7aF3/cAkBSgvzI4nd0S6Jn+Dfht7mHwnUldmtALfIjcBD+Axm9P9Ccr+POxxZHasRSdmUul7eOKdvjsjqKAQqZ/f/kPeLujPzZnb/gX+OoJus37fM/Hf6F/4b8y/pJQ0zDKEtBjmvRfkT+iSINMfZb/7XgEMFRgMsq7rEpGB2/YpJHHdaHnAFCOUClJN07DpSBKh45gG62/LcuD4bVSRPV4Hm74c6CUpxRJXeGTqXf4FPAau8DnXR/4D801u+wSpQv+ibNZd6FdKvKGcJYJdc5fpOkgPBzezsCxFf4Layp2733yD6gaR5fs3vAcoXqeI62BP/BlsTn+GHGxu0oqMBeBRrr3ahJhqdNJkWqHFtkwdA9HNLNP9M/4IzKBnz1Igacqoq78sxv45OyZ/lSiVvZGfyFI/6/TtNVd94JwGFyZhhDA75U0f2FUtSv8UzP7hX9/6F/gN3d3Yt56/zN+u/K/j/8W/iv0TzRkOOzh+C/8V/ivPtxceouB6hEH3/hrD6+I9A/KFoJIAOVVwB6DYpJliGIllweNokqa2nGfDHM8FKUGbvXs9Wl07iRN/4cNI5E6Ih/bW3Oh8BA0nvEZVJPrHoOmGX6blpCg4YGPkeH+hSb4wFrzQs2e16FzUw+r2OEztFZkuNauzKhpa2008pF51ElLVF7186Lv7SVSdVMn3z3iUDnXlMI/CtBGBZVBDwdYtb4FvuNP/cLXsdKPyOrPXpwf0nuCD/3xquQWteBPqYw/YFvpD0CUCMW6wQ+g3qbe4QO56lNfbsS1wMdrleH3Rn/wX6F1OpyD42jTzCb8eawH1d+F/v3kP+D0in8T//WOP7R7hehf4Hu3wwqF/kGEbvKn8H8Zf0X+aHAkjdyif6RtSUAhI0akglyRukhxoRKHtIXiTVIGjeAKOLJiPXgUIzBCUtTEr9+gKF2PPpI6vYSf0TFJZ4p4k1rgv0x+pTAlQ/ZW+GPGqJ4E/2VfB9IVvrdc8OfqY4uUr0r3HD+HU2upV94MZX90LgqpZ/irdaAdKaNGAac7fFIzfCUrQ8/wox2kk1//PbP/6DGuPeHfX/pn/LvApwl9hL9F625odG/0991du+j/F9YEsJGJfvsF/sK9r/i/IvQv8Av9+zj+Cv+F/OH3gJG/Zfzvs/HvmpvpG96WCXVFlx7yOPOrEuvTPZ5bP7weK/haFArrkRiPlS5fsjjS2S302d/Zae+70uwzn9aCFkXjWYm8Dfhs+SVyqHb0xImxjTpp3Omn4+0Jg4MvD7fCjwHPlmWlCT45jz06poOImP9cVbuDwsgAPqEZ/4W0V/8ny6DiSHnPEVFOnIsv6rS//jOzv/ozfTFaJ+b2Bt/LAd9vVBTauGGI8dc7fM+WyoCv3+rHr3reHf0z/p4/w9eD19sH+KvXBrCxOoEYI9PriSjH5dRTGvQHo4xg7v9Fz3sJmwL9tPC5Ff9L3mL23/90p/3Vn3fqY5Zeg2A0+v8VwV9gXlP6F/iF/s7YGpDi9ld9/Bf+K/x3gPCf9mzAzekgMekaBDszICg+F/J6m0Zr4br0f3rsVFysz1CSn08gX4HiONV1kKZsDhlOrTIVFMe5JcccpRNOZbBM0xTN9MM6bdv2it2vhaOnn5r2xDTBv19nj5x+ikqr+HvfVbNxOmuELcgDNZ1zzukVO2qmvCSqd9XKmi3RbqBm+K6saa4avnpNVemmaaE4YRUc1EibN08ZcDPx6MKD5wb+fKvoAn2LB0X7m7/e6WfHYMRwcusRM8wueZPS2OmiPbvPLhBFVBfbjt2QcBgB36cV9Kza4wfLyWmovLuA7/kT/euFqcfLAq93+oP/G8/XpwD0zaE8rQH4wexmUtqI4RUduZ8WHlORIpctr9mTT2oSSIVp1uNPyribpRTdf/D9Nbv+F/oGkIwQTiS++A2c1hv076n/KfOUTra9EENObs3f/JDop691cxYNHptZM0S/N4vWIi7TWc8uwFDRTRP9+8N/wKe6mBIK/tOjx7nl2hf6U34v+b/AL/Qv/FfGX5E/Sf9Ix+xr+auv74jBJGlzxTyjrRyUHjBSQlkixf1/chToQQqgxpYLiuiP6ZyxOoJ97DieaHTNDxD76/9ZtdN1nP348XyQ0OzJp0jX9emardEbPYI+w392vhZr3lex887qtAH6rtAlbyaN/IKvK3c7t5t994dtOoxOT03wlRT1JM3B9mEMlly8Q1U8/JjKUImHqLkZ/yd1VP6Pf1axd76905Xsr/9qqtO3Gwd86Vf7+S+1zkUfIuwJvnsbHH+AiEaAjOan9gX0jFkzfG9aaj/t3BP6U+vFF+lL1uoDpxdGiQOPx1EyGi57G3GkE2r6rk/FnlJ/ZPrfroPhzjxNX8KepJOLte7oynfm7IEAnitOs41Ok8Hhhg/tjPC46Hf1z6r2K29nWqlmHxD9wsrimv5U/IYb9dFJrTXyKOc3pVGtLnvLfxR1PBL93IiER1XpntJ/b/i/wC/0L/wX4xdOKONP8q3In30qf3VqRgiZ8KZI/8JoRCo0rigWVyWxayaSE0PGA6ksVB0vT8rMw6U0h1SMk2HRZ1t15WN/5KnXro5ctar+JKNIicoA/O//qGJLl1bsEilftseSKxS3vs68UB/9u6pqK1cpXpUnfVmvm2me3O5HHqna5RfHVloyLniuYhs3JECCz8f9qJmYZvg33xZnoJx5Bl9f1nd45LHI+D+/3Oymmyv2sBR3z/BVWQowa7RPiNFWxQfGuusFfm69t8nzR5kM33ctpfp7gu92VUp3GKrIIWf4GdEEf2dHV/z5ivJX9DkBDJUTZZiwyJY2r5VhOU/rgtjZw+cLCLGgGqwafQv9g35mZ52B4SP6YRYn+Eu0GJqvWD+svumN/uBOaFwb9N8d/s39vzf07w//Q6cCP3MwXb7n/F/oHxKi8H8Z/0X+uRpw/ZP1X2X2bH2RzlVpTsRoQOgklwDRaF0Jn0YO7jWwFCfvvu5I1peST+q0X9c0Aqm331m17/9YYFQWHdm9NHHENsHxWrvCP0TfpWFaaIdOXV2xUh8T3AE0ynWHX5+mUCp5vOZ+wudwuCmc3ipc12hB7saNry78QCXg+71T+9XBf+DAirE4ett2ff16ZfcebO3/nug/cGDNJstooTT027Ax9x5XYnfd/68l/tFStaCP/N8T/v3l/4J/oX/hv9dG/pXxn2T+fiT/KrOP08d1vF1NyoPbrJf9lTasfs+WeAdDhTz1FN23a23Hb31YizW1ZoWUe++v2o9ltGzeqszyZriC0q2/5COHyEVWbvwnKS9PyFF6wOjI2XSD7dQTfB/Y1EP5VIKpgPAwFPiF/sEbhf8YHzFMyvhLhCjyR4Qo8tdHBfojK5w90H9F/ySivYL6tzJnznFaM+oQopOwBFgR6UZCvAOr+yIozufk/Cn3akpKce16o/74Rzp9gSVR27aardAhbByZv2NH7N55+tkoA3p+Mu4+hJ8mgAKAfjEOO4WTO6p17+txiFQo8Av9C/+Fp7JpQPRr/Jfxl97/nKBF/hT5W/TPvtS/bePGjf9CGlsxutxDgSoPYwWzxPW71jI0FrCEwqccvo+6WYOts7Nm83Q0/rRpZmNG63s7WiUzUtM6TAtM1TbX5Vq3sngxtQKh8Ru3ATcA7h183PIsYk2V+zXgOARHhh0xDchNqY4oZfce/wK/0L/wH2Moj7fGbQy62JFWxl+mSyaUKFLkD0So0wHK+B/iuI/6p8jfA1v+Vo6bPVsbk8Pb4NwhryAH7YXbHL8EBkkyJJSP4E8pKnwXPDSZLuIyFm9O1zZmVa+FsxUbrq3OwLnzXrbOqkaKKHB5peDnrbruVREk5AHOHOyVAt/JX+hf+K+MvySH9rX8K/JHct5lbWiJIn+L/umv/vU1LLwRdupfsBVWbWh2N1zQa4JCXCfeC6aMmowNd1a49icPuUjkD8uA27gnjXgvmpIV4VkL/EL/wn9l/IX8KPKnyF8pCHQOL86uI4Iziv4p+pcNQQqNBak8unEhS4TzRnw9C4aGEnwqhZtscGDAOEdRijy4Z3Srd7aIj4z8MrdNUQIuHR+UPHhcgR80D3IU+ospCv+V8VfkT5G/rKcs+qfoX6kE7A8/dg1zwQMrosUfnCTrN8zVuAslHpEf+VhpKMg/zgIh+IQP5cmUGAz1G/+SIq57WyK/l1fuAr/QH67xNVKF/8r4K/JHg0EDocjfon+K/nXVwHDAtPDdwcnmEHMo1nVnVqAaNopLT7rqXgTkyr9IYFTBV6qOjFnYkM5/N1KoxxOVoRGP8VMv4pXkOhNEVVngF/onbnC+K/xXxl+RP0X+Fv2TdeVBpn/naFVscnxgMtQDSgKLpq4s3M7QU926UYSrkIjCHiEmSkBMiRVVzMmVce+J6SfiPEkxBX4iWxOJCv0L/5XxF9KEYYHYcdO9yJ8kJUSQIn9d58ASRf8cHPpXU0IYITEG8hoTnuI8BawQ2bJcyFMXFuTgTS9FRTZnnjrZVI4tZtTPWhiGVwQvFdpIEQW+6AFJoEW6cl/oD2eIIIX/yviDDRgbRf4gGlIo8rfOEiEmiv5xzghN69u7D0D9K3+SEEzWBLM6fi/pEMNBMkKma0NOpIxOiFTMuUbldHXnlNJI8ZyUhYj6ydlSSkSQRs5UbYEf5EA6F/o75xT+K+OvyJ8kH+uCsshfVxmhYyQzk3Ip+gf9AVUOXP2bJsCEo0KFJbjq/LxuBLRjrITyiO09ukeINqwY95YEmbwSVzJRLjtS4m0ZWnpNOdGhUiZuCvwgUKG/+92c+4JVCv/5CPHtdWX8FflT5G/RP01KNM1geIz2guNkyKn4IDBgeAE+EPRvGCyOlIwL/K4hDx3hBtoJfVwgbsHp0pmKkqTbuv1CumcPH0GoGs4ZkfHjD0r0/I3aE/gCv9C/8F8Zf9gjRf5IKDYkpAtURRT5W/RP8MLBqn9lOqTBoGu2J+pREeP2BLmw3CJNebFQKMAft9li0ZV/DDb+8Z/g2ZU3W3qumymbM+haf0xlonLyRK4CXxRy2hT6F/4TIzBg+OO2jD/EhAhR5E+Rv0X/HKj6F18Hozz981sZsWExONIke7SeMPAxWtIRhKRH+YgPk4MCqtaDcqTyWbCSJ8qprMMhQ4EfFHBSFPoX/sujpz5+fNSU8VfkT5G/Rf8cxPrXLQv0A1M26VDB8KQgMjVn7p4Rt1/0I9vCtylTQPc+hRSv/L5YxdP82QuQxf/ix2WwUsNkISXOZgm7pcAv9C/8x5jTyEApEcr4K/IHfnBxyk2Rv0X/iA8Oav3LINDcKG9wfoocgtLlpUyL5GbmAFsEaThb68mRzfOHJ4V0Ut3TojLU6gYK0fmtWfF5LYtXr+cCv9C/8F8Zf0X+IEwVkLdIziJ/IYQfgI1qKfona1hnj4NS/1ZlVTQ8Hc4eQQxseViE4F5IDaJKfAQoDA4fVJ6s+Dix1keaimCmYKC46SLrhFqyN4Vi/o0irpC8wK/TJqjthNFPoT8cQij8l2hQxl+IGIRIkT8+Nnx8FPmb2EFMIZFR9I+IcIDq3yp60Z0fdW2Zx0G89Xt08o7gm+TWz0vxkRJ5a8koca4JnlFCkipdLyovMyXlccYq8Av9YbLCfzGY6r9l/Pm6HehR5E9wRZG/Rf8c5Po3Ts5nOPi8OdTwByJchyA04j4MDWKztwRXi+sZlfVcSel4FeSjKn7lRSEDho0c3x4X7l8iM0hK1R+8AOULfOjiVA9Pg2hU6A9NFAr/MWLEHmX8+ShxYiR5wjiBNvwW+eNEKfK36J/Xu/7Fv5EGNoNbw57BnWLcHHGXiu7kjobhPfjcKuLAJ3V0ZV4nlUrzrtQV5ozK6L+/JPGG4P+oj5qiDr/lscAv9C/8l8YFo4FBpT8ZJGX8FflT5G/RP6EmQ2+iP4Mir77+HTp8uMupVxu+DJawuUDeTZfEExDGndLuhtRHDH0eiBxu4yg1Z4R4uk+PYYjwoLweFwnuwFEsgQN1I5BW4ONzKvQv/FfGH8aZDwb/KfJHL31F/spYL/pnf9G/x55wuv3GJz9nH/itz6SB+urq/3agupEhQRGmg7/iKlKDRfM2/oJHniRJ/K0vNxX5oj3h2pCrVAaXElTcBxl5XP7EZ/y8HiwYWSug6IkeGTCovsDHdCn0D/Y4MPhvUFunnTyx3UYONntwec1Wb2U8EPRb+B9hcUDLnzEj2u3tZ0+2cSMH2g33vWBzF69/Vfv/tYYfZ5wnPVLk/+tW/80++Sw75w0X28Qp01x6rVqxNImvXev/fS7/Zs+ZnV7swuxAZSJHMSCyQPX7uiFCQlPA0ED2epQe2ALEwTaKiWq4Ys4Q4h4PCxse6kHPGEKYPQW+aBOEixusQIh3gND/kEFVO2KkelsdvXh9zdZtgRkO3P7/4PFt9ubD270L12/rtN+7cYfVOvae/6HfzFExmpx+WzW6goRiEsUfYOPvygumWFu78BL/L12z2e58/MW62PAbJe3P+P/tx2bbW0+b4E19adN2u/iP7rEtW3a+avLvtYaPXN8T+X/BnDE2eYyse2fxJAh1v2VLh9339Dpb+eL211X/9xX/aeMG21mzx3TVfwhGCKH/d81b5/yfHQd1IpD8Co//M857k118+fusrQ1sKrZjxzZ74M5b7RfXfD+atwv4+1r+tYOsZEGdqZxEinQmk7IkzQkiwnjrnIC0kAjlknbtRKkqClurhldG/6qku/AMz4vXoTxkpYpcMabM/gr/siPaberIqu3sqNnXHtn5usP/0pkVO3xkm21TH/3bwxKS+wH9Z0nZ/t7pA7wt//LoDrtjCYaqc5KzhZqYPHTwzeuf/6YdIstM/A7/HzqoYhOHVWzFBj2kgbWn/D9zVNV+7ww5RjW+/uUR6LfzgB1/J8481P7rB4+p88XTz2+QwfJAEPNVkD+fe99RNmPKMNu5o9M+9ZW5ezX+Z00c5v2PfBw5dIDNOXyE3f+UjK697P86M/UR//7A3xf4I/CR+X2V/5+9cpYdKZoH0Vyt1Pu/ppMll6zeajfPXW1/870FITUOEP1z6VmT7LffMUM4EVwKdrn77FcfsyVrtiguE1NX5duV/v3D98yyWVOG246OTvv0l+fulfyffeqZdvE73isfRNU6Ojvs8UcetNt++VNbu2qVt29X8NH/+1r+VVnIpfNsnSmcGKKVr1NxcsBoiTDePAipPw22PO1DXpa3RK5Iroix+AenUoIflKVzbjxGAZXan+EfPaZqZ09qszMmQyECSOjvdYL/MWPV9ilVO1M4vB7p7yzzOue/Gxd12Ba9FEpm2AMrarZcxgp4BUPtPf+jAYIbD9zxd97xY7rIn1mTh9noEQNetfE3Z8Yhdt6xY+zs40bt9fi/+u6Vtnlrh3VKJt73zEt2n4yVfdH/fZW//YG/L/B3XPWzJ/KHV98cmvWPdKZNnzDEfuMt0+yLHz7mgOX/nvAPpokR31f9c7wM/nNmj7azjx29R/TP+n/g4CH25kuusKoIj/679/Yb7apvfc3WrlzZZ/2/r+WffNXJuEgcgjWcRKoLVe5hGvRGNmu8jCJciWcvCkzpZZUvGSrU5W8S8ZJJTYrgF0Mm/nWBp9Quz17fawzfXw1o7+sP/0RuGp7ouj/QP+iY+/9A5797lnbagyu32QCRfstO6N8V/y78TpqyQBsP6b6n8cdg89oO4PF34hGHCs0Y/yA7oL1qF54wxq66c7m/6Lwq+Pdz/H/958/bj9TeYQPb6tMZr6b86zf8fuK/N/KfEbBR02af+PKjrmhpwqgRA+2MY0baledPscEDK/aOsyfZ8y9ssX/+6UIfNKmZIac1iFxewyB6UcD+4XZ/1j8/uXuFPfTserWzPvrtHedMdDx9/GeBwFXI8qK/O/5PSEdJZd5T/M9901vtkNGjKGgrli22m669yuvqK3xk2b6Wf27K4mMJZLxt0bs0TQ11oujHr3p2AdJkAefz/P1sEPJ7xpRfzKIZIg9uYTv30CW4KOCjSCzwDy76d9b739lPXHBg479T7L5lB8MA6Vn4v6/j/7ipI1xCPPDsS+6hQB6detShzi8uVPhJAmZ/lj8bNu+0leu2qbGvTf+/1vDppj2V/zt21uxhKfBH5q+3hxest5seWW3//dvP2p9/+yk6nSrt9KOlTF8H/U9bd4f/0jVb7d6n1tk98sDd+7T+dH1p407nf35cU+6F/nV9rMK7g9+T/j/y2BNcn3fqpehnP/yGdezs2Cv9vy/lX7toIGw61e8SpAkxn+LJSGK6+j0Wnf7psVM/zF0ROK6fbWduyCjf5Ue02cShZmu3Vu3Hz+6w2WOrdtKEqh2j64ZtNXteCy1/+qzZy9uxJJM92QR/yoiKvW1Gm8O8bn6HDWir2amT2+w4Tc+0azHvso0ddteyTnvsBQZ/d/huZKk9gwdUtdixalO1hmC8pkTllbWVcsc/tlpvvCvUUIVW+G9T2ycNDxzBearaQq52NecjJ+GM0jPWrV9qvmj0xoVYuw38M/xDBrcJ74odObpiM7QOZuOOms1fx1+nPbISvLvDb6a/prvtItFhuhaoTlSbdnRU7IWNZk+t67Cbnhcy/qXArvhfpvZPVpvpm5poNfXQgMOaxY+ewroHJ6vaG/TVhgW7YaHW5jTRX0V9im/k4IqdOL5qR44xm6F1ExskbxesM3v2xQ57BNqTUaG1/zP+x41rt/OmVmzKCB2mLPjLN9Xs5ws6vG1OR8ffm9QjfAaag9gD/nvrrDb1d+D/g6dr9mLekUNTkXEiMBQ5aUKbnTqJiIr9dP5OW7WhO/9D/zdNV32i4XgdObBlR0X5zOat6bAHV2l5eC/4Txf8i8V30D9hp6uC8Fki3r/hOQ16Olqhlf+a+3/OuKqde1jVpqg+XOHLBPuGBYKrfm+MP8ahMFJb8vjL9Hf48GoA6oJ/X+Cz8PGDF021GZOG2sQxg2yLxu5yrR+4/5kX7Vu3LO0V/z/+1aNsivKvXr/T/uGq+fbW0yfYOceNtqOnDbcXN+yw55Zvsv+lt+LnV2/ZJf5nq8zIYeoE5Xpo/os25tCBNkMD+fgZhzbh3zv/TRwz1D76tmk2c9Iwm6T2sA4No2Hec+vtf1+7WNN06gfnBlEo8f/vv+9Imz5+SHSbumjaON0rV7uGzpc/LeFNBzWN//nLNts//Oi5LvQ/X4tGf/XCyT32/8Llm+3vfjC/1/7/7HuOsBkITzXpK1c/Z08t0YDvgf/f88bJdsGc0Wpbxb5+/RJ7QH2S+78/8PuL/39R+2eKXxgb371thd02dw2oBD2bxt/HLpthc2Ye4u3/1+sX28Nqf9Y/ZHe7jiuFW/C/+o6V9rG3z7Cp4s+jDxuu5J75f9ZhI+yiU8bZ7Okj7AhNJW6QxwZ6znvuZfvRHcttpy9bQBo0+p/uZVij/5hKueK8yTZx9EAbyTSkBMj6DTu1jmSz8/+j81+ihYLfVf994QPH2LhDB9iytdvti99+uhv+p8vg/tDF0+g6+8WDa+zqu5YLaHf544ZGJh7tCmhOjsb47wr/c+LfaZoyy/Kfe0K7KvvK757glagqxxH48O+XfjS/R/hjx0+w8ROmeOb1L62xZUsWqQiyddf6v7/yD/thwtCKZLfJTthpx4+XHpqojRqj2my9lvCgy2RF0XFg4nQkQrfx4CJePenLH5WZ/PGioDuYJR2q4vFKOlHGyZFScC9q90K1rc0un9VONmcCk+I9ZqzZmVpX8ff3SXi9hMgAXAP+GCnK86dJQgj+Sim5dx3ZLoOBXGGgzNAi0nOmtNnPF1bt249J6LTAB4/jpZA+cqK2kqq/nKET/OOkfN8kI+DRlZ321Yd32CYZEc3wURIYWIFlCHvS25Trgqm60ZVn11W6GSZz7xeLYtU68QTgTxxetT88u91GS/Y04At3lzFtdrsMjn/VIl4gUK4Zf55PUPs/emKbHSJahNojttMOl/I8c0q7veXwNvvS/TvcgGnGf44MjOPU/npb4C79R+GdL5oFMFVFIxWGDei0XyzsDp/2f07tHzWkCf7wTjt2DPhX7Tba/yiLeLv3P1W/8+h2e+dR6kP1TcYf4+90Md4NC2Vs5Qb2gv/e8t8AoXjeVHrL7HkJl+sXNuAjhEigfZfMbLNjRSdsvu8+0R1/+Af6H9pC/9ljK/bmGVUZnOIfLXjdtL07/qNFs/OcfwVL9M/4A3/BsE77uQyW3eEf9Iv+yv0/dUSnnTGpXf0lo89xARkMIxaDN6oEP+gHpq3wM/67g//u8yfZZ644wkYNR1ATor45Ev4XnzbOLpUR8kf/9oQtkwHTzH/kPO3okXaUFvphnAwR/S47Y2IUV5snjx7sCuR8Tet87muPawHtOq+5lf9pPwoj2lmx+59+WYbEUJsxYajN1N+UUYNt+TpJtF747wpNG3zmillSNOJBFz5qmOAfrrJnHTvKLj1rosN/RG/uYJbhn6opqDmHhyKFfjm0yfh84wkSXDmQpILDB2mLMmMsHv06ZewQu/DEcX6vzu8Cf+qYTfa3MlgCL7J0Hf8D26r2BodTsYUrN9tTS+crq3hMODTL3yvPmWzHafGu1kDW6wMPQn/g9xd/1ulcqPbTFnZ83jpvdRf+J4EdX//pzVM1xTPAdujV+y+//Uyd/pDc8XD+VSV66An/DfI8mGTRyGEDbczIAbbmpe1RTkXojVOOGmVf+vgcGbni36b+P3baCHvXuZPsAvHf7/2veW7EAi/3f4b/++890j500WEer2Ry6E81j5dsnjVCu77G29/9aIH9x8+XdOP/M8RfGLrL1261v/hO1/FPNeNHDbI3nBi8tEDGe0/wBVjQGL8Jtvc/xAl+cVUIjRTfPP5OOfJQmy3+9WJeVGX0H5q/YY5g1hNIFP8OfqlX+KPHa9zqTZMia1erH6lID15FXf50hU+d/ZV/ODcwTl7Sy+YgvSm8VbI6sO60KbIfkIc0xZUwV2+Yx6R4T48U3ertxjNxG4OVJAVHJFXN8ygJq7fNaJdSrdnNCzvttiUdtlFeFQCxW+JDxw8U8CjML0YAV+Dzj3DlMRI4qvj2pTvtJ8902kNSFHI00J+OyAnyYKSsdfijVPfHT5ayFXyUxVoZPQ/o/It5azrlpVClAoRR9f7jBjgs4GT4a7XFdsXGTlvufzXbqnHhafpdvlFeAuGyVPXhLeB++Sb1XDS1Dh/r8I/OGWBjpLiAP09v41c/1WHXSVGt2azMgn++lOpHTuwOn6rY0fexU0JZ0jaMtjuF//wXRRVlgP54UT4hj0lV3qdm+Ou2dNpK2pX+tskrQDrtoM0riJc3wdP1xr5SeBKAm+kvvaD2y9hS+wmPypvyo6d32HV6u1+t9gP//GlqvzxOLqwprBC5a75lGWOFPgLuQrX7xuc67e7l6juBe+tMZzkBdFHkZZvh94f/7lsuZe41aupAxhHw0RlcSSBNU+HGYmrgPyVvyQb39DXwHzlI9D+5TeemRE3gfN+KDpu3umZ6KXf8sfjfP7tn/LeLZzL9V4jG7AjqhGgJviBFC3vBf9ZIs185SkZXgHejHi/Y3ctqeis0u1hepIxkT/RP1HUYPeG/O/hHThlqfyiBjbECT6xZv11u6nU2V2+m29UASHmyBOPnf/XIHvs/w0chXXzKBFshwX3DA6u1s2ONbdJbLvDxnPzBlUfJe5pIQaxgQZnc/yfoDZw4pjPuemKtzV0oYhL08nJhEvg94X/c1OH2h3rTHImxpcauklfldm0JfZYBDAD9TNEg+28fPFYCOxpAdMZ1xdotejve4gpni7ahRwmNG+HB3zIZShhLfr92c6ozd0lNC2x31vMuX7PNlsvV34Hc6UP/X3f/Klrif3iY4o4Y7oIhpsoDc4y8VYQnlrxsC1eoDQqR2j/49HV/8P/erUt9RxXtOeuYUTZm+KBu4+/S08e7sULfPCwvxTLtfMn055rxb75rxn/YsHYZZRKSChu37nBjhfuM/0laKP0PnzzexhyigS4YczWl9N1blttP71kpXmZaruYGw99/XB4zh5wgCjjwTxLfffAtYazAE+s2bHf+u33eWluhfof/2d77e++aJa+hXPfR6Dr8aActUpuUuVX+1AuQ1gP8zP9eQaq7Gf9d6V/wY7xlXt0qr6iDECx4NtKCt4M3g3cA0zr+DjlE020qTNqaVSv0G5jtCj75+yv/wJ9/yN836sUcWXrjop16Se50+4FXEG9MFpBxFgrFuItGsiLde4qcYObxEUc5YtjaTDZCKmVPyEj48oPbbZvkFHHff6pif3zuAJOXVlMdprfcdnt8DUJMZaOQQ8VHkOH/xZ3b7bn1EhxwisIF06qu7IH6NgnveVKozfDffmSblBJ5ZeHLSPqPeTvcUCGGLaV/eDbGhN7EVc/1C9ts6cshTYAfXg+cfwH/s2cMdONmu94cPn9z3v8PNGoTWdUmpjua4Z+mHUWjXdlV7FtP6C3/ubSdWCWufsbkuRhoM4X7OVOrSq/aZm2ZbMb/bfIojdB0Fvjfrk76+ryd1uHcVHEjDGNi4jCdxaGpohPkEXpUBlGG/y+PgEtW2hpUZwywkyZWZHg12t9ovUN1PJrhM/02enDA/+4TMrQ0jeMdK1xp/x+JfkxxMV3xzcc01abuy/Dp/0vkUYtp5Yr9TGW/+6TOHVE8FDtM0xt/fuHAoJ4yx7RJg/7K0q3/iesr/70go2yhvHbQ5qjRGH0dxtknTJlEj0nZTmxLfVaz+1dSe1Ak899lov8hAwP/O5aI/nN32s5Ef/gHz9PoIVUZnVXRRoIg7frJ/P+4eP6PnVf8ndjb/jdvHmjjZAACiZZ4W3ywoN679v8lswZIJwf/XS8j8TvioUx/6PcXF+L1SNgkulJvhh/YKEJ5XN3Ky9WM/+7gf+yyw234EGB02q1z19rn5UnZwAIc9f8pR47Um+tsKQPeErV7RrsP7n1yXZf+B36Eij26cL19+h8ftZc3xVw8u3z+9b+cbGOlTGYdNkyLKMfIy7JG2buO/yGyZI6R4UGfPL10o9PwjsfWysg5Qjk1RSyD6ds3L/E2kacZ/49cergNc0OkYjc9usY+/6+P+wJOKMYUwlc+faJNGj3IZqotl2nh5nepJ8H/bW1dpq48/v/v506zk+V12aG5+4v/6C6lEDKFex7/P9GuoJ/qL9Mf3r35b86zccKZkruiPx4fPCszJg63ow4b6u19JuGf5d9lUvhVH2A1N8QSJ9T7vz/w+4v/8rXbfA3G+drdNWRQu737/Mn2L9ct6sJ/F50aZ9Igzq/XlEimZx5/0AjaBaX8oT7+8bT/f+8/yg5NU4VPa4qnFf+3njEheQY1XfaL5+1vvv9sXf6M19vIv4j/ZsroO1/8O0nThssxOlP/A+2848eKvjEub5OR8iltB87jj/S//Mixdrm2IA+Q5rzolPH2jNpAm/P4Iw+BUe5Sp4fxRzr4N6aNu/J/5r9ME5d/FFLYlf797a/Mizzp9z8+d6rG7CG2VW9amX8b3BttbKV/1v8DByOnoa7ZSy+u9is/u4KPSOuv/Mvw0X+P6yXxKw/sqMvfH8h+kGSORtH8zCT+5sKzR+lHeYKRyBL3uNFCWUcKc+uBvGdRtk4pZBkLknX+hqsaWMNyzbMoqKh6ygiKAITgwBJI6qrYncs67DnOiWqCf9vi8BAA/zB5GiQ2KOxz+8CfwaFkqmqT3ufXA4UAAEAASURBVAa/+fgOLRRSmsOo2SoptJ80wZ+pKZZdwffG8NMEP9/3hv9Ro4Oka7Vohjdj3PcZPoYbayYIzHIdo/UtrfBpE/TfLO/INx6XsYJLKcFnmg1vhVNH+B+hqbdW/KkbdKG/M3oTfEUnYwLq8qeanDaUIqZmR3v7OdDNNO2mvorKHCbGyY+fYe5f7VfnHytPRSt8lDpFNkrI45lpxn/Zy1rDQZ0KDj8ZAh6R4HsrXJnrLh68DdHLyqnKM/498d8DK9U+ilY1hTJZQ64F/9NlUBJg1wfkkfHMHuPA3Nhppv/OJvrj7br66Qb9Z8lwa8WfqoJkQX+H34Sb6xrlAVpP9A/61TRdafbDp0XwqMxxXir6YcTsCv8e4VOHSvG7O/izJuvtXfTHu/Cn33zaNmwKGgHzIS1+/c7N2qEDEE2TnKi32Z7wD+Q6fQ3LRhYOJvisX/nZvW4lKk7eOM7b8DSvUD/RxnOPHy2jI7yr8/CsKM98lcW7wf1xuL17kT9HyhAB/ubtO+xPv/GkbZaHJsNH+V93XwM+3pie4LfKP5/6pIkEwd9j+jtB+kb/uzgYT/Svir6XninlDn0STMCfq3lt4HcqDlr2RP8osnf855zSMv72BP8fa7dL7v+LTh3XZfwdMrTdzpTnhbBeh+hdQ14a68Eh605XwR82pN3+5ANH25/82jH+998/Otuu/sKZPsXo/CfV9Y1fakrGqaEiSf8cp2lLqli7Yat9+eoFXeCvfmmbfesmDFTJL/2dxzqgFvi0EfhUwmLfVvp/4T+etotkvF7y+bvt365f3A0+dQM/y99W+VMff7xEvQLyD/DN/c9bS+Z/KFyH780Uni34k6cL/wsZzr8JmkflTp1exp9ydIG/p/KvGf639bLWLH/Xy37QOlY1xhudGg9GdL46jfhs3VERcdnqqpehd0jyCwJcQT9btYUTdzjRmmr3cvQPQjeHUXpTrVRjLYQXoh1UJCIDi0WKXAlefYLPW+1krbPQi54NUHtxUmT446UwgQ9seQy7wV+gha85TFAd3eB3wZ+c3eF7bKZZtKwOH4OJIsslZztpFzU04b8YAyyFGZqre/gFKdhcl64TR2goif7LtbgYA6GV/ncs7ZDFSQUVTRc5oby2jD/qLEgW7cjwaaCPD/n0cp2Urrb0PweTQX+mxZjCyXmph4rpP69TbSXvQ/LweJJnqJpeWhL9re7ZasZ/EfjP8CICo7a0wPcR1Q/+u1cLsq88BurII6Cpmxvl5cnwefE+Rp4XGviUPCHrNR3Uij88Af4rRH8cC634L5K3L+PPYmggEXqkv6cImmdD0em9YTf0Hwv/OvxOn4Jqhb+kif5NnLlr+E38V9sN/Em4HwWfaZFVL25L9SYs1f/z5DVxjAV8KgtUW/CHx4SmGzzs8iBvpj9pC5bJEiYoga2qPfX/mVqDQCWMC043Tdntyedf9umcqVonghfiuRWa5mmBP0HrZIC/fPW2+tqGZvj/98Zlts29mmaLtC22J/gN+Uf1IJSg6H538q/L+POSag5EYPzpsrv+v/b+F+zX3niYt4tpob+vLPBaqILFw6yx4f7xxRts0arwDpChb/y3e/hdxx8V7xn+16n9n3n3Vp+2YZfX8TJqH1VbodvlZ0+0IQNlEIgSdz62zjZt6+g2/hw58d9Arbt434VT/BH8PNAW/d+qcv+u9SO/eIg3f6jRwB8vHnmWaTpu2/Y0Vpv4f95z8AwFTOs9tAutRf4s1ZQK/A/eb9NarccXbbC7n1gXUBTHtChTKwEX2nSFT4x3NJ3uD7o0wffpYfIoeffyj3xRiUPR/Z7wn49FmiP4zn+qanfjv97/ajzlg2u9ud6WPYEvqB4a/L97+eeMLPpvYZG8poOCrxvw20NZppohDrU7kaJpTiiiQVrCzoHnnlAUQpicyhLlhCVlAEiI6uKe5/UwkTJADI7ZbYUfoMlf0bkVqaF6bIb/wIqdvqiX+uJ9vwGfVcTA14uVh1b4G8VwGf7AOrNGXse7B/wTOfqEv2YTHD7rTD51KutUoFEjoCAz/MFag9KKP2SmHexKoSx/VJDx5yT7mxeDnKcoqSv9edPg7TP6SeWUzd8+ciNk8nq6nqmhFf5ADDblwSD87dT+Bnz1GfqeCIVBum+F72NDab5cQddW+m/WhH6lEgfZ0Wut8FMBlewZ/8ArI9Md/mp5QRZrWuhwnaiLt4iFy1jmBBZ0DdC3fcD//hW6Kq4VPivqwR8PF+n8NfCvmNaSRoR+NXPXDf8u9BfYOv7RcK97V/THHQz83vp/k1urvePfK3yaTdhN/wf+8vDIQ9gT/mudAAF/gBaJtvZ/Gol6WYg8dfwDuozw/BYBbXvufxY2ksqal3tQFtBRtH7k2ZftLSePV//V7AJ5YTBYWuGzRI+wiQVHCq3wX9BWg3/66UL1uyfrx3s4HhwQ9Ccx+p+E9Nin8d8r/TO83dD/UaaFVm3UbpvhdqymsNjhsmDZJsf/bZpOaUfACcfb5zGdwt0uxr9g1vHvI/zW8QeMPcX/xodesA9dMt37953nTbK5i16mGnvzyVqMLPzVgca5I45JHhdkECD3BujKuGQqgzztkkntCFbpn/lai/Rf/vdjtkA7rgit+A/Cda3AOpevffZkL+8R6cdne4KE2kmKHIr8niy4tz6yxj526TRNOw30KbmvfeYkWykDZYn+ntd03R2Pr5Wh9EK9ylb4dcZK1dbpn0s4/npQf/TG/5ng9ZbRdzz0Qf924T9gqlx4cnhQ2A3/tfY/YPe0/+v6pwv/JWx2Cz8A+ss6t/qDVln/+bZmlAw0gZF4u8gfPSS7vzHQYqc8mcirwUwBZdemVT3zEEyWG4sbCWAUgynoHMo0xIASSddfM3yfb1c7QqA01gE0w79LCxDv1kJUAMS64X0Hvzv+4KD6AQFCCn3BX4vB7UxNPzTjH6W7/rbiD+LQMAPsL/1pc/SEmu84JCRSM3qDP1ovz2fIAxYDsgn53DKiFPZ1/3enP/QQsD3gv/s1LTT90Dbfzseaohu16Bv+O10n/sJ/2NIPyGAhgEYz/+2e/s7JQUsv2zv/562amf4A2x3/vyLwm8afj3EQT6EVf8afBEBK3fPx7/XDc3IvOhdz3wS/jj+AFVrhj5Ab7GhtSSWs13TU+7WjBIpDOV9Im55O0dqSr9/Qnf92B393+LfyH5D3Zvwj/1r7vy/yD/h3P/miGyyspXib1mQwtQH/n6fdLdCBLbnX3LNK993xb5a/ewu/Wf7vDf7fu325vV9eooEc9KcF0rVvPKMdYoPsZJ28Sv8vlmeIHWKE1v4P/qvYSzKMz//sHUqv2Wlas/T1PzjVu27k8IHy/mnxbLBEN/mT+3+0Fl2fzfRT5r8WGe7le4BP276o817+4D1H2thDBzl8tvVP1ELt048aaVfo21aPL35Z28mft+seWNUNvstu5/8Y9YitPeH/nvgv5J8aq7oI1ByyfDf9D43ITyMUokyqxGOCjF3kH3qbl1YPMf7d65LoTXSf4aPHVVVQwgvScq85/7T2f8i/3KLu8se/JUQns8gF69ZxQ2jpBneZB5k3ngNlKmQysTzVGYE7TIfUmKR0c13EekO9oKp2l1tUnYnYDN+ZFvhKDN396sKHaI6/w6f1gVnnHuCPt9Y9IdTl2FNPmHa6EGVPrYXm3Helf+BPNIkKe0B/h7AP6L9SntNbnmfrNfDpPfVQwj8io/0hzAOhfdX/dfrvBf+B/71a+8QOM/jvVC06/uXCmrxBFZutRcqEJ7RQm91BhD2lPwXoSX6ooRX/nulPGcH2girTJ/7vuf+BmuF7G0Ag8ViMknjOissFgDdXpRI/7Q5+0L8X+FST8OfSij9xDjMJq+7w1b6wFT1rK/0vkIIbgBdB2aaMG2R/qLM9AmLGM/Bn+6ZiAqcm/L1S+LRX+Kp6N/QP/JP88Qr7Pv5763/HwQm3e/g/046WX3uDDDV5YM/V9u4vX73QRg9vtxOEM4R5UlMsi1/Y3CP++wJ+f/FfvHKTPaj1Tmer7RP0leq3nznepo4bagNwSSrc/HB4h7hv7f+sM0Auy78H5Vl7WPWxbXeszuP50Fum2ld/tqhH/KmT9q/SRxKvf1BGXeKNkGDOMZDQu+P+p7Wt1++7yl/WBt2mBeeXnTVBC8NH2dSxQ+0weWxGDJFLWX3I2S5/8eFjbbkOC3lU5/pkGH2TfwK4C/5v4N+d/9ALu9O/Xfrfyc1YYMyo4Y6smtsH/t+yUVuuU/5RY+TVFMmy/A+aBRm9zkTj3uUP8PeN/NP+U3qYtyEQCpy8cxnwsra8WYqHkN4gbmggxMAa0z9+yefCi1sltnmvODc4f0BIVekHv+De0UeMyOgwu8D3KNXp8PVAGwCpv77Aj1oFv4JLuAf4gp3he15vb2/4J/jUtIfwl2v3ETuEKBhtEhrA0oPXJfydbq3wlQWaVpluccZWAeXpK/zILEo5fYGMBwAKB/0dfqJ/T/BJB/4yzR9ycJ83mIbzX2leJvV//S2SRKU093+1F/rjsc30VyGvt0v/J/jR/7TcI/YI/9WbK9pO3Wkztaj5mDFtNnxgh7YyV+QCjuru4+A32utI0YhG/we4irYuCnIP9PcpE4qAh+hQpwn11Udy0D8/gwX0dzLpPuPfE3wouav+ZweRB+Az/lSt17Mb+I4tRcm/i/6P2uWC19xfT/gPYk4QhIDfE/5eAYOMVkZGfuvwVRBero8Kz9+g/5k6x8UrF57bmdaB15r4jx0ymomyCXJhci7ME1LeXfBP8KOfeoCvqF3iDzhvo1pI/wOf1qvevsgfb7sAMP6a+x/8qYOwO/gsNH5ObzyztJvlWC0MnjFxiCv/wczBqm3smNJFTAXmUJKHBjwA9Af+vsCfnVJnz5aHQ225RF+r9m9AqZkdmtL84V1MB0ERRdD0pvHnjx6f6K9cPH771mU6XyV44wrtPvrXny/Who7gmy74ewVVW6L1SewQguj0IMGHjh68L+mfnuA7OE396uvQ37lpmf6WekGm4t6l828+dNE0neczxAbK+Hqn1uTM1RReM/yAhf6hITwFfIemqHYJFuDXW+XtbfA/47kb/ZXH26w63VsCT2oM7K7/Hb7oX9PCib7K/wx/9Qsr6uN/zPgJAZ9W05A+wm/m/z2VfwJVh+/3emb8+Tss5PKgOTJozEl6fgNRnPDx6ONXqHt2NTwIS15yKzPlk5AfobUDg9XJ8S+KMIjGDQVs5N+oncKU3pfwX+SsE9U6jsWLCXrc6UnwJzTBf1Hr//Y1/BUvB5XG6DyWnuBHXODv9GvBf52fdVIzzkNxpmyhPwfv/fvlg+zfLxtsH9ZZLsEUUV8z/eEruKyV/ruDv0LntND/WtfYI3w8YdGBUXMr/I3ayURrxvaC/9gm+veEPx2yL/jvAZ3ZgyBBcXEmyylav0L/d4gmD2o6CH7tCf6LWiQEfL0Q9oj/+KHgp6B6nH98rPRC/0R9H0YqElmBGvl7gr9R6212Rf8xTfC9fB/gN/P/7vp/7csalCowXgdy9cR/h0/UolYq1A/ndrT2fx7/OQ9t7Abfy/dM/+PxIih9qw50OPezt9spn7rVTvnkLXbKJ26xk3T90lVSQgn+eTpVthX+uvUsMtL40RQEGVvhX3bmRJv31Tfao199s/3PT54Au+1T+ZPx9/HXA/xoU+/9T4Po/7u0VgL6t8k6u0QHlZ2bzmXZqdPirpEHJo/tVvz3FXxa2FP/7278Z/g/URtXystBX2GE4pWgykcXcHaM1uT0Mv7IQ5lW+Nfdt0pn6VBO6+s0PeMeKGVsxZ/TmCk7bpTOYekH/Vvh75Sh9b3bltlXfqLpucR/HNLXCv9FjQnKjtY29kFaI9PKf4epTIj0qhaF68gH5e6L/hugN73QLLuWv5n+8J8bF7o25E8Ql+bviv7w38plz0tW6oVBjR0zlt1qtJNL3+Fn+jfgqwKnyO7hO0Av6MSuw/fZqiTzVJda5ekpk9pGh6QnXXUvBLjyLxKoVbd5MZFXRpmavVEHjPn0htL9Wx+K5bh2ilJ+heaoqbsZfnRmQKTKPYXvh7mpbhTOyVJSrfDfdLjam+A/v6E7/MAp4G+T7AM+LzbsCOkL/s++FN06VXL3cJ2b0Qr/8iOr9tW3DrJ/futAu3A6dXbFf4UWjULYcVL4p+nk2lb8L5nZLuudfqjZInZROTt2pz9I8jkC4NP+CToin3oT8h4P87XCf1YLVsnHEfcz2DYOLMUQwP8dOhTuf79toP2z/t6gg31a4a/aHPhP0GJ93/Ys+AT6nzn183R+S6Z/T/ADWIK4F/0fzKTD3nzLcuB/vOg4R6fXgsGTOiwOowC69AS/mf6n9ED/N+swROjAvyXyQrXin+F3pXPgDx26xnen/yo3uCs2QQb3sWmLeaZ/m14vzp/agB+06nn8NcNxqD6wqElt5n8v+C9jB4TSx2n+/n2ar2/t/3edO9nroDwKpC/49xX+eCmZWRzSJPjPaKHpFr3ltsK/6wm2mUX/cUZKK/yl2t1E+jhNHbz/DYc5ns3w33vBZOdDyPH00pedhGLxCNw4sYPi7EahnwfpbfpUnUFDv/dV/jkSqg46NcNvju+J/zJ8FLRejB0+38w5cRbrP2r2xPMb9dE/poNyW/dt/2f4tLm/+P/yQe3iEf5sUW6X8ib84mEtWE106Ql/Z9MgmWvI5v6/6o5lTn8qeI/6MdraFf8n1aekTxs/WAuzZdC20P+P33+kPfCVC+3+r1xgn7h8ulfR3P9/r0PnrvviOXbNn51lJ07XtGOL/MMQoX7qZS1RK/8t8XNdan5Oy4cvmd4FfruMz4u11VvFPX7eonTSbMa3hf/W6QRf72dBOUtnHu0p/23jpFS1E28Qp/8GwQAe8Huif+7/nVocv36NPq2gNh06aoxNm3nkHsNvwBE871g1wSN3D5+c2Eat9E9rzj25/pPphsPE17UohTj3ougXFQbxIAAdF/kjJjqQghW74piKiVf92zOUuFAGzNmHwbixC+ZJTWUiGqgpB69VP8TvDfxbFmuR1iRBE/yPnzLAfrFgpw6eq/m5Jxz5z/dxgCgj355ZCyZd4dOOjP8yGQ9n4L9V+F3tmLlvRc22+V5fRQjvJ9bUbKHqbsb/MY3Ht86UcpYp+DunD7Dv6+C0ZyVjR+oEXk5Y5RTYdikezlF4SuVb4XMi8Gn6zg3xvyWYUxdU/QC+iTJgTtWi0RP0bQWs522y+OdyaF6P9IeAOtQMharGQYvfPbXdd8ZQzoPqeELfVVqs9qcYj+YbTRyHjCX7aR08970nd9qz2go+Wu0/ivYfqcWs6sIODVa2BrfCf1hyds44FRbMTwrmVU/ttAUygoaI0y7XoWwYQlCcNilTN/xpRKb/3vR/8F/NVm+p6JTYTpulbeZnsPhZSIInu4McPgiKkNEaoEa4eXGHf2eI+I+J/jeI/tTD15Y5cv9Ena4M/fFEPaM1SNTb3P8XzRig3UNExtjAITtUhfHusGPpUk6qJSTAbFPm8MMcHtZ0FZ+IIPmTp7Xbj3RY0gJNbw0T/TjUjk8cAN8B+6Ur/2X86/C9cSog+OAfQWV6wR9X/hlSkHQPJ8Yem6ZdBiFstc3z5CNYR6Ftwzqo5xYdzNba/4GYCmvhLvCqPcJ38ii1K/05sryadnk8oZ0l4Nkqfzioa4W2W0/SlBBnbrTC57RYP+tDCPy+1r9wcu8Dz6yXAhuiczfG2Ila+EngWPibH12bu8Hj8k/mP753dLbprA6FL/7msdoh8qK2REsJKEBNPlDH4XrN/f+Zdx8Za3BS/wsFG6o3Bu9/LQTlFOHm8KzOhrnqTp1H0hSob97Cl23+qk12hAw4xwdiiiB3CJ56T/+ICB57JeDT7r3Bv5n/vnf7MhmNU6yKp138xxeYr9Z0ENTrjf/AigD81v7/7s0r7Dcuni7v3yB942qIXSmj5fu3Le9C/3uffElrZiZJ/lbtTz90rLY/P+/fWuKzEBx8yFZpTqrlMwL3PBUGQ4YJ3PU6AGmau5d1SNx/nm03aus0358aoq9tn3rUaB2YCD8IHxH9cXhUeDXT/9r7VuvTFRPFx1X76KXTdapzuy+i5rA7YPu2a9Xw7LKN9oi8TY4ngJtC1Ce9qSMEggj6Rp8+cTFh5GDfJUXWrIX5MOhNamPmiGb68zXrs49VZgH54m8eI6/dOnkuG7KGE6xvd35qAk52EYR2PXjf7XbR26/0vnr7uz9gX/uHL2oabtsu+a+/8o+WZPit/Y/9oV1Caho5FCKD38q4IUXKWhO5NYSbh+auhUQKROlG/ebliaDkeh0TzyKdX5GC/hWNUa/b64i6fqIPG8XCRz03wfcs+gn4UfGewH9stT4OuKji39sZLMVxueDTxmb4enGyf9O3YOI4hq7wU1Mc/s2LOu0t0ys6wrtqk6Vo3+nKNgwY2vktHey26CVVFs10GPME/5uPm/0nHd3OMfsfP4UjorvCp+xVOhSMg8i8cBP+nFx7i5TmhdOrNlhM/055ZH7laAQepVLQ/Tf1HaV1mr7w+Cb4IcggKZ9E2Ck6DNTJuXGc/zs544XG0iCFb3aq/Zwi3AR/noyYbwqv989u04nAVfuEPnMA/VvhX/10hx/E1wr/Jh2jzCmw+kadHSK4HzpBPwKX6X+PdnidNYUGexN00X0T/Axnb/mvGX8OhpulqQ3WIgAfW/MBGZ1OA8atN6MrfD6OefOiDnujPHHQ/x2if00LinK7aDWet397VOfhZNJRT8LximPaNBWaxAaRaH7SVG6sTrt9nz4JEU/xe+viTh37T2P0rKw3CfYF+nTDNOinrZy/cbziq/KqUIHCPTpn5ix9i4vRp+wR3wS/GX8a5W82qj7T35Gmol7wR6HwrZWLTh3vLu0rtS21JsWQ4VN0u4Te3/1ggU6w1cGAtKsJPukE+I+/XuEnfJr7/1RfoxDl79MH8RzDHuQPi04n6XtCo3WOy+lSQghtSA2OP5AC4wOAbKEdJEX53gsPs/deIE+L0vSflumv5os2Wf/izwk5z5PaBf99S2sYLjtjvA3TlzCn6Psw73sD86QKCecObTe7TUZPM/6/9qYpOuU1GaU0qrn/9Xb+Qa2B8ApSHb/UAtSrXIlH+zOdgX+3DKQjtI7Fx59KdYiBr0kH7wHU8Un1ZPz3Jfy9wb+Z/xbIGHtQR+Ozuwba3qUt6hs2Y/DpoRf+U6KHSFa+pv7fpsMor7l3lX34YtFQdP01edB+cOtyry7jj/F3uGj2kUum21gJvj9g0bZo1Nr/37l5mR+E6IWb+v/rNzzvhi3f/JkmN/2HL54q+k/rwv/U97ymnr6t9S2t/M8HH3+kNlypdTYs9Oe7Sf/pTapDqOi/go7r0AmiX/zWM/7UzP+t/PegDO2fa+HwJXpRaNdLzzlaE8Qf8FNlvlbmpodX1/m/mf7f0sF6l2mX2XAJJKav3iuDKQpCEM7J0idz5q5TFBUmGsWt6797b/+lnXbWBTZy3HgbO3GyXfyO9/hXmz2zGuD4kJ9u0pX291f+Rd3N+l8jocn+wCLx/2RkCsaJIcipOeIL3SUk6hnVOqI8mlanP1flSoNovMj/3X0odN0oPWfjq8X/pg/n+ZHvKuq1eEX7Dv7/0XH8//TQDmOnjjcywefl6OFVHfYnt26X1wBkCQLeC3zO7/jLu3baw3orX8/ajEyIhP8OdwGoihb8b9BiWz4OiGcBJdmMP2/rX9Zxw/nE3Z7g/7uU4dce1reHMEia6S/4TAP91V077FZ9gNCbnQmra6Y/dZLGdOpf3rnDD3ej/WSNFN0ooHB7gs9XgWkDb/as+choc8PR91/Whxd/rBODe4LPm8tf3b1N3z9ioVfiIgHm2PxrtYj3DrajpxBH9agWr2jf9X/GEo+YB8EHd3ZlbchvGER46A7/P+Z22D8/pK84J4My479dDX5EBiX884z4x2unnvQH/VEq8H+kNfDP2ZrpT1wc++8N8fHHYYP07z1LMfhVdep/6PcznZIMXd0Q8bKqIVesa2v/I9RJ5idnq8P3BBK74//Z//W4/e3352unRRyQVcdfCoPTbj/8tw/Z9Q+80CP+Lrl2gT8Hb3kQfL6g3Az/aE7ZVdR27eC68zG5JRUy/v4QEH0dBCXBio8tZuQy/r/7T3P1FdoFtiYOzfH0jO5z2sHC5wbYZRKhO/5IXv7xcbrf+cfH7EHtJnlpY6yNSYW8Je5syYTVNfe/I0FG0d+DLukuU6YegdJIaHWTv9cyLURLAlnfTstbc+5/j6bi9Lev4e8N/q39r53N3j6aeK2Mjb7wX9BfBRRa+/8bNy7xM4LA/SgdTOfflWrCH/hf+uF8+/JPnrP5+s4SRiX0IQthgc7u+aI+uPjF74TB4MRP9EX/8W2mT+uI+1tleDh/NstftR7+vUFGxG//41xbB08k2Fwz/33h/zxpf/29Z3XaLjyjkOAjG/na+Yf+x0NuZEeigDfB9/sm/fv5f3nCviZepd+3J+8e5aIIh6aq0akNGT6ppC8QLr/zj/Mc1nrn35yiRJVpHX+t+r9TZ2bd8ctrraYr4ZSzz7cP/OfP2OGzjopmEplgc8381x/5FxXjKqFiVd9C/8rs2bMTuUgUoiIWEQBHtKRiulOs0jxBTOGjiGdCSuLpT84bqO+4aEGelO1nf8EcnBbwaVp6vLaErdX6BuboKZ4q1k0j7Av4VEw9LuxVtTx5WgDK23VVH2KUkqGRryJ8Buw0X0dYdQWIwbYn8Pku0nhfwKppLL0QynGl8qoDKdYD/VvxD1QxVpgWodye4c95TVMPgRtqMjoqOnIfuNTDtXv/N8PnRXOS1v5sk9BYtVF8tRfwA0JqNPC8KX2Dn0oJ5b3Hn9NxWSjM96TWaKu3zxD2Ef/+wmfqjS+UbtPnAfgoZ1/GXzP9+wsfVmMtyCwdYsZUyGPavRIG1qtHf3CoM+1e9D+n8XJcP/z/hM7PWIERpub7OPC6Gz+vhPwJUHvPf/3F/7WEz6F3P/r/z/Add8vXbreLP3dnvStfLfofoqmYU/U9Hfp/vqZhmObqa/8PkgA7Wl8eZwqK2QK+Tj5fBu/O7Frdjfyj72ZoSu8ITV9t0csvW6A3aFqsr/D3Rv/u6/EPDiefeb699Z3v11SnZgskfzljae5Dd9mPv/31GDxiMkiRebVZ/+5r/pPzuhFYV8FLAYBDtwS4oLAiMcFSJ9VkANAwJ76QcOuMshRUnnBaR92rtV7kBb5JQhUUYIpB3glWIweSkW9fwPeGJ0jAYmckx+SzwAhgrzZ8ePu5lxL8vcCfnVT+lWvHKfeH6uuF/q34B2XjAJ69wR8vEl6hCFyjx/oCf4cMFdbIENzmfw3o78DVZveH7AV8jIVlWq/ioclI6wv+zmtRcK/gQ79FmsaGelGN2rGb8bev+n+mPu2+QB8CYyfQmvVyG3to8N/MtoH2HKfWEtU0/jP8WQMG2EI+JOahO/2PaB9gzyo9uClyNY//DD/4rTv+fYXP9lb+Ug2CpzvJn1cL/muN/2sJ/4rzJvt6Edpw86Oatmgaf68W/Zm2vPkR1v1kSuxB/2vu189ZSWWD2YNj+8p/7IiKXVF7Ad/HD/BS65v0b1/hZ6it8m939G/W/w/fe7tt2bzRLrviAzZsuIw/NWnC5MOjaprWw/hn3PZX/kX5rvi3jR8/7gtZKACia2g8e7toKTcYGiQ1ksN4UQRrL0Zrrp6jdfM5JORD1nOAZh0NVeB1RIWqDOOlqUJvSOO5r/AdUL1pKhWjpMAv9C/818fxd/HQwfbrI4a5h3XBjpjCax5/Fw8bFOkanjndX17SQM/lmTRcwBtDy/i/yOsf7i8sGEWeoWn85/KYibn+Ah87S4QUIV4v9L/gimk2VF/+Rln+uU67XbNhu8v40v+Mr/2X/131+k9D/65+YaU9ePcttmnDBhs6bLgvan7wnlvrWZvHP5FRUsy6j/WvDJbxXwgzIgERJF/5jEEhRmPRHMD91+HrLg2caKSkIEFxmBzsBBqt6Z+tmjq4/rmYgvHGBwZk1D/ED4FrvXa/46c/8ANMahOQFOFxkeDwCvxCf7iv8F/38XfxsMF26ZDB8n7stHP0iXl9w9Se030e/xcNG2JvHzbUntHb5zlDBmrnrdZ6YNSk8X+JjJHLhg6zZ/S15LMHDzY+dk35GIRStkNVXnkifaCUGeXT8QLqkQL/wKD/9iOH2wnnxoFjfEDwn9OaodL/+zf/M057078dWsO2dMkie/i+O+zJRx+0ndox5O4VRGka/6FmXzn96waLr1uRC4QrAN0g4Zq29OIdiYR68/y5i09EeVjMy3klrO9Zqq8lP6zDuzwEFn5LVbGgpmFM7Ev4oYRawBb4QRD9FvoX/utt/F00ZIhdLoPiZ1u22nc2asGi5MHb9Yx7eMHOnW5MePrmLfadTZsN3wvp7gnRQW9vlbFzmYyRn5Gu8vDaZaRr/GHU4Dnh+drN2mGxcYsbM5RnXeR8TS8V+AcO/TfOHGZTtLuqooP87tMXnG/V+o3S//s3/++J/t+xg/WpYS+4ctEYjs08jPoIdbVbv+m//mkbP2H8F+LEBK07yRX7VYDTs3sp9MghLkTWk+v5s89Ce9NXazuetq5yngQI0UQXkD4pprJEpXJ+0c++hE/lTkjVW+BD4UL/wn8MBsZz7+PvU4eMkMdkkF0jY+MGGSzwDUYKxsil8qrMamu3s5SOMfILGRxK1hqWSL9MHpeZWiF8tjwyP1Pazzdv83E+X54T9opdPlTpOpL8bBlE12zJ9YfnBWPmchkys7SmpcA/cOg/T4uvvnX7Clv64Bo7SbvzSv/v3/x/vcbsvtD/r7T+bRs/VlNC9ZZKOtUDbp1koEiooPp8iwTR/kBEhDBXiNRfyEXdh7kQnwvXE8KSHGSRFPSrYtwGKvCDkF1+C/2dmeAR8Qy8U/hPPPEKjb8PaM0KxsgNGCMegv+YrsGoOGcwxsrWMGa8MyIXnhMWtDP94+mbtnp/0Xdke05rWDpU1VlKv1b13yhjqHn8PyfPDOlne/0FfqF/4b/XYvzltWIBm98Y/0je/Un+VmbPmR27TcM2abTXBQ6r+2my+yz0GyqEgzzxurhESpHuhSGOtJRUz5Di4xKp9TyK9Je/eoQKewiYBX6hf+G/Mv543UFE8Ffkj+iAME1y1WWu7lEsfp+S6hlSfFxC0NbFrSKL/BWl6gQR8TwU/cOY29/0r8/GwMh1bo8HIlw40Oi4Vwfqllg/vZIyGjX0Mwmeyx/IQ/CNrH5NWGtgkC8st3CqKKfKeP482uJB5Qr8GEMQxKle6C9SFP4r46/IHxeSRf4W/XPQ6V9ZD9mwkF7EdMCkCjKEyZDmvmtagIvB4cHNUdQpVihBhfRITJiqfhPlyaH/VENa/JPa8cz8FPhOCkgGoQr9nSeCGqJM4T+xBeOljL8if0LahowN2RkxRf4W/XNw6F8ZLOHzCMNBgyCNCRSGH62OkSGlUU3n9rKEM1kmZFFg4KhQKheGCA8q53GR4A4Usivg0o1AWoGPz6nQP0zZzEdQpPCfPJJl/BX5U+Rv0T9F/7qOdF0ZRkY2HcJyxw5he3PM5KFOk+FBQgpRjlmliMMowflCKQ9+7y4Df1F2C0Z5wpBRIqvvFAp8J0My3aAdtCn0L/xXxl+RPzHdXuRv0T9oibpuRUugKuRAOJj0bz6SwQkB4j48sCjgDz6sROAeBcpPCsOHD7cROq0PCyUqgYDBVDG48r0X9SpMViJExqjxBRksZCGbX+INu6/waYZ7bQr8Qv/grsJ/ZfwhFlyKhWAJ2ePihoQif4r8Lfrnda1/qxgPDGh3v/tgxxAghmsyUcgjo6JuiGBkJCXBt4PY9kgJzy0jhPNaMDz8u0Jc3SBRBmWqF8UWUtkCP2hX6O+mavBR4T8NjjL+ivwp8tc1UdE/Rf+6jSEdMfu4Ob7oPtxKxGJVYFY4q+iie58/y3HkMRtxiL6FoOumjfqyoZdxGRs/9TqiFkqGJmrKk29VP+D2FD7fJYovMlOYNucKgcVzROgukuo3Tfm4LfAL/Qv/lfGXBVRddiAwQj70JP+K/Cnyt+gfdOurq381m4Op4O4ORmfS82mw0hZ3gSRLP1sFlFEWNwn8FCjd5/HNIJex4I9k4EbXsB+8hB7j6kZKgV/oX/gvDZQy/kJOJGEiMVHkj2ihl6qgSMhNl9mK8Kcif0O/JJbxS9E/B6z+rcyePRsfg1QG0zgpcJMYIEf5VXE1bfGpaovlsOHDPGrjpo0prwphxbCMN5fVFQEkAMw56YEEMuhBCTwSszfwwyPjhRO8Ar/QX9xU+O8VGX9Mz7TreP5Ke8Xa9O9gGn/skuzUer6dOtW3U95m5N/BhL+kbATkdZL/BX80lwK6zW+L/nk19I/vMK7JSkfOQ3ynPfYEz/6gH/eCRAaO2u90w4NE1qBEIWdgCnl20vQQSVFPAuDvCvUy8eZQ4Bf6F/6LIcPIcXueqz/4gIpbDajXYvwNGNhuAwcNsjYZLFX9O9jGP9M/VX0LadCgwTawXV+YLvIvMWeR/0X/vcr6PzwsSTYiJD0ky0P3ccevu0jiWTJ0ODuEZHhs3LyhS2FkLLkJvvhWebBP6stgIqnLb8BojmrExB2/XeFHQxSPyQXQFAr8Qn+4hVD4LxRKf8bfoIEDrVJtEzXL+GNkwVsdHZ22XV+rdcFW5E+Rv0X/IG49vNL6119sAcJsTgDzpzrweIoUItkRlC2SmF/2rCnKj5WLCLJJUvIy4laoyoUioS4F0pKl4TD0wzX5XCIL2fwvUogs8EWEIKQr5ETCOm29QyGUQqF/4b/+jL/2AQNkrOTpj2C6Mv7wtlRtgGhT5F8S2sgalzhF/hf564zgP6+E/hF9MQbEcOI4mC6213LXWNOStzl7PiwbD8GswagYEtyFuRF33OvPIUQZfnOt/4+9947O67ruRDd674UAQQIEe+8URVGierHkIhfZjiPHjjMZJ+NM8pL3VuLM++NlzYpn3lvrvbUmsTNlJbFn4sSWu+zIkqwuURJ77wRYAAIgAZDoHSDxfr+9z/2+iw8fgA/4QImk7iFxv3vvKfvscvbZ95x9zmFjN/G2uAB+QH/KTSB/NORJCa+lsG1aG8FLGKHePX7xnykZZrv9sT0mYxqE4cOA/2HjPxX8JBgtHqdIo9mm/1Twlfk3kf8B/A+3/QX0j05/fD55Ki+sJPXLgapQX+GCNJ6a9O7phMd93zznqwSu8XKpWOQo5oCo6DgVpCMsiGNxduihFa2lBvCp7xBIHaNRQH/KEuihJMElkD/Xsigi1hbjbX9Z2TkgL+g8QftLTk4J6D+F/KWmJIOCphkD/Rfof+pvBjapoP+7Of1/YoK63SqZjdL8tOJ0NZsi6e++7th2ee+NhHBXW9dUGePec/gYgRflGh9wy3EyZOTrGzqmzLcGJoBvVFSikWYB/QP5u4ntb/nqzfLVb/yFPPv7f2JeKRO0/0RuAEnRDNq/6qpo+o/TZSCQxbPpwiFZWzMvgf5TlUbiBPofRAj6v1np/5O97fQpWKqctNNUTaVNUZsjHlXoYGww2iRRmyYqwVEBZ7zoiAqNGpeO+diQQ8PYhEHLy5Qhi5o5fNaDNQng38n050jA2g1bJTu/QE4c2idNDReV6+Q9Q8D/2OR/NWh4zwOPyZyK+RjlTJDmpgZt3xO1vwQujUHwmvv49q/RH2n6qx4L9E+g/2+D/i8xKUEKK3IlNTNZ2hq6ZKBneNL2z5bPtn+rtf9kmh1UTWp+QJFx+9gE7+sK1dX9WfiVpZaHp6SQjhnww2WO7DS060Aaz1gZRTlUjMxGpUiTRj/WCMMXmHMm8K2sWw9+LjrWpSvX4lzHUbnWclnqLtbeVvgvWbZa8goKZGBgQI7DQIjkf0FRiVQvWaG8vNxUL5cv1d1U/j/+9G/J6vWbISUJsn7LPfI33/pLGRwccLIU5n9+YZEsXLqKIqlyGZI/PLJLP3/2hHReu4q4O0P+KuYtkPJ5lcAsQS6cOy3XWq+YnHltztf+tmx/WB7/5OclUUcERIaxwuXcmZOklLbcaO1PI1F2JP8tD6AG7X9K/ZeWnizZRZkqf4O9Q9LfMaDyV1Ceo+S9PnJDOlp6p9R/WXmpkl2YKZm5aXLj+qj0dg1Id2ufDA2MTKh/mTYjK1VXNLU394GTt5f+zSrIkNT0FHRHo9JxuQuCinbrmi7b83TkLxnL8nOLMiSvGLxAGf3dg9LZ0odOe2hC+bdv7DtH/qvXl8v85cWK//DqUtn1s9PQF9ZzR2v/txr+BWWYwoZuS/aMCO52S18TMhSYqICEpmvweUWBp/DQmGEe6n3qLPOUN+1lqZgX6Zzi1Huko2I1KUO0rZDURjtT+CyOULVMpS4HZFnLDxd+yZy58tRnn1WMD+x+W+ou1LCq+Ls98H/s6S9KUUmJdFxrkxOH95LCIHSY/xVV1fLxz31ZX7/3xss24jEB/R/55DNSMqdcro9clx9/77/OiP8lc8oAy+CnZ2RJ+fwqqas9Q4KO4f+ajdvkoSeeNv5rDOnNupts/vSf/od0tsFg4as7QP62bH9A1t61XVH8wd//FxgszVHlf82Gu2CsPCNJWJp8/cYIeLpP3nn112rgkBYTtz/EedNFPv577T+S/iT2rdD+Puj2P5n+y0Snu+ahBaSyNJ25JrX7GklyWX3/AtWj7Dj3/pKyrNoVvBirf1MzEoUdTdniIpQAzCjLVLwINHbqjjZLw2nINIxTwvDTf+nWeZI3J0toKO3++WnEsj0w3e0h/1Wr50hJVa5cH74hO587ofj7+x+io9gQpwn0D0cFl2yeK3OXFhv+TjswIz9oGs5clYuHYehDH0y3/4sJvtM//Pmw6Z8Lg5d1ZkhJS5H0nFTp7xqcpP2jxrdI+0/LTJN1Dy9U+aeMI8BY4Y39d/doIlTs2hjQWBDHERO9IcN5C0GxNoAHCoN62LI8FKvSxAubGiFYGYylINlbjdbY6cJnXSmotyp8RVovtyH+ZC6V6ET8J14gPDf8m4z+FZXVsnjZGh35mCn/j+x9X4YwosL8defOwFg5S1GjAE3Kf03jEqr8oa5Ei+FOkL/8omJrm2ifjZfqidW49peWng4j7nNQPElKvz3vvi6/+ME/ytWrV+749nfL6B8I2zj9p82LbxFUJqPr3xXbq6RsUQESme7k6MqN6/ooSckwZjaUSdWqElfIeP4zHwGMg3876V81Rgx/f/8zVftnx7bqvkqZu6QkhD8NHj5QD3BrofkrS2QRDJqZ9H9Twb9l5M/x/9KZVoysXtc+u+VSpwxglE7DJPI3of43sQIhP5j+t6AsS3mmIyyEDbBKf9vkBI0ClpUSHIId1vJkKwMalzNciKt9YbBRQETUuMFLZLbOgeVqKmbEa7wPfQeYraQd2Z0EX4kEqqog3Ib4o+qhnTyj8J9fIoocGMx/k/Hf5MokgOSYCf9373xNDu17T3da7ersQCkoNYr8HT2wRy5dqEU8gtJeZO2mbbJhy714wZrMDP6tKv/5BaVK/+6edunv7Y7a/rY/8DHJLyxE3KhcbqiTN379cyUOW6u1Q7Zm3huP/O2fNENTZQPHhb9B+5+u/qPCp6ia7IXlj8QcxfEGjAFZ8Tee/mXVBZI/l5tzivThS/jM+5ek8yqmdlBYSWWeLL17viTDaKlcWyrNFzukrxs+CZH617VRx8EZtb8Pi/+KOOWPCDNMU/5ySrOkeH6+0r63rV/qTrRIe2O3JCYnSTFGbipXzZH0zBQpX1okl8+3Sw9o65f/O63/u1rfqb4rdBS/fp1W7+3T/+aXWTtg+8PJICYMoVbFZ33AD1LY2RHWsPQKAbKOhx0H06pWwz2L4ws2QRfQYGwYE281H98jnv9p7UIqtKkyC7OqlDCNFjwpfIV2K8JXHIgQQghP3N4m+BtPJ6Y/jQXKAelvbJqY/ySF8pmkiAP/oYF+GcSfX/4i+d/Z0Sqd7ZzycbTH3ZLl8CVSOTP4VmFWCv9vY/lLxxbx2Xl5ik5nezswxW2U9reEvlTA8wZ6zhd+/i/4OqeiQviA8E9PywDfBg1kBP+Tk3EuEQRkGOfzKMsmaf/JCUmSgh13ByADVDrUP5H8j8Q/DUcJsGyeAUQ5jUf+EqnHgMVk8hcJn0hzOsOTvxGMjmhFUNLI0A0Myyfq2UTa0rwon/4rgJImS/nxcHpnnXS3w2/L1eJqXYekwD9myZYKkCNJ8kqzpb/nWqh8wjai4ko551ME/W8H+Sf+Zk4bNtOhP7/KFW/gf+KdOunrHcam6KA9ptI4PUen0zUPVoGmCZJfnGUGi4/+mpnw8fE+U/6D6CH+3wr05zTYDR2iA16UC+B7O/S/+XNgsCBcvdRhBouJtL7TC/nGhsQVyDqvinu+41cZr4YmcxlDLL01J8+AoWIhURI1khqD+byAErghi34BsMSx4faGT8qRcEYP3XQL99PFPy+vQLbe/5gUw4cjL79QRgaHpL3tmlyEg+X+XW+R8gqHNI5G/5Xrt8iajXdLcXEJho+TpQN5D+x+Rwb6+2TLPQ8qwQ9j5OLM8UNj6K+l4oIakz3j+Y84Nj7iw+CH/8gnnpGiYvqcsAB4pZfMYQGAnyS/9dVvaHr/peVKo7z50i/GwF8Mp9/N9zyg8KEv9Jd5iGNLyxV5/cWfIr0ZTYz1w7camYx69GdGNbKmKX8L4Vi8fut9SvvMrGyV/J7ePtCxRfa9/4Y0XDyntZsUPmDGI/+LYHBs3HqvFBaXSlpqunTAODm0923p6mqHAy05JNJ2tdXITVroG8O/qLRMSsoqlHBd7dfkcv0FjbXL7La//Nw8Wb9hvRa9a9duWbJ4kfpBpcLI4BxG69WrcurUaRkaGpKKigpZuHChpGeka737+/rk8uUrcu486WnB5FlkXlWlVMydK1lZWZKEVUvD8IXqwWhSbW2ttLe3IfFY/ufCiKuomCdFhQX4es5UY6W7s1PO1pyVnJxchdvf3y979+4J6R9OMzBfV3eXGTcsFYQkdePVfxyCZ1NhYdcHR0Jyfn1oBA6lyWrQMNr4hhsXCD+7IF3hD/WNmLGCd37929YIR1QYLJS/rLw01Hks/4Gglkv9k4TP0vw5OVI4L0fyMfIw2Dcs3Rh1uHSiVa4PYZrAA+yD7+GfCn+HwrnIh049G38jQ8MY6emVzuZeab/cM3n7Q91SUhKkYnmJZBVmSGYOnIbRadJ3p6O5R67Uwtge0y6tAmPo7+Sa7/z4E1v69uTAkZZxrTDi2q/gIF7XR+XCiCNeNG6Jr31kOwQR09XaK32d8OFgGjYZX/DDnyn+mfnpwLsYtYGvzKmrKm9F8/OkEA7X7Pt6O/ql+UKHdKLOkfSfh1GfbPg/Uf/VwceGztXR8C+cmytFGG1jXANGkPrgROzhT6flucuKFL7qQh+Q3vZ+aTwLAzeG/pebR1YsK5Yc8C8jBzKJjx/l35VuuXKuA8/R+x+DOSppGUm6OikXskNejaAddLb2wOm5H/LTrfT3VU254Kd/FmCmYSSM79obegWrhMAyPiFYB6W3IBZjwElUcNQpR4pMOKhtZllRBOpt+V0aCogKI1ssLVWC0cx2tU8kvI8TvoJDkbcKfKJIKtGat0aCyk0T//VbtsvDH/8cFDVXE4D+oCFZVF65QFau3ySrN26V53/wDxhRoNAhSQT+j378Gdm24xG8RwT/kCavsESqFi2TMyeOyNJV65AJjeHCWUQxDQtBMtx6wYwF5o3CfyQn95lcszIZ3lUuXCIV86sNf8RRmXoplwCmFc+rwUuBj0Uk/PzCYq2fmcXUJGH886+UqMGClwgGX4ty8E3GrGzSXmUQ6YCCg2j5NLshOA4+8XkEtL/7/kdhbHDYPgy/AO4C8xdUyyoYg6+98BPZ885rVvAE8OOR/yc+8yXZfPcDqkw9/udhJVTlwkVy7MBuxZ6UbG9tISnGyX8xjEXTwwlytaXZIxNyMBfCJPhbNDkzdftnwTRI1ThBxhUrlktpKaerWCdEwlmgFHVJSU2TtmvXZNGixYwxuuEuIzNLFi5eqEq85lytJ4qyeu0aKYPDNplHw2F4ZESSsVFbfn6+bNq4SU6fOS2NDQ1WDuKzYFRu2LhRUmCcM5D3xD9P02+WZtCJdeQ5QEoD97Np8xbJL8iDIT8gO997F3RB3RDA9Zjw98t/pPzdgGGipQEWv+wtJGBkxfAf4QgMKeVrf+4Wp2JzyD5BhuA0G26XVjeWwxGCg78+C7rBkKMxxCJZlEFU/D39U7WmTObB1wXRCAmSmZcuXHVRtrBAjr52UXo7MXKFoPkdCNYsIztd1j2yQNJgaHj1EkmD8YMv3tUiV2ra5Mxu8AAFR4NfAKffZdsr0WnxGANNpvBzsGKntCpfO8Ljb9bJQK83Coc0IfhMD2xQcDT82QEuu4sGOWgEOl+g86yWbgWMaCePe/RdTNve0sNqagpeRwavy75/hT+cvrU8s4l/OgzSufQ/Qv36Ooekav0cHB5KiWQtRtUAKFtUCKPxqpw/1IR3Yfrz6Ic5iwuREobNtT5prKVxzmD1tPsEmb+iRDhdQhpdOHR5DP7pWL7swWeEn/401hpPo+8g33iJIn/kf2FZrizbViGp2ThPzAeaxkvpgnyZB0P02BsXZaAPMhqCYQkpe+lZKbLusUX4eEgdA9+b4rkMvM7ugSP6BPCpf/IhQx7/O6/2CFo3IYEErLfXpvDAfo7B/AXsPpSQQmSxmo95GcgOVVJ4NkKQ5LjHhb/8c03UHvCsZc4EfqiCKIIFI9wK8Mk5Ko2Z4s9VRo9/8oto5GnAiEsYu6SluUkVftk8zFsnpUjlgkXC1Tw//t7fhQnr8K+sXiJbdzwEYpAaIteaL8vlpkv4os2S6sXLZNlqM1Y0Ui8R/CcvwDDLjeJJZ2M2Iywb+Y/3hiNeOfr3dHViBALTMvqcINxDJTXFhLUTX8TM4foJTWKrdsbC59RPZxsaKISY5TNPDkabbJOusfC1MoTl4M8G/+kovO2+x5z8j+KrpUcuN9brUGpp2Vws+cZXE3B/6KnPyoXa07qfyWzCJ05b73sEo2APKGJErbHugrRfbZGcgnypql4K35y7QRULV1svR8U/J9eUJfNfw8iUR6aY259Dajz/UZLjv9bAKxgPvC3FCrPzGC1paGjUZdRLFi+WOWVlUgDDoRB/XT3dcvrUKenu7pbc3FxZs2YNRo/SZN68eVJbYz5IHA0p09VhIvX19VJ77pzOu+fgwNVVq1ZLDuSqGqM0jY1U9JheSU3REZ5UGCucn6+prYFj8TXVRSXFxbJ4yRIpRx1YP09z8YHTUnl5uSxC0mE8Z6ON9IDfxCSkXsbJPzJOgH+k/NEwUZi43IBxwnvS/zpGXvjA1XPapshMPI/Rv5qa71EXj9nKdSR08DlNpIEF428sfMtLPw1+6dOPo70JB9WiA58D/5jUDJzADUNiyda5cvg3GN2KgJ+eDZo+hpEw5Ac4uYa9O7owspKUkiQlGClIx7LpsiVFWqOze2G0IPjhp6DsFTsWwPcsSdMMwA+nC0ux07A6Jb8E0zWAl4VRiBX3zlf42tr9/Y+WSPTH48+On4aQ6bhRObPrkhptfvg9WEJegk6VpKlaVyq9OweERkys8h8v/soy1h3wF24q1+XozeigOTXF0TP6ITHMX1WMkYYuHR3y+N96sUsWboSxjkDDoAmGoQWWihLBkKQ0yC4NRzxyZGkYI2V+/GkM0/eJ8LUu+OUIFxccaGCEBsS6Yj34LDQNBs8KOC0r/xDPFUWdMHQyUEYeDED26Zn5GZrm8Kvn8F3hxr8oLIhLxZL69Y8vNvkBHO790k0frJREKa3MRzmpUr6kUGtw1hm9fvhsdgwc3aP8D4N3fZ0DNFgQXCSXMXHPFAoP8SJzLTAB7omtQ1inOryOumbJAABAAElEQVRoCBoR0IDxNcbxQ4WvKIPWtWFwDMhoRZjPS89M7n768F3GWw4+1u872kwX//sefQqKBF80+HfqxGH55Q+/Cz8AKqZRmV+1RD7/tT/UkZflMDy4H8qFmlNKZI/+W+59GJZ8ssI/eWS//BwjMaPXMaQIxi1YvFx++9/+b0pv7YhIewYf/Xmvq73wOqTcNQEQ0uU1SMCGqFo0jCTh/4gGFNJ6/OeOqpXVi/FFOSTf/tY3lf9eUfpL2Aw++McO7ZGj+DP5s6g/+7/+P8lCJxaCzyyE7yE9Af9ZNOlPTEhPbUuExWo7mIz17il/i1eswZABXyXI6ZNH5Eff/Y5LYPCe/u2vyVpMtSVjVGHFmo1msEwAnyCmy/+kpFTZ8fgnFD7zvvKrH8tujuSw0sD3wSeflvsefjKEP51pCcQjBSw7jUtJh3KyXNLW1qrlTaf9Wd1ZAgOfCD+y/fM9AuHbnVyCoXL+/PlQ+z9y7JjsgKGVAX8WGhMHDxzAqi8MXSNrO6a4zpw5I2vXrtXDBLOyM6S3t1+KS7mMF1/BmE46W1OjfGPx3V29chTlcZqIw/gpGHHhNFMJ9gZKz8jQOpzE1NOVK00h+HWXLkk/jOD16zZovNaYlcXNCEZtLiGextLV1qvSy5PnIdux6z8tLSr9tf1D4Dqv9WNJuQindjz564WhkYIOh52ABleMX//xFethdLWnSenvyvD47/GDMnS1oVPOvNtgU15IV3+sRTY9tUTS8eWchykiGg696Az88EvRoabSWEH+2v2X8UXOqUdkBi7Mv+7RaskpysK0TIGcO9AUHkFy8jdvZSlw5Oo0kcs11+Tc3ssh+KnAfd3ji3RfmdySTCmAc3EbjCk/fMM4Ov6Lt8xFXhwdAYLSH6XtEpzOI/BvAszKVaWSiA6SX+l3fXyZXDhyRVqxQma4H35TXnrUz7v3w48Xfz/9KVE0CrsxWqKwEDkHoy/L75lP6DIf+6LQ6PDg9/cNqk9NFqZQcsEf7kczNDAMfMPtr3g+p5Y0u7Re7HRygmdHf+7vwxEk1sPrf+/61DJdzhxObPmj4V8J/iU7Y/NyTbvUwCjlSDX5TyNm3eMLYQCli/IPhtM1TO9ocPCLIT+cymGW2v2Ncvl0G9iF2oDul45SfhbqFJHKz8Emmx6NtD+g49UoQ6Z24EP8HcoG6wa5zv/48xC1GD4h0AQiUITRGy4rH3Gr/ZdG4IUmocrX4vRK48eECpGanmQcGwL4CVJSDmUMBgwODcqLP/u+Ops6gsqlurOyd+cbIBpoCebNnb/Aonz05wZqJCw7h1d/9SMYK/yKsw2QzteewmZwNn+vHfhY8kPJe/w33oQ55DgV4r/B1+yM8sFX+dDkNkpDGfDgx8N/LScEHyjeJPmj7wPpTxQasIeOhTD+L/z4n+Rv/vov5L/8x7+U9958eRz9/fjPRP6Xr92AaRJuNoZ5+SsNMFZexV0Y/ntvvATeDiv/6Y/UximhqeiPNvtBtb/mK1dcdcPtv6eb8/TYAAwjcEOQa3/750iLF1Jh1FBp0AghxkkYDaisrFR9pGnA/77eXqmBEXPmdK2mY8Lc/FzVP72Iu9yEURclVxh+K4yRto72qPqHBtMbb7whR44c8cm/FTGx/CM+Rvk79FKN7P91jbQ1e53qqNRCQR94oUYuouP3h3D7my34RoMLB6/IdfQ2XvsbwchO40mMhLqQAR8YBj98dpTEfwBTUo1YEqvBtT/uAXPhsL0jBO73Eqn/OQ3DOPrInIPB44fPKZymU5iScIG+DQx++GRhNPoXz8PoG6ZLSH/6oJw7gBHGKPI/PHhDV1aNOmfn5PQkWby1QrZ9djm+/BdhSqogbOQo9LHw48Wftbd/mDo71y5dbX0h+rO+LfD/4IgBA32QGPz4t2BVD/GnLiqej481Bp/+K57H5e6QE+BHgzSS/gafVwbT/x7//e1Po93FD199gwB/BPyjwWHGhvX/9KlpOOlGfcConFLzI9JiaB/gPx3BiT/3AaJR6dc/1+EIX3fEZJ/45XHEDcEPn/zPxUhUciqn5eFzRP8k4G9TQoqWfYUSWDgYunzmaw6Fq5UF6ugXrqeREclnlkDKMS2j9M7rBLUARrvRBybVROHURFAzI68FJrCg2cfAx3svGpG3FnylhMPf6qkCpQ1rcvzz8ouVBpxa6cF0kBc8/BvrzusrCnNRSanRwId/NobZSfferg7p6qRTG4jE/1oAO0EKH4sgD+3XK0QbGNNrPOM0AW/0le2DoI+IIVDc84+30fhPoF4y/HoNRb8+kS92/hMaaYpMLAflal7CZiCMaPAZoXHMgtyEOYX8dXA3XMJA4Hb2TQ31OorFV8R/ZBhOhx1UtizMfiaHb+lIiljwX7hkZQj+vvfeQiYLHvwhHW0jJfD1znqwDogcjz8oRqB0AEGIFb6Hu2bSwu3Ogx9u/yzU4vgZ5cHv7TPjxKqFXKQ3V+rglzvssuZ+/o+M4MtRg7UZwudox9CiIfU5Wbp0qVRXV8tV+L9wWXvzlRYY8xgNIAAHPxejb4Svxg9+WVc/fD50d3ZLIZxxlXIugZaBxhBqD0zIuFBwAPDM12P1H14wmn+I9PAnoV3x+MUd8Gaam0r/qPAJ/YauSKLREQm/l6M7Wnc4xsLfgkiQNqwyAw0OJujrQDqigSc//n30e2F+hFzs5tsOJ2DloMOfu/MSPkeTbsBvKBL+lQvtasSQ+P3ddBYdC18LVgBWIV7pC8EN8axCo3LqfU7VQrYQotG/FatKBl8dxuZ7Zep0zDQ8coLGSF5JtszvKJZjr5/H6IVNzc0m/qaxTO5Jg0j8iVovDK5MGCucmuMMvqJi6KoTsTctVFyVJ40YMfLonwRH5kIueUcZ7XBepj9ONPwj5U/1HzJR3lUsyT8Vfr1BDH4dfNaLAHoxtUb+8bUHn8i0XOCICfGz6aJI+LqrMPjf127yE4l/D401Bz8XBmtbU9cY+AAH/5wc/mjgCAuNG0gqc2lVNYKIcD6KkSQ6j00nMH3Ce3UAJOZ8p7VQqPretuBnMfaOv669hl6ZWJqQhYk1A/haR7IEnMZVfSoAjJBDwD4E+AbbajET/JNw5gOtWW6WFo3+vb20NFE+SMg5eA/XEP5okHzHr9Ro8OlcyHI1X0hYPbqBkuCpWtOWOyr/PfihciaiP/hB/mvgL8DOhP+Wi1OKrB/qqvhTRqfDfwU+Jfyzp47IfY88JVwZVDZ3njz7B3+Kr6N2rNC6qr4gtdjinyur2OtOD35s+BfCCCX9+Xf84G6ln7/9lVdW66ov8r8DUz3j+B8iNuHNnP4shvydsP378QdvyRetLHKpZUZmswQ+MhAJ/U9Zi2j/5CmTaDo4lMIo279/vyxftlTyi4p0uqi8rFzK4deyZOlyTHFdw3TpSRgu/SgyEVOg8JNAGSGHWi0pDJ/lcpffMHzGIUSVf7xW3FinqfG3Ws++/mH1CN+jn9YG9Ypd/q2EkLMvieCjPzsh16AAx/4xB+GpPwJWFhF+RkEa/EwqEYMn0ou8QhoWp/UD/RPhIMx6jdH/TIAUXNmlgc8++PTfuVLrDH+k4z8GDz7vWT6dj1c/uECfMjCFlUzjCkkvwFG1F6MWnqyNg09gSMi9a468dh6jGOlSXJmre7NkF6IzRhn0JVn7yCI58GKtsxbC8BPjxR/QFQPAGXE+S378Gdta164jEEpQIK70RHrSfwC+Lt3wGcrG6ANXdnG10jCmhYhn4bw8GDiWvrXOPmonwp/0xH+7hOhP2vDBaMRITcO3Dj5fsD4e/xSaT/64ZL/5HP3ErP8lDn7+k34sISw/eNTA9zBgaaERPgAmwi/Kq4EHnzre2zCOvkee4cwez+WzzAoGiTWgMio0GoULXkM0NT3vdQiHiDNA/rmEk/+84ErRfN5rxrtSlTiqx7zyUVvm0Q6JhcQAn/XTcIvAR6WtPrgqLnzijXs9Ff5MNxX+WhbKjEb/ECAHluD98BmvwocrhZzB5AaASf844UfyXyEYGIMF+DPhvwoYyomUv6n4P1347Vgm/NIvfgDH5y9Idg6d9kaxiqRQz1dasGipbN62A6tTLsr7b/5GTsBHaCr4ijQrESP/8/PhvwG+dGM0YWgAX8bIq21EGSNSBsdfLQvvr2EkIlTwJPJvDstaE2SdGf11tAYwJ6O/fcAQUUOWaGsI3TBmLHzG64ca8IM+1KzEn9M7Bw8cVufzEuzqmwc/mBI49HIVUDGMmM1bNsuu3bvhuIplv5hWyoaBmQunXA82yw2BxU1Ojve15pd/R1vAVfxmoH9C8Cahv1bESDIOf+XtZPAR5+f/ZPSPpn+VBrxEwCd12P41CnH6DR0F/wyMamRWmeO8R1NXlPJrKvmfCD65AHCGGwqckP5AvhjLd5nW4ENOMA1y+Vyb6r+p4LtM6qPTe2xAp+HK4Mi6+K55cFxNVP8dOiFfPseR1fH9T7z4e/D1Fxe//LfUd8FowciUEgICFAG/5WI3/DwwtQY+0WeFq2rI/xJOEYEenO3n3iQaYpQ/KnuHpdL0Zssfz7OioenJH3+p04z/vOIedY+UPy79zi1xDrfw/6KxyYDdm6iEmBxoaEF4q6WAtPxFsP0ISE+KqqHL9y5aa0BGWK0oQiyLCogpbtjGO+wV2UDwiimVcFbcjOC74ljSrQsfVVMBBR38XyeT4W/48Er6a8ox9HckA1UnoD+MPNKfS029dQm68ZEjWBJWVChbKLiT0X+m8AE7xH/DwuDEyX9WmrT08I+J/w4+8ae8McQifyeO7JPa08dw6OJdsgCOzTzwsRDLwtMy4WMB/CrmLZBPffFruqy8kfuboFCrmdUuhL8SOnb5T+NKldx8ZWxnx9Wo/OfeNtaq4HmPAw81RIHf39erMkI5KsRSccUf6WLBXwEQIwJCiNb+x9Ff00bHX+VsMvojAWkGHWWBv0hP+BxtqW/EydJYwpwEJ9vFixZJFfxaMuBkW4hDOltbW7GHSreUlZdjVRqG+vPypaMTw8so09M/OZnZukpJCYsyFS+UP6n8O/isUEz4AwPSmjBmyv8Qb5QOxJ/lzQw+ecj2r5RFMeP0D2tp1QXdmdInGz74XGnSCB8EpiXdGMU/ZaemE109YrJiBRJ//p8U/lT0Z80BlPW+gv1KCD8DzsE8xJCjC9XryqTGnc003fbXjD1b6Iex9pGFWs8SGANXMFoQjf7x4s/RRKUzCTad9of0rZfacXRAmcofVxU1YUSKS56LYMCBPNIBvw76mMSMP4WJPFO++fiPOprMarGh+NmQv/6ufrl8xnO4Rd8EYjjwrI3C6oJ/V6T85RZnoL1rSozSpOOYhSqVPywnQSWpKUAA/LegNxzqsW6RjDQgeEdPXi+d+02giaQprBz90qJAMh6STGH2rHm+41ydCQeqyWGmOw2+EtPw1w2dpoG/0haXxER4wSulTZEYLRPhhGQGR6gRIJWf/n3YWCsHG2Hl5OTp1yh9Lvz0LyrClIOP/uP4zwrgLzkZVnEU+Clpbk090qgSjIDPLH7+UxD98GfMf2RUN17SEjD9wY//ZPCZJ1b43KGVh1dysz1m4uGB6zZtl20PPirclC0lBcs+sV8ODZbJ4BP5WPEvq6gE39HGgGAHpqGi0b+kvELLI/+vYLm64hSl/dFXibiy8oXYz+Rmtz8PltKfF3/7Ry280bxI+qv88SWzsLoI87F8Pw27+fb0dGHFT7PqCibhcuCLdRelEhvKMbG39ws3z7sBQ4ZTQ+vWrpMjR49IJ0aomCcX7WDt+nVQftaeFJRP/ql/MjEy04dNAT15torcCvoPo1HQjdH0byKmjrkKhqG3vQ+dG52XgR3owvbHfTBorqj+QUwk/5mPKVT/EoA+64+WwdFt3tCHoeksNj4jfyjI0P8a3A/vFQ5h88/BN/6PYmdSfkDhNWC4FNPQ/+gbMJrCZcuEz1OXt3xqqfrccFO0lnpsvIYN7CLbH3cRzso3H4x++IkMcZ+aCPgdyDfMHYexiohLtBlCKGmF48N/DP0BOxI+SR6i/wT9Hx1WuRQ8F06t3Pk4Fbo/d06mJKaajuBmeQyR+Pv1LwDzv8LXtLg4t58p4bOGE8kfy/JCVPhoV5SLXviw8JBJklT5j8uY/h9yihELDX76F2APGOMISqEPDSIpf7pOiA9aouVzV7O6tRBNgNeQGt7SWVkDa4DAgjSd1sgryj2M/UFaIIJ3TK+5SHs+aAEszQu3MXziTPYQUd6Hf6bEvxc7bjLQ6NDOng8++hdiJ1mP/t1YdWHRYfp3dsCaBTxu1HXfw0+NgZ+Lr8+V6zZPSv8+Lu1EyMYQ+oKFy4wtPvgLFq3wwbcGMyH/ib8LjgxT4u+lp7E8Dn/UhlXx8FfaIsOE8L0ESKNbwWvamckft7U/uPcdeePlX4bg6wGEU8BPxajJRuyYyz1wSIPJ5D8V28l7YXAAihj/tFk4+s/hLrFLVyp8GqJXLpvBEg3/KxiVoDc+A43UWaH/TNs/6jAd+NnZ2VJdvUDWrlkn5VjCTGc/Bh74x43nyH/SsZW7/CL09PTJ8RMnFEgalnNvuesueeCBB/Vv6913YzQmHUui6dQ3nv4bN2+Ubdvukbu33o12YXC00GjyN1P8USxLjgafylrZG6H/BrEZF9Vzmg6nu0gffO6HUbV2jv5lF2JfDFbaAeG9doZ84d65nzHyp6bEBPC5gkXhY0jfKsjyY29/g73cSgH7eaCerEMk/Fz4ZjzwpdWy49k1shg79hoCRMILxMCMHQ/+MFYXnd3bFGp/y7bN0xGHSPknzdY/tlg24I+GTTT43KH1Bv1rgD9HWyLhx4u/R38aKsYNo8Fk7d/D3H5N/3G1EPHnFAl3Ki6sgIM55R8GwVXsbcIQib9Ji6P42B+gibLwjmkm638HsZmfyR/4pwLKDGH+c2XPji+t0b/FW+YZ+Rwsls3N8sh/Lp3HD//rX6z45+NoBcLnfjLvPnfc/n50DFNCKJ2FKRb83FFs9I1DyrsnorhH5UfVsRN5nKHC90Qe+Lg8LFBJo+91TIsNA2OrTAtRUSVEQiszmJxlTws+gbEsq9etAl9RIcdYM/c7HfzbcR5OATqYHGx3vvHuHfjC38nCQnhu2HIP0Cat4KmN/SYIwk//E4f3ylJs6c747divoxDz/lcaL2EtP3at3LhdsrPzEGP0R04mG8P/DuyeO69qseZftnajXDxvS3s9Oi9YtCQEvxWb0kXC12fkZsHD6viLr6xkbHa3cLHUnzs3Q/5zYBV8RqnKcZU/QJqC//xCVwSRjnvWHD+4b0r4n/vKH2J6oRKyOiK/eO670lRfR2QA3eSMnalHfy7vnAx/bjL3b//0P2CZMvwnUPnjB/bhtOS/R57o8q+jK0QS9S3lSApu2bIYCP/eBz+GjQO5ERecCWGY3pgE/sgIjnLAiqdi8D+vADvkgm/12NI+9vZHSo+Fz7zh9h+mPwrVWrL9M4RrbHrBFaTtwTohP/4uvZNpZq6vvyRz5mAfD+xMu3rValm5YoX0Ywl3ZmjJeYJcqq/HlzNGDwkPeVuam9URdz6mi8gj7tFCb5nhYSx9PXdeOzaOthA+qUkjKAmbMBZxGwAEGujZmFLq5sZxoD9DbPgb/NnWP1yFw/1DUjCqUAofixasqvHTfy62byflKBfcJI01jtS/Zq4CC96M07/ED7n0S5iZWUJY/3diZ1juscFdTbOwQRi3kvfDn7+yWLiDLuGf29+EKRVsDAlQRjOM+iA9NxbLyAGNy3OxTwd8NXz6vxL58fmOPKg/9qqJhI/KaNlOsuwedbwKR9XWBQXq08GdeBesmyPnsWzbT/8+b2US2gpPu+bW+FzK7YdfAsfVNPjnEH9OrUTCjxd/1p5kVwdzRxQ/fF1xQzkD/qR8JHy+YjYeWrgYG8+RzkUVOVgujC0PQAduAjiCpdtaNJ79+Gt5msO1P85pkv9IHJZ/Pk8Mvxerw8h3bjZXVJEn1xqxdJoygkLY/89bUayOs6xXd9t4+SP9cmDU0ME5Kxf7/OB0aD/+VRgdrFxdpuXVHmjUbf49+eNIKVcOseyuFo58GjUIH063fG1iQXSMyppCiaCJYd0RmAVizXgvDd+CNUBe27lKLdM6YrFM/FdiIc5y8gXz2dOM4BsWLBrhFoOvdUrQVSaPfuLz+kRMra6GtXe/87UXoIx5sB9DghzbtwtblS8HZRLkiae/IGUVVdhboh5TEslYZrsFW8MvRDI0MqxaOXvysMsXxv/Yod26HHcJNkDj7MIq+GHwz4N/6vhB7Ha7YUL6nzy0X1at2wIYCdga/j6Mw49KXV0NdiPNlA041yZHfSxGdcUMz9OZjP7tV5tFlq5QzD71ha/JuTMndGmrVxduekdfET//H3r80+qrYNSAvECoUjA9wCHqdPgiKD0JVPmPjurKJTkCmkWTv8Z67MAIYGxna7A7bC52zOX5RR58wqg/f1ZO47gCj/4DPb04u8eOpP/sl/6NnDxyEDuqXoShkKqjJDxQ0DQzT0C+MCn+6zZvM2PFVZe7DGegM+3Fbq9aCb2E259ObUCxJqLBzseOxU9/8aty4vBBPWF25dotsmrDXSgJvFb+c3SBlGMI89/qxrcJcnjPO3rMAId1n/rMs/IPf/MtNSI1F4kQAZ95WJSWoSWQ/riJ1v597W90FF+qSKf6TwtAHpRFJaplolgmJ6b2jy+YhuVD6eJR1QbfAT5XwvFMopUrlmMr/kKdBs2k0Yf0dMa9cPGC7beiMFiO4d/Q2CgNTQ167hK38B8cHFSHXO5JtKC6WoH44XNJdVNTo5Rj5IpTcN3YL0brxcogsP6x4O/Bn03913y+QyrcTrLLtsFnB5t0sWNNTBrF7qcF2hGzslw5wp1SWe/pwDf2IRNwNWwNY4//bTgnqBLb+ZMKqx+qltp9l2FY9GEJbiI6Tew0jK3m+dXP2cgO+CBEwuc5M6wn86/YUSl1x1v03JwMTL9wU7EijBQwE3nThnNpLEAQIuRPGYAG7O9/avY1wJhbolNE7Dg5NdJ9FSvGkF3xAUItdZ169EAaRoi4SV79yVZdYs22kF+OJc3Y/VcrDfxDm56hrh78ePEn3iH5JySS2tF6Ou1vEOcDdQG3HCwdL6kEPVU2MbpYb1PGRDma/M1dih25gasXyGPbCA7L2LGMmucDWSD/4eSOqRvlo6M/946ZswAft8i4YkeV1GGzt04soc7Ahn0lOFahCDvQkn4cpWq/zFEg/Hf05w3pN59TljBuVj+0QGqxXw5PxOYOyzznaQF8kEx+Rm1TOK2M0T+vHPu6oO6kn9bJx39dI4Z+DVH2T60owwS8gz0GAsEI1V8ixq8WWsVkiAV37x6VMRpHRQSgigVyMp5JETgNqq9dGXcafKPNDamAcTGvahEwBsI+/ClzHv773ntTBmGwePQ/cmCXsFPk1E0i/Eg2b7svxAelPzJex34Wr/7rT/UgQyMqCvfR/4f/+G10VJ9BGVtwlgpXnWCtPPbHOIqOvQMjOCtWYddPTc+LZ3NbDU6fOCQnjx6A0WLw777/YblLHgnzHxm5c+4bLz2PrxbuoUGmohwtD0+KKh9uyJ5338C5R3frtucFMAI2Fz2A90jq8OfSytrTx903r8HfuuNhnc5iOpbMQWGTwxs4oTgXZ/w8DlCMsXDq2AEYLLujwq/Dxm8njwCX9Zt1SmjRslXCPw8+M3FU4ywMFo/+u955RXe7zc0vwIFvc+Teh58YR38iSeNiL3g3Gf4s0yrm5J9kAjMmkv+W5kYcbnnGpn1QtzWbt8u6zfeE4NecOiqLcAI12x8Ps7TgYESh/653X5NN2x7AiF0xDkKcK4/BeP71z/55Qvis70zaf3t7h7z62qtaHS1DORpu/9yUTeXDsc2PP09Ufv2VV5VSfvg0Ng4ePqL8T8vIlBQ4G/b29WOaS1uBoytB4oA1GLTc5p+hDUdADGIn3eZmnC0T0j/YyIpb8CNw630//BMnTmITujMygo7TD59pP0z91wXlXoeRgaqVOAMIvK1eCyN6LfzPQEhP/jm8zm3Nefqz0hd1Drc/YsNggsEy3AvFX6NcHPUvI/340zg6g+kXntfDHUvX3D8f8YQchs9cFw5f1nONXFEh+DSieMBeBTpOTuUt3MCvaeZAjfDr6Z+aPU0yjCW8DH74rLdOimD+g3jaCijCT8SuwcPYMO4KzrmZp7RZtm2+HHyxBr4RKAFls4a12Jk1ByNEPDyP0xJLsWlcJHwaW2f3NEgv/EQi4ceLv2FjdWHZkfT38GfcVP1fC0aV8orTUX2jP51ArqrPEnOTqGCusTmEf/UGnF2EUUbSQtP4+J8JI27RZqw2dHGMIq/am+msbgXxYMKGs23CgxjpL7VoA2VvjtbBkz9kkxqcBTSIVTyR8DtghJ7d2yhLsRorHfBW3181jv7MdOFwswzpPjxGMcLnWUOsN22nTuy/4ud/Eg4q+6swzkY6VoQSRSuHYfzVHN4oHFQ4KmgEwYQUGMugOW0W0lBU48VahyVU6ULiEM1jh48CjDmw4G4l+DzDZcNd21k9BBoDhpxeKaUR+O9593UcHoUGgyjPdDh5dD+MmAEpxWm7qVDGJkTc02BEGjGq8Qtst3/+7MlJ8Wf87p2vy4Fdb2J33Dfhe/G8nD9zUo2oxctXo26jeD4hDXXnx9H/FOBzjrRsbiUOnMPBVw4Xzvu2wm/il899T2pOHp0UPrP04Uu56WItDl4shhGSgXOFMB/qw/8iRlgunjs7Bv72B59Q48Lkj6VYk+OvExO+1EDxabncBAOLy4ujy99ZGGA8xDALHVpqSrruGeFyqwDVX6hVuiA7/ifCsOtWoyEHS5ppZHGjKQ9/wucy2lPHDsqvf/p9rBLCMPgk8td2rVVWYedadrj0Jzm2f7ccP7LXwBObKPJ/vuYE6D4fS6k55ErImP5BOTS8mhrrZRF8WBi4Y/Gli+cnhU8eDg/2qwGMwjCSsECn5rihoJ75FAW+MQNfY5gumaz9sw6W/ea3P26hP4RTgnX+m4Bd8OBzj4otW7bI3Lnlkotzhlp42CMjQbt0OCrOgxMvp4qofy5hI8BO3ZAxTH92dGSy1/60+Cn0H9MQBPd+uVn6h46h3DKfG7PR4ZRBZRFwea4PDw7s5JA5/kXKP6dCOLpwA/qZUyLIovh77Y9fuuXYVh8ChGmHLunBCb6R+PdgaoWbuqUjbTK2h7evXq0G4PfpwXUcCYoGn6muNXbLAKYCsgszJQk7lvr1f/e1Xjm1s07TWOXG0p9LdzklQRmux+iMw9zwxxPry2kDjjylYBdb7gvCs2pYFvsf8pSjBGh4gJ8hCTB4PfhM24UTg2vRobYC92jwqX/iwZ9G0pyFhSA3fU269XRsDz5po0BNgCeE77U/GmjzcNAhA/nf3oSTrjEF58l/NPrPw5RbIlaKEj75Gsn/SPidMNraL/eidKbkj42ScJUUpwXHyB+ieczAyZ310tbobRQ5Xv92Y6pvECdz8/DLZBzHkAgd5Mkf5bcGxuKV8+CRVi7M/6o1OJ0e03Vcvl67r0mrE+L/qtWriC+Qcl+yrKsrwFHE0tKIh2lM9Bk4T8zQg05JLWZ9QhzNVlYMKa0Yj5xMYPf6hRPquPT1tOGzNA0AeSfDz4IvSwk2zRrBfP3lxotucywPefxOE/+Hnvys+kJwEcCrek4Nvown4X8xDmMsxsFxIxh6bmq8oFuj+6BPG742H8DTRQheQZPAV+1DkYuQPy/rdPGfDnyuBCotny85+RgaHeHOsq3wlbiChoQpEC/EQP/qpaukG1vDX22hzxHURwz4c4SnHKuGuuBYTb7Hg/96OP0++fSX9LRjbb9Q5kcP7VLDU9GIQv90OKpO1v499G8m/acDfzUOUSxDO6H+of3Rg2k3/Ehebo7SnCLUDYf2/QcOYrt4GD+zpH8GuMEj+akEAZSbpP94dhX9QThFyk5EN34jzBjkjzwn/qxlrPKnGbwOFZlptmdhEznmH8A0hS6nZZExwk+BwcIDBZl/ECt3RmDAhwKIN93+J5Q3Rvip2HCOJxhjBkMGYASCjOEQA/x48TdwM6d/PO1/Nvgfkj9wimdg0X9PQ4z05zEbmVi5xbpwRMXbkE7LiIH+Hv7JbGwE7SGFx5Bhwi97xmmDVIrz4mrIX+aCUHM3TNxCqMEQVIxssb0vkBtxjNYyWDFm458rmE1pRvBV4u58+D1Qslw5pHwB2ZR4IYZMD/+C4lJZtmq92ZMg+lU47U7F/9aWy+honXNtnPA9/Xe78J8rcRrqMYpRr+Kt1Tb6gxDTkL8LNSeVzmRirPLPUZBu/Gkz8cBpDbzGxEYUG/8P730Xw7a98iT8WDjSlIAhXjoW0yCYsP0hjo6BCh/1NgXvGu8M5e9m8v/Y8eMYHevDyrZqHQnIg6GvW4crzUaxpX+znDh5Qg1+5YFDbEL8SZkp8Gf5H5T+G8aS7pE2GsqO/w6vDwo+J8zoXDlT+DxTqOcapw5IcRVd3E8ifzHQP1b5J7+5W2p3P6aePPjT5H+8+GuTmUb7V8pMIX/TwT9e+PHKH0fKPOfqePifTIudI880MlQYoVVsFZB7Q02FeUQTM6ZBALM52sIvGc4pci0/pVBjeatlIB0IzncesfjMoOn0FvEzhY/PVIJV2z+AP47+X/nGn2Mozk6wJamTMC1SUIp5TfhssONgh0gfj4D+M5T/20z+Th09JLWYAuQS6zXwK0pyxzpMxH+e0ZIA518dxo7W/m85/DF8fO4c9mmpw663OIE4NALcKz3YWI5bwVtPOXv6Z0SngwL9F+h/KNSg//tA+n945dAw0Z6fvb/aFKFnZQK/4mBY4N7ZxrhBCuMRWr9aL3ylaVgSv0zsFw+0ZDH8yk6TVqNdGW//aMOE4CF2zLOLiw7fs9QD+CRaJP3nVlWrL4jyCXRkPFnBMICv7Zef/yH8ArDWXnlFblkI6O+TxztM/oYxFbIHfk088ZurldjuxvAbIuA902+EuyVrmqjt/9Zsf/Tz6ujslHb8KS5UD9Q/yktciDP+mfaZGH9tDVPwn/5Mgf4L9C+FK1L/Bv2ftbnZ7v/Vk4tOOXQds+ZMraXtmm1bb3nhKz6P4ssq0T8BbMMzMFaQAr2jc1+x9JBlF60Gju34w4kjE3LdMl7BTR9+yMgJ4BtfIuh/CfunJGJ3Vn3t+EknWK5u2YfVI104zZnzstqwZsD/gP6kHMJtKn/cEXky/tNplaMS3BMhWvv/qPN/BCvl1LH3NuU/FUOgfwP9d7vp/4SVq1Zhe39+aYB5ZnOotej6PygroKTvaUXiBs/8ycGwK0Mvdplkw9UofcMkfKZXm1PqfI88fNQfo5K+pOKbCXzmYaCxFcAP6B/In7UtbROz2P64Aofnl3DqyN/+P8rt7zpGlYex7DrQP4H+DfqfD7b/TVhFgwUtz2da4Cn8xu54xagI3uszEmfzZFTk7OFW7r7MvGUaBj3oCGkIANPg4QiNDV+0zPCjS2iFWhyvY+FbRfAeIz4B/DDxAvqHxSyQP34MxN/+uLQ9CY66pKy2R0/I2LA/Yu2PK8S4xDrQPxCHjyD/P+ry/2Hjz2EQ7e85YGF6iFf+uff6azF8pxvestYI7BA8Y8Fe0QU3HKgsdYCGgm3/mcsSMM4PxxVl7ywNr/bHq0EI4IdIEdA/kL9Qc7qZ7W8IGxVyMzbuSsrVEq4pfmTk7wZGVLjfCjezG+RmiUbsjwz+HAX3kA70b4gUAf8/BP2LEZaVYQ0EXlA0bW7bNySiFXOt1Akvz93gMDH9IpjHdpXknSfabkkk8tIYGpvb4Nj3mg8Oy8FfLPCZMrzCIYAf0J/GcSB/QfvzdE2gf1SzBvo36H/uoP4XE1CeKcFfDCHzSgOFd/bAF2pIUBl69/R5MX8z10noGmO7Z5GjXAqJcjgVpHPfrmzmYeCPlhrAV3o4YjuSB/RXegTyp+3Na3MqKK4tBu0v0D+B/kXzcD2TLq1290H/c+f2v9gt14wMsp6KUZeV0DSnKGi/afFqZ9AAYRLGOsVpT5ZNHZAsq5XlitZFRXTqRdwNHVNkIueVEsA3YgT0D+QvaH+B/qGCDfQvdGLQ/wT9L8RAB0+clYH7RBoeocBIWhWayCZsGOse1YHFbBBevTvvl/0NnfxslEatGqZCATpUb8nwwJEXRCDwJ4DviKEEAZFIp4D+Kh2kjP4pTfAAY9fEiFfvzvulrAXyF7S/QP+oRnFqJdC/VKfQEaYm8BD0P7dz/6vjG062wUzc0eDwMEJ3QWM/5FzrNQJ2I04AEkNutp5FjE6F0Zgi0uSaVO+0HzYzCIW6wGIsljdMHMAP6O9JRCB/QfsL9E+gf53B4dSC9ixB/6M96Eet/+Wp3Woy6Fwg5UJtBhMQ9UFRIaEbLG0JvMcN7z2bRhuTWi+cENLEIaODZakBgng1VLxoHfJEHMJM4RMUqx7AVyqQkgH9A/ljkwran/voCfSPk4VA/wb9D3XjHdD/OhsDw2QOIeJk9xgpoWHhnGnZ+HkYmlk07oeKgf2lUgImj3rY8hnF6ntenO8KGo0qELyhT4s3uK9ZMY4zXfiaL4Af0D+QP21jaFVB+wv0j6niQP8G/c8d2v/qlBDNBQ10iAWiN9TawA03VQkNpeA9Hm1bfd7QxOD0j1IG75GY+XX0xDNOLA1L1z+O0GgulkNbyTNmGIsQwA/oH8hf0P4C/QNlGOjfoP+BGAT9Ly0D6xfxo6uMnc0B4qCRqO3gGRBIh3fuSc0L+lfQzOA/i7Ct4hK8rxtP2TCe/9VIYTkshX/h9zR+9C1eaQjgB/RXYdOLGr+B/AXtz0mD6p1A/wT6N+h/Prr9r7ctirMYxtoNnMLRrb3x2uwQGCdqb3hjI84gwTvba4X5dVgGL7DFC/PR4NFy1MRhAgS8UzuH5YwPnt0SwDe6Kh154VwaftmF2dgU7mkQ4n9Af0+SAvmDNOB/0P7YZAL9E+jfoP9h/3Bn9L+YEqJyM6PB8zHhk53ejAgiyh+mUavF0jJT6JUlY7+JYFddXqlEQteKaSJ7y3jN5aaO+B7PfIUQwDc68BrQ38yyQP6C9hfoH6cbA/0bVpDoNLQnUasU9MGv9TF2Dfof6M87sP/1PtlVEDiro1yHhjBxgC3BKSCTARfJH7PWQsaGs0F00ISSg0I0C/PiiReXxIsJGSkK0JU/ffhWtld4AJ+kD+gfyF/Q/gL9Q90Y6N+g/7mz+l/t482qgHzTBRcc9vwGqPbMllC2IwLJdXwNDUGtGIuloy3v9AlD0TRyXAyjNIZNh32pluRFahwurvjpw3cFBPAD+quUUZYC+QvaX6B/PBUb6F/2ETZaG/Q/t3//awYLeYpwg2Ov/I8/Cny42Tvx5xCIfsHj54bLyijaMV4LYbzem3Vvtgg3AIPxow+I1PTh0gmbIYBP4gf0D+Rv6vaXkZlnjYZtLWh/gf5RnQtZCPTvR7r/SUtLl9zcAgjCndn/JpWWlvyV9pLOCgWmvmDmBl+oXgz1JKOSlpaq2YaGhjS9jbiwt7WWYzlx7xlBuKWjrY60MAfKYnFWMm+czwJfhYKVwsdI+Jo3HI2ymAIvAvhKPSNNQP87Tf5WrtkkTz3zZdl413Y5sOcd5TUvgfwH7T/Qf4H+r1q0RH7vT/5SFixahj5zVJqbGkJicSf0v8mKjbPGqPhoX+i2+jQogPAN/kIX6BM2kePyZA4504IIKUmSBu94LpB1lLyaAnH2ioHBKzNLbKDSRmuY1suHeBbNbf0JB6knhK9pyBJYQbgG8AP638nyt2bD3XLP/Y/KnHlV2u6aGxu0fQTyH7T/QP8F+t/r/9iXJiWlSPWSFfq3asNW+c3zP5S2qy0UE/xnv3r79r8wWIAEEaFV4gwONUg0gpu7AUUvHsYEF0vqrBDudQqHVGAADbjPP/95gaaIBt6414x3papxomV75c8APuunIYA/K/RfvGyV5BcUGdvAD/VnAomHRobkQu1p6ensGMP/O4X+eUVFsmjJKhgDJk686pJ+CChltLbmpHS0XR0n/x8E/lu3PySPfurzkpiYpO2Ro5rnz57U9vdBwNc2ygtoE9n+bxX4+fnFsnjZSmgD6gNjYkjt4ObcGePfB6l/Fi5eLuXzF0hBSalcHx6Ra63NcvH8GWnFVy87Dn6cKW1R5Znq3+nSv7i0TBYsXKLwGy6dl+bGS3Hp/+nC/yDpb1LgxIFigXCn49/R1iqN9RekorJaW8GS5asl96t/KN/79v8jQ4MD2j5u5/432ZSQW0QLDitfyWlYJWxQDNyANqS0kMG9Dv1Sy5uiMGWhVhwymEFzA0dCI55WDkdNkFlh4JllzhS+K07rF8CPTv+HP/6MlJSVy+jIdXnuu9+Jif6PfPxzMmfuPOW/MgcUVjbhcmP0urRfuypnjx+WV1/4qfJSGXAH8H/txm3y4BOfcvJEpJ1wOvx/+r/+u7RDGZAmlP9Y5G8m9CdUDwDb35qNW+URGisJSXL9xoicPHxAdr72glxtvnJH0d90hsmaH3+SI5r+iaT/6k13y0NPfFJlXEfaoFyUhZBeKugf/6//pgbndPTPI59k+5krIyMj8uPv/p0ZFShrKv4XlZTJo8i7ZMUaVt8+0FyFh68Py8Fd78gbL/5chjmdjsIS1cPPpxsdgMn0byT+sepfThk8+bkvK6HfeOkXmDK49IHCnw79b3f8Z6P9U35ikX+P/21XW+Uf/vY/Q29skXse/JjMKa+QsrJ58tRnflt+8cN/vO3732SOjIxy+zhoSlWWpJDecKiVQ0fWkNiGdJUQVhKF0vEdQoIeOsQUVo5OFaFFWR50pnwNSXUp5AaKNcHFO04zBfCV5iG6zhL951UulMrqxVC4w7NC/8SEZCkqnSPbHnpcMrKz5Vc/+p9k/53Bf8XEXaLSnwY22sQ05D9e+qelp8lDH/sMhngxsoI67X3nTRiKP7ZKauNyt0H7M13Dq+oWEEv1j2kc1T+OtXwTq/7hV2pl9RJtP9RXseg/joJ99tnfl7KK+cjATCI0UujAlwyjMzU5Re7a/rAkJyXLCz/7lw9e/5E0Pv37kdP/HyD+8bb/ePrf4wf3SO2p4/L7f/x/SkFpqazefLc0NVyUve++HrP8xwPf2h+EH41vNvv/ZJjX9rUIRrr2xTaGYAcSqslCc56R7quFq581WHtEfquUNmpEWGpGWh7fD9JC8SOhpcF1hvBJBK0vigjgT0B/jyGOVCRZrPQfHOiTH/z930IKaHiOSlZ2Dhy5lsuGbTskLTlV1m/ZriMOO1/99R1B/2P7d8mlizWgkBdGZd2me2Qt8OQGTBp88h+T/MVBf7a/ex98UnILCrWBXm6ol9df/BlorTaTKoFA/sEV1/6PHgD/6sA/PuM1ZZ38W7flHmOdexer/Hv6j2Up0fkbA/+3P/QE/IwqtRJdHe3yyr/+RE4e3ScpKamy5Z4HZMdjn5DU1HRZv/VeOX5oj9RdqNHiaZBqpQlHw+T6Nyb5Y4EsOPwD2lD/ejRC3EdN/36Q+MfZ/vmJP1H/Gwv/B/r75SX4r3zh9/5IkmBIP/SxT8uZ44eko73NtZHbj/+6fzcbt0ox0bAHvnBI8QXvTdD1zmMEqIYcmldT6YMrQnMwEi+V6mz3ZAFaCN7ZmQDIFQLJEkIPuA/gk5zeuNSM6M8CSFMraFr0v45h8Et1tdJYd14a8HfmxGEo3x/JSz/7Zx2tYclVC5dr0ZSd253/HR1tchE+OhfPncHvWf3r6+390OhPzi9etUbh38Ao5As/+z6+jK/jGZIQtD+KH+Q6rH86269JXQ15d0bq8Ede9oJ/M5V/1T8Q6um2v/kY0VTjA0rvBbSVk0f2qv4bHh6S9998Vfa/97bWKRmjZgsWr9Dqse0E+pdUgKIyYpAgTm3xhUq9kui2kv849O9s4V975pgc3vue0jUlJU1Ww3mfdL5d+1843WpXaHLCq5l0QMqJCYkO7EY5kaaBQsWXyg2XD5moPFS28N5uVMyUUnjPL0NOFVlOvmBh9sRveCsd11jhu69ey3frwa9eslI2br1PcvMLJTMrWxsbO8D2a62y97031BCYDP+SOXNlxZoNUj5vgZTCp6S/t0/nmxvrz8nhA+/LDRgUDH78OedeBAc/o79ISUmJpkiEcvzCV//IpTWozNdypVHeeOnn4EIE/Y05eAt+kUU+/h/Z/77sePQTUlBULGWolx++n/8lcypk+ZqNMnd+lZSWVchAf59cwXw5DaBDKGP0+nUUPDH/6eW+CV+hOXlFkpmTo0n7+0i/Ztn3/pvScPEc8o/Fn/Cf+txvS05OAUZ/rspvfvmcpcB7T/7mw+Fw2/2Pa71PHj0gR0HLcfhbj6P4a0bij+kgGtxaEcZHkb9Zoz/KLyqZI3MgA4TTCWOqsb4eMjQ5fFaveuly2br9EZJGdu98Vb/sl61aL/MXLIbTbqK0XWuRE0eAN3iguJDHwJQlKzVd+5uJ/Pn5P1P5f+rTz4Ln+cq/V375QyOzT/4qwb97wD/W/eTRg+DfLtxP0f6ZmqI2hf559BOfl6KiOUoGJi8uRvtBxsTkZLSfPzYaOdkg/JYrTWg/vxgDv5B5EPp6ejEkfxR3oCz+Ez7132l84W57EPXHM3nMm2j0z80r0FVhhaXlkldYJEMDQ9IJmb547rTs3/2WFWil4zoe/7Wbtsmq9XdJUTH0AeSG7WH/e28ipcEjfK3EBPDj5T+Rpv5Q5H348w3xnQo+axdN/2hG8kAZqqUj5ezjX1BUovQvLZ8vOfkFch1+gF2d7dBf5+TdN18CP/pZRWKCYPBns/3PBL6//bFmHv3poL/x7h0UA+iHFbLzjRdjon8yplI+vTRZNs5Nks7+UXnp/HU50ox+Jwb6++GTSJ78x8t/XdZsYx4UZIiS9/WmbMB4CCqHDzz9paCpC5sKi7HKMMe9e9SK6QOaBsqyQ/lYLgpkbRE4paTEdZnuNPiPwtl12/3oNNBBePgT1cJikXlVC2X1ui3y6q9/Irvfed3ogatR3+jPzuXzX/l32lFzCIyDw4VFozK3slKHkpesXCs/+af/LjdCnb7RvwrKnKsSbBTL6E9Cs6NatnpdiP4qb8iSmp4ByN6Yl9WA9bTA4cjo/KfxwXw0xLJgTPR2d4/hf+WCJfLMV74uWbl5Y/Avx5LcDXfdK0tXrJUff5/1R0NHiOQ/HX+33f8YymTdDH9bgVYqFaAfFfFrL5B+ryE3hcrwZ1n8ai0qLsOwZ6u8/KvnQvA9+WNHsHzlOpW/1ubLmjcSPsth0EF5T/4TWVfSiDx1MDVVGP5s0N9rf0XoqEbh90D8r7ZeQfvzJucmhs/q5OYVylIYKKx9G2iwZduD6gNDEpFURVglsnT5GlkIg/D5H36XWcbRf6byx7JImnjknwq1EJ1sJ4atX4bBGal/chQ/yDKC8S9Mf74bo3/4wiGu/NfnifVP5cLFUjF/oUul5EJuar0EGN9r9M5GiQnTaz9j4Sdj6ocw+3q7Vca89u/JXwM6vB/9w99Kclqa9HR1atpI+eN06yPQIRlZWWPkv6KqSlas3yyr4Yj9/A/+ATJ+DfnHwif+T33mWdm07b4x+qcQHzJctXTs0N4I/Tu2/VP+4uU/6UX5+7D0f7z4b0Ln/tgnvyDJqalj6F8EX5AFoOEaOHj/BE7cTZcujqH/bLX/mcJHZcbKP3hJ+bt0sTZUz1x8DMTa/24qT5JPLKFLuEhFNv5ykuRPXrsBHxgncwQYRf5uJv/ZVhRJ/nqiq5VAnSi81lz5xnoys9qY2stHlUoEmB5/zOee+eOt+VYdTysF/81YQaQ6C3rlMMqaLt7o/9sR/jwovHt2PKK0Ixp9PZ26pPLsyWP4QmpT/BOSEuXhpz4DD258QSMobUg/4D8XBscXfvffqc8I6Vl/8bwceP8tObxvl3RjSTFpyy/mZ37nD1y+MP27oQAJo7P9qs5TchWCR/92vO/gX8c1acdfB9Pga5vBD18Jr/Q34ymS/+np6ZJPywthoH8AxkoPUgNRBNa3Yl61fBH1z87J1aIa4Bey/33W/33UHwoaaZauZv2/jngzWPzw6ei4jfTjP6Tt6emR82dOiNHvGt7CZIAB9vBTn5XS8nmAGsbf5I85WR9kxo+H/8zkj0VY87PRFZZnuALATaV/bk6+4k/4bVgRxF+GyeAb/uE0W+8lHUeVdvuxMoVTXWyg7EjWbtoqG5x/h5/+8cgf4ccr/4ok6hz2NXH0nwH+Ri+fjE2hf3q6utUI0LbRdg3OtkNKd1Le2s8117bYftCOsGJuIvlTKZlA/s6ePoapon1Sfx78QPDTv2ROuTyOVWGZmVnK/+6uLrlYcwqdzgUZxtJo8pOO9I8//cVx8kf6L1uxXjbDz0wNX8C/2twoJw7tk5pTJ+T69VFZC+fLyfRvvPz/sPV/vPjT6Hji01/UkUnS09M/lxsuaUdN+udh1Pzjz/wO/KiTxvB/NvRvPPBZ32j0p2HcRd0LxmfgI3My/lPj6R9+aKD49V92WoLk0x53weQ2Uv+G9Q+Lik//ktpj23+y0wPaENi08f1mDYGt1HOn13sAp7LzMiCaBCKFdNkybr0hc38ah77l4lciqKUWHoZ5fUURqlpytzv8xVj3LirI7CiOyI++++0Q0SkIn/qt35N1WEKbiNUCK9ZtkmZMyzB4+K/B6EFmJqZAQJ5db/wGIzE/NTqBOTl5ufLlr/8fUjwHX8kYZcmHQ2ZnZ1uI/j/63n8FCCTElzlhfeUbfyFV1Yug6Ibl29/6C31H3hj9CRWBPNQfo7+KByWa7yP4n5ScKE9++kuSkZmJSAyJX76EdGP5v3r9FjQK1B/xu956BSMhP8adCV12rtW/BKMHS2B0caib0x0MHv5L8PWfgNUUhM/l08997+9cXfADWKTfWnzhcOXMyrUbMSzfEMLfvn4J2SGlteCzFYElGSbbeKEr03wy6MEfK3/M6TLjlmn8ZUfK/2zQ34OfmpGGSlrNOZxPJGJrf0waxv/H//Tf4H901L0ZlXsf+bg89PjTiv/mex/E9BzmtxVF43888kf6xyv/WvMJ5I/4W7DfSPrHq3+e+9537JPJyC5f/cafh1YJ/e1ff3Mc/bUuqLBf/7H+Rn/jAYtyxYGBU+u/HeBPWhraF7KfOXZInn/uf8rgIEY00awr0Zaf+ap9zCxbtU4WYjTqQu2pMfC3bH8Qea39c/r2V899V+vD2lQvWS7Pfv1/105tIvmPl//E1i9/08Xfk38V2Aj9E4v8x4v/lnswIpmYovQ/jSlHLoe3ugimtstVp1L/cTq8evEyOY/9mTz+z0b7jwf+ZPLfDT2bl5cnyeh32IyU/yaiTozH97/vNwzL49Vpkg5yUP6OtVyXtgFy1MJstz+AmNL+SGblmZBCxvqzOp5g0EpnnCKoyPGCP1UclprD49yNlhnV1uJ8M/6RidZ5olyXhfrXkEQxrmBCnRF8lg84txr8dAzjchMo4t9wnqtOxuL/659+X95+6Xnti/r6u5WUfvzLKquU/j093fLWb35Jsoboz6+tPTtfx9bsz6LURFkE4+jQ7rcnpH9o6oL0J7VioT/Tov4pmC568jO/pWWT3WnpmTr6UwxjgxWiXbT7nVfH0b+8aoHi349pord0fj+Mfw+s/L07X8PXyZclET5Ri7BJ3aHdO8fwPy0jU+FzOqYBQ5l+/InFCz/5Z3nz5eeBDIbd+0i/CPlD/XWzO6RV/CFwkfKn+lyJTvmZXP4pZkzDX7YR1iH0Ygr5mxH9CYEA9dfVDcQmfIU9BXzMoSj+lL8aGMxnaax4VUax7772a9msvlVFavBG4h+v/MUr/8Q8jP9E+gcIGUGUxxPpn0j6U5imp38cGOSLlf5MN5X8qRhR/kB8SOcY+S/GqCvxH8Do6Is//xcZwGo9sp7l1sNva++7b8mDXQTNEAAAQABJREFUH/ukvuBoyEV0mH788+FbRvjD/YPyyvPmw+Xx/8LZU3LswG5Zh1EWAzpe/uPlPzvCD1P/x4v/RYx6cTqPsx7vwddD5dHxvwVTyGdPHsXKs21Kfy5dv3D2xBj6+/GPlL9Y9O9swh/T/yom05P/5h6RP35tUNaVJErHID4gr6nQqtxag6D8ROjfm8z/ZFplgKFChprgBuLmLHRjFt7hy4ANi6k0oN5sVGQqumbdS0CzMhLviIQ2cLQUK0OLZSbNrqXoLeJnCh/DBDqVdovB78Awse4tA/w419zYWK9DuhRW4j+C0Q6uSAmFCPxLSyuUphxuHsb+KToH7qM/19KrsgH+9Fc5iA6f8GaN/uAteZqSnCCbsV+EMhLwFYByE8pwYFDef/tlOQUHQhpOfvilcLblcxuci0euj4zjf1NDnRpOrO/c+dXYROvdMfJH+qlM4cptpRsvXcJX5Akkp8CM6jA9p70ooob2WPikq9KfkKPJH14bLzTl1PKnuzZR/hnIRATK/02XP9YTWGtDMlMpZvggDLPR94U1RlN1OBsW5E0udjPOwEheWnqWcAk7OxmklHjlL175ZzXIfwarO+rsk399S3EE/Rl/U/UP6a+LDaZBf9RpUvlzeJlAjdd/eXAyJ050sOUUQ2T7p9O91/7p6xOJf3YO/MbA/3b4Lw3AMdRoCDrpTYKOSE4m//HynwA/TP0fL/7733sLCLCdkGDEZaz8XYCBuA4OzZS/9Ax8nEbov3jxv5nwVYqBlmKmqmC8/FFQ/P3/4FCC7G26Tkrgz2jyweg/p5Ei6I8pIUa4irBaqFfo2d2TaZrPqW3NgyyKs05BULEin6ZnGUjvyrLG5aHLHCQb4+3fGHjTgs9SWBx7j1sH/hl81e549OOSjjnoObDAv/z1P5MuOBByy+Sr2Jr73JnjGOo9PCH+KSnwg0YsV+E8+/U/VUXj0Zb4csWPR+xUOvhNgr8RCJmQ0egcG/0Jn39ciknlxjX8XClBijdfbpCfff9/yNUW7LSKVJHwk5COwPilE6o/4aMcdvtJ8N+xWogkp3Do1eSARTHUnAL9Hvs4OlOj37N/8KfSBQOFDqTtoF8t6Hf62EHUKzr/UaDCJwYKSDs3u/W6HQ++ynkE/DHyiIT6tUz5Z3laIH+QcwL4TOfJv5fcVQllGGTW3LDGG8JwpSsE/7N37+A7jCeFzzJYKOsxiK249Qb9vweZL2pPH5ee7i6N4u7FMP01Gy/xyl+88k96WKXx4/CPpn+obCzpxO3fElg5Vq5HhWnQn4I7LfoDhqO/wh8nf5Prv2S0D+LPbdSj4d+HkVev/XN4P7L9JfDrE/CHhvBJTHQj4A9ibw6jAqEAtwj5j5f/fvlXmkfAJ9Tpyn80/k/U/uLFn3VOTk2RTXffL8WYAsrKzpMk8pNkBTlppHj053Mk/f34awamYV78xdr+Zwv+GPprZVkZVmca8s9aU/6JAxHRAmLTf2PgI1+s+If0odJsLHz2jqiGtzk0C9UXdkN5ds/6i+dRWJaJ3PHTCzY8A4RYOgq39mb5IKwuWjs+finhDWDgF+m9ub+ZwA8hdYvBp2HCodzH4WVOa5/VyysslDz4m1QtWqoNobHhvPp3nDq8X+kdDf+s7Fys5FhpDNBWANKBbKQ/d1yNGX9ko31sX1Wx078PzrT/71/9GXJy7nwx5m7/HIXYyiBuiBUKkfRXQRHJRv2zF6+0hsp3Kli8UNZgupD/rgH48efX/4u/AP0+AfpxlZFHv6JCqV64DBvX3SdXLtXLe2++DMfF/SEB8+RPlQmgaDWA7nj54xA8aKjwTY798LWaXn3xQPgM+oNnT/5vNv0VqIOfwNVmfBEDfEfSSfBPlPffelkR075YcRvf/mcqf7Ml/yH8eQPkQ/ij0uTXdOgPspn4sQFNV/8QsB++038TwZ9a/mLUfwDLSivefvhT4a8ZXL4p5N/rgKLJ/0z5/6Hr/zjxX4hpak5Z5+XbeWrKAAoQywU9b7b+nXX4qLfJv5kpROR27n+TiQytxERoZlpR7NhoV1BRWyfHF7wnwviHxxu8OBWg1hcS6pco0mkj02d0BkjHlHpRQ8aIxrLstVl6M4Fv84MEAQVwi8E/iaWDtadPyGosQVyA5aOFWNPPdfXp9M8AMSoqquXpL3xNV/Q01J8HfXz0J2FA/y440x4/uE9pGKI/6Uaa6s+o1GG+dXL6Oy6RCTHSn+BVr/OX+QCvHit96s7V4NC0pZKTmy9bdjws78EXgmEi+ndgRdMJ0CEUPNnAC5Mr0fqbfPjwx4sTwPsctpVeheXfC7CvCPe2yC8slQz40RDfMuzt8vQXfxcrNq5JU/3FqPxHzfS/lQ+gPvxZBgPjosH35N8SIAWSazrcUPQp/7HJn1c+APngxyL/A9z0zConBcWcJmA1PgD4gBOv/MUj/wRP+MohRRoX0h88M/xhcI6hP1rUhO0/REJXIEtA+wnxf3L9o0SnsALedOmvAD25YeZY+e/w548BnQx/ymF0/CeD78k/07BqN0//fHj6fyb4p+O4kU98/iuSm1tAqmBkvB1OtcfhK9dr8gda5xUWyMoNW3ztPzr9dVplmvyfffhh+udiLxnSRPePiVH+TU9Hyt909F8YfszyT3CT2B/wVEACGivkkNWNL3BrD9rEgaC6hiEx01uHRm4gHTU4gr7Hrz7R2mEJqliYBvGoBBNZPO418GsJr2cCnzAIH188DCyH4VaBT7+A/XvelgO731H8k7DyZT2WkXJ/Ee6FwekQPjfCYPHjr0gAGY40vPYiDhhUnHg1AuozkdQbXKbAn+WR/i57jPRnLgTk8/i/H5u1LcAIEYvadNcO2fXmb7B5HcYqIuCzlhztaMeS6Vdf/IkpVJbj+M9i/YHl+fHnM+WP8+8H9rwjB/Gn39QYKl+/+R5s5vSYFOJwOe53sX7zvfBxuaDFaT7ckTSEn4ihlWjyl6BTappFU08Ef7z8IznlmVkVF9zFIH9MPn36w9eguUnzcWylqASOmMQMIGOBr6NNSO+1TcL36E/6WCFaM731059v+TJe+Zup/Ct+uHDpOuvhyZ+nfzg9abggkvSfQv8oliyUPEOYCn8mpfyR/0o3VgIfRdOl/0Tyx07pEZwPxdB8uVHPdolGf55JFA3/FOiNEP7wr4mGfzzyrxUDyvHyn5SO1v6mQ/9o+Ct/pmh/M8V/2Yp12MfIjJVLcHD+3nf+b1YBmPBqCmzNhrv0Q4oyQgGJRn+Nc/iTnpSjWPTvzYBP4zQLq4NysE0CQ2cX/CdZHw23X/9Lux+kxR8u/NWGqXfuvcZbDG7xdaOJeGvMYhSC0YAuSOFAYlGfqEWPBF4aTcE4PxykMyi88u/Ogn8D26of2rNT3vwNVrgocglSgGW9eouLR/8uONsR+xxMh3iUoPL0qDdd+jPrdOhPqhMagx8+p1+4My7h56PePBdFG6tL7PG2G/tXMLD+s8l/bpJ3EPR7/ZVfeqSQvCLQLwK+zvEDPs8+SklKHSd/Hs2pRXq6bGpL8cSFvxPJv/rmIP5m09+Df6XxEvbNMKdlOld6SE8X/nTb32zLnwc/Vvnv7THfmkzwLwk+GsobxxkQQfKKsQeQCZt0dYN/TIDgyV+k/mE85TAJvmFeGs0Qg/5h4ZHwp6J/P31MEDgSGU3+KyqweSJWaW2A0V9ewX2EDAWv/fd1dypM7vZrsL1aWO0L8LETxr9jHP7eDqzZ3MeHODr8mYclcGpawwT4zzb/F+YlyIrCJFlenCiVuawBseLPzdH/8eDPfZ3Y/lhDnrkTjf4Z3HXbWBFV/00kfx79J8P/ZsAn/6uqlsBVg/SGwYJRIw0x0r8iJ0GWFWHjxKIkWZjP0U3kngb+kfI3Gf6kt6f/WMdo9Ad9+RoJUQnWg46Rhpr7mtQ4S6PpdJyId3iH/67uQIR3Bs7ueI8/hWD5efVKZWdn5o3F3SnwP4sN3f79N78lf/Tnf41VPNXj8M+EbwcD8R/BRk5KRFw9/LmqiN9z7KSWYNkyg7fMk/dPwDfmL//T3+HvO8I9GyajP/dfoQVJZU0/lFjozzTmMeFxKgz/0J53oQCNX5u33R+V/02oP+vE3Wa57DqS/4996re0/t/8z9+R+x7F8kytVRj/z/zOH4J+/0m+8ef/EbuOLkB8GD7vs7HxkYVR3S47En8efcB3yUkpcvcDj4+Bz9GVFWu3aHbSv7GhHveGj0d/v/z3ofNkIP15VIDeT0P+Z0J/Dz43Let0xl8+fKC4Jf104c+k/cUrf/HK/zXwj/LHfXbuAf8UZ9CfgQ7nq9Zs0nvyjdOBkfxnSr6jDush/5z+If8Y50l1LPrnOtsPQkqqtR/ee/KvcoMCI+FzZILv0tLS5Z6HPjZG/gh//d07WIy2/xY4rms5uHrydw08J/40+De7tP72vwGjjBa4D1LjOPg82I7wubkZV9n52x8NwGWrN2p2xd9zOMEbD368/PfTn6NM37w3Vb55T7L85T0p8sVVydOiv0dbP/5T0T8e/Pv7enQghPRPz8gI0dYPf/mqDUZ+SlMU/vvxn277n234XvtftML6EdbNdoc2+Yul//33m1PkP2w3/v3hRu7hwlIY8Iv/Ho8+qP4fEgSQCpUXU5cU5tB7Nam0bpYM6TULJJw5zB7Fva4xJTIW75Wlw5dMiRvmYMMgzsyLlDo3qA96iR0+fW5uRfgDmO8s4Hk+wO2zz/4bOX34gDQ0XNTVF9U47XgJNnxiYN2vNFxAMtzxweF/seY09knYhqdEbJL2u/Le6y/rgXzcZK0KR91zYyF2vAnwe6nDAW+T0Z/n7siNFaB5gnwKPh/nz5zEUmlb+UOI3EGzBr4ifvh8UP7zJevl4//BXW/rOS7Z+fnYvK4cDsT36qgHE3r8v4AyuZsmKihPs/6vvYT612DVUAHqv1TuuvcB1Ac7KGJTKMKPxH9Q6VdC8slnnv19OXX4IAyL8zoFtHDRMlmMYVtKGfnf3HhxHP48AXf1xrt0SmjHo09JVmaWnMf+ExlZmUo77i5M+WtpwrlGPI8ogv6UKk/+Gy6dd7KaoNtxc7iYnQSz0JmXFaEf0ZkTR0L4kxaMp/zPhP5++If27pRHnnoGsJLkyc8+K//4N9+S4UHwT+EzJatAaoTpT8gefCra6ba/eOUvXvmn39MabAeQiM70PvCPxz+cx14X6ZnZOqrHM6qIcStWqzVhOnU8/mH6N5J/+Cig0zJ39s0j/7Dzq6dzST/6Zp05eRh3fBqrf3juEg6CUD5/8otf0x2XuXu0x3/ua1KDXWv99Gf9l+MMMNL+wSc+KcVFpXIBB2omJ8NYxtlaPFaD8OmjdAYbk2lhBO3gH8fZSIvgt8X3j2PH1bJ5C+Qy9AdH+Lgp4/wq+/Cg43stVtRF4s/2N2/BQsWF52qV4MOHu2VnZGVgB+nHpBi6KaR/eUNkfPDj5T8L8+RvKUZWsDlqCLc3L17XdhOCz9pHwPfLv5FEC1Ce6x3SM8tE+j8e/HV6Xus/Cj31CAzkZKxIPITDX89JJXTPjoefhB/fMq0L4VMHRNLfj/902/9swyctaWCtx6nlrOlAH9wU3n+DDFHSgpKT0r8wE/6C2bT4Dcs367B8Ywr6+/En/Onqn6n4n8z9JMwJzQkvueCMD3V0o/HiEGQnxAIZQnncM/iH4FYbaBZLp2mBs1aEINABehYrZwUT7zD477/9Cnb7XINDDwvgaFsq2/GVdQM0pXDof7Y23LRdbZHd772l+3mEaIm4I1BYxfDR2P7w41DWuTjT4vMkoQXSnwKDp704yKxez4gwOkej/96db8ia9VslFTszFkBxbUJ9wjzFCAXO8uFpnn74yk4yBlBUsfj4P3x9SI4d3GVfjqjE5u0PwWB5V+vmwT+M3TWLMWy9/aEntP5cLRUN/31oOHWofyT/d70D+i0D/QryjX4PP6HlG5Aw/tdaW2UPaGBND1cnfzVYsnsYdeJhX0lQOHff94jcdf+jIfrfgPyNDA/osetTyR87M26hvgodRTLKWrR8Jeq2SunvVYqdoRosDj68ethMtF4zor+v/e3CWUlcXkmH7VIchPgYDrd88af/oqBDPFOGhfFX0A6+V1F+Zcfa/uKVv3jlvxbHMBzeDf5hNRj5t/W+h/VPkVb5FxnGkt0Xf4GDEe2lXaPQvx78O4WpzBUwYDm6wBUY1UtXO/1DJYxOJynBGSwojW3TR/89aD+rMUqRjk0U6ThfuP3+UPsjUB6IR3lj8OTvBA7UXHZgjxq4iYnJenbWurvvGyN/NIzewtSmjiZF6L8j2NhtyfK1snL9JuDP5bX3oXT+ITj8R0aG5ZVf/UT63ZleGuXwfwfO8CvXbdaDFdPSMuT+xz45pv2dPXUC5cMIA/aU/0j9Hy///fK/sohjFcAWl3acFXjgCs+hubn6Px78z585JadxKv3yleslNS1VtmGEj6N83jERpD8NOp4npLYeCa8Yhvnvx3+67X+24WfheJQnPvVF7kuBeo7CJ3AnjkfBZpsqK5TCyfvflZgGYj6GIdgqb1/C0RAu80T6x4+/ZsRlOvrH3/7CfZWjMuifVFJS+ldewaZpgQ0imIR46R8fiTMljy+ARCoOhmIYhPKwlHhgNDipSGk6944JvYCyaZ0y+K/2wuDGAl/T42JqxwHDz4cNvx9n3/CrOwdfczxzh86DZmKwxugsrw/r/OgLP/m+dOFMH48KjPXwvlB7Uo0JnseTgXX//Nr06H+15bK8/eqv5J1XX9Ask+Hf19ujXwf0OUlNTcfQNngWon8CzpY5ZefLaEkGn4fl8UDD4aFhLL3+jfJIxcHxv6WlSU+h5h4QXLZNp1caXxoc/S9i5Oc6fHa4tJn70bAP8BK0Iv/O1/5V3n7lhaj856nUF8+fxpA4Db4StDXQzyd/3Izu1LEDwh2Du7ABXzT8a3BK7sDAALbPng/FkxaiPw/tqrtwRn7+L3+PU1cvRIWv/FCAJtVnocDIwez8PGyml2b74ACqx7e6C2ex2yVGihgi5G8m9PfDp1Ycxn4cS1fguAIonfK5VTIfU3tcQdbhposi8S8vny/LV2PYGnX5/9s7E2jNrqrOn/fq1TykUnNSFTInJK+SkBBIAohIhBhAUcmiURRY6LKXaGvbsrqX7XJpr+52rV5qD+pqW23FgYZ2ALFF0E5CIKbJQAgkEMhclTmpSs1VqSFV7/X/99/nfN9XRb3KGytV7+373neHM+179tn7v/c959xzNz7yYLxJFncX+077txp0GkcBUa+JyN9kyP9D3/66v1O1Zu2rNLSi9qvtP3SQ9nuofOrjv6/J6htcnyPrf6T+P6DeE9pvsT4LMXsO7ceTMXWO9n38sUfUg/OtDm/MlcqHvdIfeuGWnrrCHwqdPYD+kDT4hJxv0NeTj8Q/5j+wDsrqNeuUb57iSa9cOmx6/imt1vxncvzvjKLq3gkq3W/d9xUt5rffTipDSy5f+ndQVoOn/b/5xB927vnI+vMV9IfV47dcPaCnCn9i7sKwdGW79OYevb14n78CT0X4RheTSzvbJLR/L/9/8IJZZYWe0mHZ5x89VB7YIgaIxlTi/0Trv0EOCc7KSn1hnmHJJing9v1fu9tfiufTIPBvpPZv9m88+j8Z9OmNu/otbyvvuuEDmrO0XHeqhQS1ICcfO2WoebT8v+7cWeXMJYG/X9bicXc+RfshLSHPcYbb70DH9bY/8UTVWF9OtP37Lh4cxAGKW6BkuV3YR5QLUqEQXHTJcrWYuQQK2rNbr3w5d4/qKHxYxgHG8NBiT0lp0AeuwYsoX0eVNR76Vbd0C3GPlNRh3QlCH7BdedparSeimecaAtmuCbWb5XAMy5iPtv5zNZZ6powUzN6sN0eYo+HW8I7QE7f+tP9c9e6ccRZvF+mrw7p/j/GPsv0xMCvXnK6Z+5qALLnko3Sb9SFAJqOOtv2XqbdnhXonMPzPPL6h7NuvhbNGSR/ujiT/o6U/GfJ/xVVvLNf/4PtjoT1JwpCE5xt3317+9i8+NuXtPxH5mwz5X7ZqtQz3Gi2kdsBOyv6e1VtV+Smv/0Tbf6leyV+hYSz0n6EdFuwbi/wt0MMD9T+oDx+ySjSTz0er/zzwnK55YPv27y9PegmEsePveNt/thTkf1w/Tz2T6hE71Fd+UUu879R3aI4n/k+k/ryFuEYPCIuEPfv37vEbXXvUdmyj5f9E7N946a+Wo/W+n/hZryPT6L/w3PPlL/7kd8rWTc+Pif+/de3cstyftRouv3rrS2XjDmp+fOo/kv/RN3jxoN4C46XBOn6rGwKmqZkdF99hmEWA0isJKnqxXs/j9nfrKSSsL2kC4GuVKOiwOMJdZXbEsel8PPRrVit/0g+GJv+nr/xddMlr9G2nHysL1VOAzmzSHI7f+61/l/J/BMYEwlSAOSIu8ef44e8lK2eVj14zWywfLnc8LeflnoMGe1rGRiDxH06YF5Np/87WBzF/7Kf+pQoWFuopjzk9f/eXf6YeNt4OGn37r1rQX37ze+e4qR7ZOlz+w20H/KDU7H+99eOOP/Vdv3BWcCJ4crThkxNDL0lwVHvF0bXqsSsJoZ8cFU96ejbMjPbYqT4buoba5M0oRakimce0+ok3Qao+dvruloE+95T0k/+SgiZvCNh0kz++2/SouvAvv+rNmpSqORl8wkE6lPKf+n8i4t9Fmr+CTcCa3LjxoBBed5n4b5YwpDFV9o+h+P3qjXxIk4Xv/PJNmpj+uFtBDTEm/g/K4aRXmxv+giZLH2n/Xyn76yEhV8b3Vh0PTQRjcmf1A4jxhvhRAUBykdZJADB364u51MahuvZGMWwU4bgIJ5VfpbKXQym4Ki1OF9AkzSjou3DoKW3ST/7PNPnj9fgX6aJO+U/9PwHx91feNLucu6y/PKmlYn7lVn3XSFvi//Gxf/M0DL+PCdkTsL8fuXxOuXpdv4fxfuGmA0VrhFZLHfb/lbK/fYOaw+I7wVeoG36DO0vwBQSI7Zs/vmW5yTy9srATWXZ7CXElrE5Iq1YUpRSKIqFXH1Q+LtnwNeJtoW6aiCHty9OvfTIUUgtTgdXhaeUEYV0l/eS/5CSeakI6Uv5QnaacoSNNb1L/xBtYA6SMgH+JP/HAORL+rtJk2zlaR323fJXt+4X7qX8nFf4sn6fvxqkTd69GMba2r4SgENX+v1Ly37deDgvgbe+jIVa9pEdItt6b/RGurMl83E5frdT1Lr0VQ5D9hkipfQRQsL7040jTcDy7bgbKHw99lyH6Kinpd9kJNzr8Tf6n/KX+Jf4Azom/gsXO1gXMtD8nl/3V8wNOSLSkOyhqo3rMkQhJOuGOq85KJAkP20GRzM5DOBI4ESqZvCqDsTAci5bPBD0+Rrgy658t6Qcf2Cf/kYwQrJS/qhupf10FCenww0oVk8QfcyeQNvE37c90tL+8wOx/ZN2r0iHvshC1w0/Ouc463kY9sSNCtups4HDoxzSrcOXr0A95CetJVmM6ToqJ12LHTj/KNpGkn/xH1iSbyJRFKuUv9Q+ZSPxpENk0I/HXhgnhEFKk/YER47D/ZOr+jof9N41ANdFmAp9ugLctuA9gP9qyti7Tm2UE+MX4d23p2oPiK70LjZNTY9RTwBZPy9gSl9QiHaddLX7s9GsBSd/8Tv4jSyl/qX+JPw1iE3+xEWl/6DqYDvY3HJZm9+l7D3/EBrCr9lX86QLxE6wOQzUrUfgxTUOI93n0roQvwjovcn58oUin75Zeyes976Sf/JcsSQwQoa6EWKAUkPKX+heykPiT+Gu7gTik/Zkx9ldNXY2Bjs2f6ARFSEcueHKLOKXFQyEDP06bx6Ijfxgb/vhnc3KlbZ6efRPytgQ6di5rniicNJEq6YtD5k3yP+VPgoDC8OM09Q+YECMSfxJ/0/5MV/uLb4qW1z+f6iEuPAZXmmgH64oHXJyWugQu8ZE/wsPlIEP1/lVq9KrUZEpOmsjHRcuf9IMDwafkP3KBZAl6U/4qL8SN1L/En8TftD8z2P7as8BvYMims7AtSsHmFUMlH7Yf2inYr0mSQecewrHTorQCU8f52hlI4l/sKBCHJVwWYuz8EKbkST/5n/JnBVFvSeofWJH4w4rNQkrDKSeJv2l/JAcz2v6iBJobwBN+56u6xkuebq0p/kgzfgjOBiEVTjtHIayfhFuse1qUiFIJczEwmbwKj6fmGq7rcdFXce0+kn7yH5lK+QvtTP2TMOg/8SfxN+3P9LK//fSMdHo67FJoZ9+Czpeuk4Gj0ee3hEjfEsaxT33VEaS9HQnt5KCgLrE0P3k6Kdy1TU4D63jp99xD0k/+d6Qr5c96l/qX+JP4m/ZnutnffqabuPMjfJMeTwQjiMjjWdRIdZVw6vVSCK9OAx9EdAqu9YvU9eLwg/JLiGoa50r6yX8EJoQGqapbyl/qX+KP1SLxNzAh7c+Mt7+xcjfi4B4QqQcOhncBFoAm1+5a06nPam8JXS1WKF07VTU6LsI5KEuB6kUhAY6NBp4cFsNPBAa1pA/XOswww2Bn8h++pPyl/sWDTuKPJCHxV5igLe0PFkPwOHPsL/0bUWkqjleBc1FD7I64S0VnGg7C4fAWk1KcLkIY16m5HEcqmBgml2L9kICH7D/KIw27pG9WwI7kf8pf6p8xIbRBmpH4Y4OU+Jv2J+2vuzuizyMcBwFE9UkADHfKuxtOH5HzOBDOhX0cxbaEmFud18twRLhQWodFRHsoUIS+WsmejbikT59T8j9c2SZHcCTlT05/6p98lsSfxF88+bQ/M93+2laGk9FcB7wJ/fQfS3xHdxNT2Nii18SntZeEUaXwQHBK6GDppPG5HxkjLR6M/sORUSQLS2hL+sHPNlxm5sM7MRS+w/nkP1zokS14Ih7Fi54+oWc05Q+5qfrIgTWm2cyr1D8YkvhjVZJwJP52dUNnib+4A2ApsiF+nID2Ry/6u6V0iCdcm8cKbGUowM5pqIAro/R1w0BgIaIQ1TE8EaWqhSq6Vt8hzNYFOHFqbF2YyJL0zYPkf8ofHEj9EyAk/gQuJv6GpcFGpP0RNmA4u9tMtL/9OA+wId7JiPO2zHd4WIokDTjS9S4UiBRpLw9kyHGEKKGckPh4oqDXj3U6Kt6pFe0jO3whxSd9szf5L8lALJDF4yF/CxYsPqr8zZk3v5yydKnugvuoEJHyn/ov4Uz8Q0P14xC7xP+0f8fV/s9auXL1r/XbVatCaIsRsyoc4qed+uRnc6JQpZk7b46vDhw4aKejUwSijKNi2Q7At3y7XJ9RbFfoVf546NfViVVQXQ2yt+ikn/wfQf4uvvS15Z03fKBc/vo3lq/ecatk+XD5O/Ps88tP/Pwvl7POvcDyvemZpxFoiTMFIsRxSPlr3Ej946Er8S9Ug33if9q/qbL/A4Axf21D8TrX9dyLz+g8QNsSGUM7ZGIcVJncU+L0XFZHRdfuSZH/w2k8oQT4B1WdO8946Ne7meb05y9aVC67/Kqy+JRTy/33fqU88+RGMVPck6GFp1PN/1eaPnJydPkbW/0vEQ+vecvby5q1rzLfnnv2Kcv50eRv1qxZ5ezzLypnX3BRGbz89eUf/+aTZcuWTUfI/9jop/yn/if+NS3APsTf0fSPGG/VNkyG/jfKIYVJ/2Tl/6xVq1b9GpONEBEa1VvnpIbp2kFKNKxXfFhtbs6cOU564OBLNY9SKJ4nT7aW3uutcGEC7EgQTk6b+zIe+ioktljQRQRPXPr9A7PK2jPOkRG8sKx71bnltHVnlNPPOKusXXd2eWHz82XoEF9SqjyjVmZeVO/d7/2QDe0ZZ59bLlp/RfnKHV8swwfr3CKSTHH9jzf9cy8cLOfIUVi5+vTy/DNPBSvED7NETGryF9wZXf1f/11vLe98z4/L6TuFDOXAS/vLt75+d9nw0LdcTK/84WyvPfOcskQOItvylavKmedeWL5xz53l0MGD46Lvm5/B8p/1lyBl+0uJYcLMw/+U/8mT/wFEiKd0hmUY/fFoSvgTPreQOZwnSv0pw5AFzznj6VeZPG8Fq6JgugSH8VzoCXD52iGn7hVQGIS4VHlOMQ76MT8GEryfD73orTnR6J930aXl7d//3rJ89ergDfWGKcGC8vBD95cD+/aOyP8Vq5QPPopn8xcsKqevPatsfOxB8xgeTnX9jzf9733XDWX1mnXlxT27yn133+66w6voUerK32jbf/0VV5n//bP0FYpDh+So3FW+dONny5bNz7kRjpS/LS9sKn/0X3+9XHLF68sbvuf6svr0tf694z0/Vj7zv/6IprD8j5b+TJf/rL/EDCbMUPzL9s/2n0z5jw4QnBXx1caeY7uWocBJ8VdTHRmdmrE0f4T7A4lOR8bQzViJMZwIhyneQ0M1vhlrUhPVhpCmG/3Fmrz5A//sQ2UZzkrtFLGvRqXr9nL1v+/uO+TQqBdLTt3GRx8oTzwqZ8VlKSfOGhZUp61I2nEy+f/K0O8yZyLyN2f+vPLW63+49GmIB/7f+U83l09/4n9WZwUaI8vfN752V/nT3/uNsu2FzebzpXJgrnrzW0NejyP/J1J/y4blQbsmf1S7Ccsx6m88sFxpJzkzQvBQQPasfzDxOOhftn/KX+pfF38GwC8bOXaSje6qKhEe8QAVUCXc0yHOFI+xNLJFGE+rtWinZeyRJI6tYOcnWkogjtecdU6S1uswVvpR/olJ/8KLXlMWLuRtlL6y6fmnyl233lS2bt0U/Kj1371zxzHrf/utN5av3nVbmTt3btm1YztFHcb/qa7/8aaPQFWR6jmOLH/Hqv+b3nK93vhZZv4/+/TG8oXPfRpJO4z/x5K/vXtfLJ/X/JX3fvhny4Ccnrde/0Plgfu/XnZs3aIyKFa5682iEyn/qf+Jf/XhV/ow0/E/6z/59l8dlYG46lSxIYzXmwN+2bO110x9bs+CM+XTf0szRAHV+YgzBFc/Uwga7AljA+yBNxei/XSkf8ryle4KpqZ3/78vlnvkeGx45KGy8ZEHywb1lmx45OFy8OAB2HHM+h/Y/6KdFad7Bfh/POkjI4B+V1LgTcjPWOt/3sWXmv+Hhg6Vv//Ux8shDQmNVf4eefCb5d67b4N0mT1nbln/mtf53HKr2wppxpEPqedO4yzlf6brf9Z/ZuN/tv/kt/9A95EdmA13JXpOdO0gduFW+EyP+H7KF0BzHc/DOh8CvQOuiW9ldbqPdUIOcB2bSxIg3fNZnJ7d6Okz54YcJzJ9j7ep+5whrz27d0SdddPHqv/5F15SrnzjW6hYMMldWlHLLZueLTd99lPm/0j1v+7dP1JOXb6i7Nq5rXzhH/62rL/kSr3tMljWrFtX9u7eXTZveqZ86f9+tmzbsvmo/J8ofbeq6sgE4yuuenNZsmRZWaBepr7+obJ3z4tl29bN5a7bvlCeevyxo9KP/FF53lAavOR15ZwLLyqr9XbP3t27yubndP83fVa9HNz/yO2/fOXKsvq0tYhU2bl1q96u2qD045O/xx78tury3aZ3zvmD5bYv/IPnHB2LPoQHJAA/fP5AueK0WWXn/kPl848OlXs31cUT3bzTW/7N7zZ8NAP1P+svDmT7B5Cn/I8bf8XAjjkc6NNbPzEJVkYCTwMrW50PT3SsT7eAMw4JSsjWyVOvcUR4nPUgD/amhnNGLwv5MNTDMsDtiRlZ7p9G9E9dvrosXbGyU/MlGo6ALfgcy1auluEdNN9a/WHTk5pA+9JLB+GS/vvKUvXKXHDRZeZ1l9uK1rZ5xYpy899/yucj8f/M8y4sa07TpFUZ9zlz5pdL9TrvkNoU53DpqSvkuJxdzlf5n/r4H5RH9ZbMkfyfKH3a/23vvKFc891vVx30/o2q1eiXFaWcrrekLr7sdXK8/qrcriGyI+kHw6jicLnuB95XLtWk2badumyZ3rY6q1wweKnu/w/LY37LJ+TxSPlbvvI0ZQtpfWHr876X8crfkxsf0e2oIpJjFpWD4kj875X/K9f0l+8/b5brf/riWeX0Rf3l5298STWj5XFpppf8z3T9z/rPbPzP9p/69h8I4DV+2khG9wmAGmBvc6BLnA4sb/SeEB+gC/iGOSSLzuXseBKtUV2pdGxvVCiFLtSLIuvSehnGT9+lGfxPFPrXfv97yqsHLz/sjR9zUhNmr33HD1N536/fyAr2ld/+9V8q27e+EJUR/3hjaPt2rs1575csObX0DagB4L9T1sw6/w7+i7HkXLB4cbnosteWHdu3lCef2KA5GAPlLDkzc+bNU4/HQjkD7y2//1/+vd+ccZHsJoH+2nVnlTe8+W3S3WjjPXrb59mnn9BXHg6VVWvWliWnLiuz+vvLte98j4bEHvCry730GfflPhYsWlIGdf/bXni+PPHYI6V/9kA574JLyvyFC/S21MLydt3/H+j+Dx3SwoX6M0d65G/JKZq7oo3itqpXpjJOZY9d/vbs2FF27dpRlixeWubpTa1uYUfhf4/8r5WD0iv/i+f2lVPmDpft+5VPN0w7TSf5n+n6n/Wf2fif7T/17e/XmvFFAvAFoQBuNTZAqp8YZQgCeZXQaZWODDqwJks8MWovdG7OyrDK6b4qHSaFYnjq7t0IGg/9KOvEog9Djl7/7lQ8ONG7VTZ2+H/fV+8o3/jaHTZolAdvf/FXf7MsWqw1RGpWXJKR6g9/MZLw/5nHHyuf/Njvln1797mklep1+MDPfFRlLSkr5TycpfVF3MuiG+I+yDtR+ufrNW55JKb/yLfuK5/8k98NuRAF7vndP/rhctmV15RZcqAuuuSK8pzWWultf15Rbw7tkxseLZ/4498uBw/IwqsGy1asKh/6mX9TFur+V62O+9/w0LfNI2rQK3+z58yOcsWLrRoScvXM7O/kfy/9keR/57atGt5aWmbPnk1NRuR/b/vf/vShct05s8rcAVp9uNz33FDZts9s9v2w45ZGQ/9I/Rup/XvpzzT9623/mYg/WX/pWQ/+pfxXW4BdBrUmgH8nCv4MtEroi0CqUFTQ1pJK0p/Ppu4VKjyEMWF4QcH4HcTGfBdzQsBLKp03o4Nt4FwHWBYcUxB94QRycFaXPib65CerCxANCnyl6X/1tlvKw/ffq3uJ+zlfQxcXrb/cVf2y5j2w9kfwB15w88XzSrg4Jv8V7+TUk6xR/FHr70Ir/2/SWzH79aYLufl7YfOz5d6v3F7e8JbrXM6qNaeXxx7U4mko+bHa37lV8ijoz5u/wOkAjicej6EU7t010I1/9q/+vNzyuc+Y/osv7j5q+zce3fIPny4HX2JScrTsFi2yd+/dXy5v/J7vc/6VmqPy2MO6/5dp/zJ8qEMf/oxX/nCmVBD/3tEMx5K/Z/cMawhoX7l0FXNY+sqDWw6RY9z0e/WPm3g5+jiuM0n/Xmn9T/ozG/+z/ae+/bU0PxAqZ4UT/o3JIowR01O6YVHhgJ8bhBMBtw/0xihJuCSEkZ54pXSauI5SlEpRoCzDS/3EV5rjoa+bid4glXGi0H/sUVZOpf7ipuq3ck3Mo6D+Tz25oTzwzXui/krSqb9zUAMF8q/EnB/Gf9UQfuME+ERlj1h/JSHypf37NLFVDgNlaW9uK+4FTdxt/F+oYRdoviz/x0B/+zaGs9Q4usf1l79Ok10fl1MRvSDc/kGtjLx959Zu/Y+kr9w4zgfkqDy54TFdmSGuNvK3ZZPmo9SwhRqeGVn+lIx0tf7RUxhBrf5jlb8u/1XOKOVv38G+cuczeOi6E+qqWxov/V79Gy39Vv/W/kk/+Z/yJ/WdhvZnJthfDwlVcym7FYg6pJ4V+x6AMpaSTUAbsBtzAAh3alsMjKLg1A6O0iosspGmorSDgU3Dbj1SpqHUqaYdffMo6s/eTtwE6++ekOq4HJX/bqRhTeSlZ+I7+X9Qy8vHHdEOzZmJVhoN/1+O/kPfvLe8+Xvf5Xkmq05/VfnAP//FsmPbFg3LbC7b1MP0sHp0cNxCDo7S/siZ5OclhoGOIn8vHYzhoZA/HDs8gKPLH3IdtYQTE+e/KFlaXVjKf2XDyPw/mvzNKP0Xh0KzkJyJy1/iL1xM+9MenI6K/yFo09b+aoAHRaKW2jghIHbIhg2CgxwqEyBjiXngL5JhVXTK+2udwihQP/7pDeDKj5ck6Ibb+Clk2tKntidq/dUOU8H/bVoY73Of/njZvXO725X6M9H2zPNeXa64+rvLez/40+Un9TVkJgQfjb7FZJLkz76M6PfpMxETlz/JvQrk/lL+U/8T/4TjNgyJ/4L5tH/Hyf5rOqBdCHje2ZrfQoeL57UoxuAfj7wyNOG0ILEYpEgPjLP5sZgWdFy/I1WQ0kU8aZQHV6k9pRLUs00b+tRJlbGTNwn191iC/b1j8Z8WpeGYDK3WGIn/1YEkdbdddKFtJP6Pjn5/uV8fFnxEPSmDl11ZztFXj5fpVe+ly1YWz29R+aevO7P80I98uOxUz8szeoOplz7njb7EQ+chV4TxdE5iOx/iJ9tI8rf3xb0uFydjmV4Hj94tZyHXmOXvFH0McXioX3OC9pEbyVc5IeNxvxGS8p/6byFN/Ev8F0aNiL8zwf5NQf01JGSrYCQPAxGg7jF/GwiduR+G8DASkQLQDuPCCfbD+WsaDISdFAyje2qAd7bYE+Z87EB8beOhX+3GCUnfPFD9mOTZ5dw46q8s8KbxycxSuS6JgomH3Q4IWtC2kT4q/8kQpYyq/UlO2bWdjkW/me0Dmux7z+1fKvfccatp9emL1Zdf+Qatz3JdWa4POg4MzC6ved0by9NPbOyU2+6f8kM8IHwU+dO9U/vOLZGs1r/Rf+G5p11/HOdlK9Y0MVHJ5NI2BvlbqLVXFp2i9VdU/5074o2juAOVAx+PQj/lnwbRQ8pR5W9s/D8W/iT/U/5S/74T/6Yr/tRHVgk9cg+IA8CyHNUc1t4BYtmI5BC9JWHsdG3LEc+WthxK55QCK5sH7WqSFhMBUVin2LHT79KGAM92SZ9WGQX/zXsz7Ljwf1jL4n/tzn8qX/hHvSFUt6XLtJIcklLF6vD2j0TRO9VyjF7+nn36yXJoiMnkpSzXon0Tkb8zzzzPeoDDtmP7NssYd+K7aQWPIH9nLO4rr17RXy5a3l/OXdppmZR/+OZNXKzNenj7R4Jjt78KeBn+uxTtWrKqGcl/M4YGSP6n/FkRx2H/j7/++eOH1mZoa7It7/Kj1Bh/elliQ7oRbIXaK1BanrZbND0ITQE0FEEc828JigdZjKiGKHjqr0U1mi6/5h07/ZrxBKVP3ag/jMJ1oxdgvPU3q+G/C2j8H6n+tGFsR/Lfd+N2qHkJGAX/R0v/hg9+pJy2dp0WdBsqn/nkH5Wnn9xIzfWL9l+0aHGVgz5/28d32UOfexmW5SKoY1zqleWP+utn+Wu1PEr7v8TbSFqQjxWGPYfmnAvK448+NC7+n6e1Zah/n4aEXtj0XJd+E/qj0G/y/7NXzi6rtdYc6xU9t3uo/OtbNBnahbnmseup/9j0r2Y8Bv0j23+88ueb/g79T/puwOR/4n9VBYbi0/5Nnf0Ph6Vi5xA9K2I8vLdx7SBrNX88AlWQZjy/47RgRwMZI6PLs4muJccCdBRsU6ohpj5NkOFtkNbOJJx+9CsvVUucP1j3cvW/9h0/VGYNqFnCQxBX+vTRvTnm0/xF88vb3nWDeRqLRA2XTVp47d57bu/yn4z6h/td3h7O/1hLpxvrAiv/J0p/n9ZWWbZ8lerbV97z/p8q37rvbjktG7Tg2pxyphaqu0AfJGz0n31qYyPtI+3PTfNUTfXbvjJDAcgfMTjW1XPmcgT5+7p6dK4Vv/r7Z5V3vOf95Q//23+MRejGIH+v1uJ2l732KvNy795d+g7Szb7X0cj/8vl9Zc2iqAXtf8sTrMOiGx4DfTPE3FDW1D+xL+R2NPwPztNch8t/8n+m4C/gwJbt784Hw+vJjT/VMgIC0QvQsNHtbJiOM9sFDIkdE6Wlh4VskdXXdj8UTtoI1lkzQi5A4br2289KEE973dQ2sVx2NkqJzdkPo6/wFq1I7ufEpB/1pN7U9+Xqf9WbrvVXgVu925HaLdZKq9e8mW/0VJ6pvG/fd0+596tyWFr9lS5aoB6P5L+YZpuvVMG/Wpau4f9E6d/+pX8s5716feE7SqeuXKFF3q4POpDBsdCR9t+6eVO568u3KJAIGjLou2oEeWsNHKlYudLJFWdjRHRk7dbffIjg2//pRr+ZdKom/a5cdbo/R/C5v/74qOVvoVYXvu7d75ODNUtkh8vX9LXtPTt3qnDda6PNfep+O/zvoX/xirhf0u4/WMqtT8YCdjNL/lV5/mlTt/9M0/+sf7Z/yv9k6T8QYtTHWHHGjqGbOBVMO5DgcFY8iU7dXgZpdpFL6TAhUZaRqZVQ8ztKycMskY+Llj+oO6l205H+oSFZrFHUf4hJpofxHx7BZX1Yyh1cYlA13HB8SEMvbIfzv8v01n6N/wcPYjSjzEMaNon26/J/ovS3yBH53x/77+Uhrfh76KDq0rkVV768JPrfuvcrSvM7/vrykfRJf3j9XT3dc8jfQc2FafUfOtTu/8j6Sz61wZtbb/57f8cIi8nXo9//U/+qnH3eBYrlfuADN9itP5d9+tbRNW95e/nJn/slDSedqvhStm/ZUm676fPmM92+ZA8+RgUP53/QZ+5Kq/9dzx4qezwa5JqoxJHpH6v+qX9uoFHx3y0UzcNpsNxtTbsn/0eS/5Q/5CP0u+lvw5/Uv1dW//oGBwcln9yErWE8Obq5FKRwFubCO+o2nFW9LFq0CJUve3bvjtS6CDtKaKBExYi4JFgbB+Acx6VT9jjot7KCUhSc9OHricP/ORrK4ptFi/WWzfAhffRPq+Bufl4r7crpOJ7tf/nVbyrXv/tHy4C/A4RcD6tX6o7ymb/445DtHvlbreX+3/fhf6HXsJeLmejFcNn6/HP+JhKfBujIdIhclfSjy99/vnZOWb6AMkr51S8dKBt3ROuk/Kf+H0/57xXaxN+0Pycz/nhp/vpR6PbgWh2Mbu9KrMcCfocxBLTZ2pGMAcURjzLSRe45CZrN0C/gt9eudOFUKLOMRi2OvgMbsE4cBSsee8F2NPo8HJPem06SPrw/sfi//8BL5aknHiv9T3Tb30JT2/d4tf/X77jN32x65w0f1FesNQNW8rJm7RlHlb9FS04pS5fjrEii1Nu14eEHyv/5yz/VmjFbD5P/l5M/JtouW8BaOEPlsa3DZeN2PRCILjJLK6X8p/4fL/lP/O3iT+rfyY0/A8LTWGdFKGogNZiyww9juCFA1r6B3xII14AUbeuLiS26DDTGWTEgkwBnhWDAOlJ4aCMER2Ea0Pc6C0k/+Y+8sFkQJ1f+vv3Nr/vL1K+9+rvK4GuuVm/LgMh8p/wdUu/P/n37yoP6xMBdt93obyEhuMhrvCU3Ovlfr9eYcaMR/ps3MjSW8p/6b4RM/Avf/aj6N1X6n/o3PfCnb3A9Q0JSJIwEiNLZDOfVZYlzkvDT289loZ9US9m9S0NCusYpCVCPNFEUe0UedqAEQ3mQU9x46EOvlZv0k/9jlb/5er167+5dlqEj5Y8Vefft3SPx4u2CkFbOkVx+yP/Lyd9Hrphdrl6nrzTvGyq/cPOBoqk7VVxT/oOjwQ+YciT/xWJtx8afl+M/8NA4Xhmf/DdXU/5S/k5e++s5LNZtq3NzfVF3BJutnQtA5JHEhKx+zWFZ6LhdAv3w3QCYbi7O4kNnKhN08QOzUuqUbvIoqzcH56OnH5RgfAAb172lcZ30ecpP/r8S8rdsfinzZ2spf008fmGPRDvl32O7qf+Jf4n/af/Ga//lsFysBxxcjmruwwEXwoYf6gm5WjeCUR/3oFSnYtHCcFh2e9KtMvkRl0z13CV0dz3FypEINyhim8sxNvp+LPM9U0rST/5LfhChlL/QxVCuzr5X53rP0Z3x6H/qXy8XE38SfxJ/jgf+6rmPF2bZAC4pHqBfNxb/8voScmn6vTIcKZQaXe0krIpb89G9G3FK67CICGeHuOhSjzPikn7yH2lI+Uv9S/zpwKo0IvE37U/aX6Fij/9hWxlORnMd8Dj0AzvkZRw+4EIa4mOLfLwJEWE4JTzgdtL4XF0z2py29sKEI6NIT9atcUoTrgtlEafrpC82tL6v6vhVXnd4Kgcy+Y/MIC/6ITeNRz5P+evISuofwlEfpCQciT/Wm8R/syHtj7suwFJ0Azw98ew/kxysxNwafzaPFdg8nZ22JA0VYNezYSCwEFGIkoQn4lIik7M5F0lZ6wXlwKjYumioKenDC/6T/yl/qX+JPwKDxN+wC6yUyYbxSPtjG2F+1N1MtL/9OA/4D+5+DLmQL0GI5MQeVgSiQ8CppYeDz7WXB8I6KeSwQ8N8F+UHePyJa46KdxYl6mRFFpU36Sf/U/5S/xJ/7KoFjib+YmDS/qT9tT6wa/5H3+DF673aME+3difcBYJbwTUHvA28ixamo6IWL1nkb7Ls2a1XIJzHqWPXKSNKIWcrvidVTRsOzVjpszo632Sxmif9aJ7G3OS/+GGp64pdFe/Gos5R8k3SlL/KoI7scK1tBP1P/Uv8SfxN+3O87a9Gc4Bqd3eAThXnK1gB5O4CaYNBYQScR0l85deHdN7wDZBrniEJCNcx7EfkdyUdRSFJP/mf8heKkvoXOFHBRHCR+CNeyGkMjgR+Jv7KZmA6ZEPi9VWbEa6CT2l/Kh8qQ8So6WJ/PemWya4M4nQb3KdufYdS4RoZwz39hdeZ/Uoz81C01W6aypiaXnaoRlvA6PgmxgZa2drcl/HQN1F2Sd+sSP5LoACxEMeQ15S/ph6pf7b4iT+Jv2l/Tmb7y6KdAjN97wezF5hvv8K4byXHCkSHOQn4IOKQu1Oc09cYCqcgk5MTp4tWHpeVgJ8V6GZ2nnhySPrJ/5S/1L8OXsivAErAiAoocarQxJ/E37Q/KEb80IewpbpGaTjQ/cRFREXS6WJ/+Vpzracq2bZuSJyxj6cTX1d+0FUZ65S3fMEb0rC5N0ZpSNaZBhNRh+1d5gghEcc+6SOB5kfy38qY8idp8HcCusrTRIOQ1D8m9Sf+JP6m/Zku9td+FyCHUxZg5ysjYDuL/hVMpdwGDnFqQHSmTpCXlSOZN8CCzhh7gcoT2ShVG3E1s+lox7H2uUQSkvkXMQQmfTEh+Y8opPyhXKiGtqZbVugIst6l/ok3tthdHpk9iT+Jv2l/QhW0P1nsv/AtEI+xf0AvXi/krM1qUbiHgFw3KX9FSPLpP4ASR4KzcDfijHP9TCHysG+l8vQX7k3EJf3kP3KT8ocjDyeapqT+Jf4ERkooEn/T/iAG2iQT+gcp2GaK/dVs21blLkjiTJgVDtJOaToqU89Zo4X5rp3ZLbzjVlNR5LD6oAAauqL8hKM4imuTcDl3qUlfnGCDI8Gj5H/KX+qf9MEqoV3iT0VWICKwOPE37c9MtL/9fZ52i8GUkcB5oKuD6SK6tjNbe1fADnkejuacVW3DiXFMDedtIyL5KTwSuJeFBFwOeUyHREEm6VcmwZ3kf8pf6l/iT+KvrEPan7S/EoMj/I/+tpw+DoQjsZ9OFB3TuCP1UkDSnBQShaFtPSwOwaERl+3ChB8TNhjOR3IVRs+LsmvjkPQrM8yQyqfkv6UDzviH7HCS8tfRuqZQqX8BLOxjknHijxHFO3gi1Un8beoiZqT9OZntr/tXqmyrMXWGw9FqJCuBs+8himY0uMZ6BE7obeU2za95xHJqiNYQkct1Up/Z8Qk3SIXUrafYpJ/8l+Ck/KX+BV4IEBJ/hJOJv7ISPYYi7Y+Nqi3oTLO//pYQwOAnNeQCXlSP3HNQjB2xxJvDde0g0jVlqtLUFoJrRoeyfK54OyrOqCB3eZrf0XuT9JP/yFDKX+ofuJL4Y11I/OXhBTuR9idMqQBSJ2aJdjPR/vbFOiy4K5UTwdxFOxQAABRtSURBVJO4BjhgC1LDv07Du9UJb/+oF6VfcaSKdKX83C//pzLQP7vs2bWjbN22qdzxxZvLExsfdgoLH2WoLI1FRVmKCXdpcuj7RkWAbtBhr1HR7k8xIsHNJv3kf8pf6p+xLPEn8VdGYbLsX9ofGdkptL+zVq5a9Ws0FrbclpyDDL2vPdrjM2Kx9d5Hl3XNUweVeEUZh+at3/eDZf7ChWXRklPKitWnl9dceU05sH9fefrxx6wY9pZr4ZRAmZNJ3wVSvn9QiPuPIKjpPh2E1570k/8pf6l/FSV4ktE2EfxL/BEDA2z9hJj4GzIVLEn7M1H7O2uVHJY6x/MIQUNzQ3mjQ45oQZusPUdYb8PPZ1t97pCycNGislu9K/MXLChz5sxT2r6y7uzzyjfvvbvs3/ui07Jz540IEz+Z9KOwRkZiErclXwxK3S3pixfJ/5S/1L/En4qRBkhb1oqVCsd5Gwv+J/7CzLal/Zl0+7teS/OH8W5MjiNyy1STZuRxKnAvugIZUu69djgvnEeOCPiJn/+3Ze26M+3k/PWf/0G5/+tfcQqnrBkof6roUzG/aC1aplGpJ/1ugyX/U/5S/ypsdfAhUGyi+Jf4k/ib9idszWTZ3xj8wWppqz2iPh+ye4IXot4UDqRxV4ijuQiHHC8lklWHhQCSDpeHv3mvI5lku2jJUoc7MRnqxNtwgiJqsul7HotoQT/uCjquSNJP/lvoUv6kD6iEttS/4AP7ycC/xJ+YG5L4m/ZnsuwvU2c73GRVWlt2IVcbQPEQUIdaPcGJqUmb/efowSG7Ui3e5sCAeOjgS04aMcpcQXIq6dPtYzLaceSX9GsbmjFiyBS2f/I/5c9iph1Hfql/qX+gjoXBJ+JHY8kk25/En+mHP3UCiiWneNVZoYoXYFIQ4BKyBNQQoOQM5eAI9Pa21B4Mp9WcFpwczufOm++OFErZv3evh2VcUhVQl8muFj/Z9Ck6OhJwnGJYKOmLKcl/RKO7pfyZF6l/UgzJwmThH0xN/IELib9pfybH/obDgkxpG6JPmH+UVtfhdhBTLRxdMO5B0WGoZiUKP6YmcbzP+8q8uUy6Zesre1/cU7ucFen03dKdRLvJpg/tRp8u3ujyTvrJf+Q15a+pbOpfcCDxR2jJv37IRldDqqSMEf/BXn7sE3/T/kyG/ZXr0GCrDt9w2YKquCFyBPl1ZscpLR5Kk0hOm8eiI38I++y5c52RZPvUw4IiNE/TvpGl2QWaQueyBU2QPvfBP5tvN+kn/5FMxAJZ6AgcEjL58p/yl/qX+INuJf6m/Qm8naj9p68Dcap/PhWgh5XH6QivKFJ48pS9jvBzwgM36isdV1FWnc2i15t3dvIvW7nKzgNpIh9gBp2po0/Z7f5NxviZ9JP/yF3KX+pf4k/ib9qfsO7Yxcm1/1Nhf+V5hN9Al50WrjWOuyfFEZqPojB+EYErogscDdXOXahcs2m0KL7VzHWEPf7Igx0mnHPBxU4WvS8hJDg5bBQ3FfSDiggEmaCle4umwZlJ+sn/lL/Uv8SfxN/Jt39pf6rpnUT72ze4flBzzLpuhF0NCIBi1dL7TLuYjBbmvidayWT8FRBP7uyVRl5OX/9A+dBHPlpedea5jt+5c0fZtXt7GT50SIWV8uiD95cv3fh3coimhn58CXpIjlTcXx2TsuNSfSpXMekn/5sbi6xb7HsEfLzyn/IHkKT+Jf4k/nrUggfkZrwNNIE1aX9Gb3/66Rnp9DQA1mxmJp0vwVXzGV77LSHSK6oxnlONFcWl9spixwUn5NDB8ld/8nvlhc3P6wWjvrLklKVl3bqzytozzi3r5MScumK1e2amir5dJ90stWg0uE+GttgwUlNZ/6QvDif/U/7QtdqbmfqX+JP4a/OT9mcc9neAN0Z4mPSwD2jS2XBC4vPueID2UJSIUz4f1HFaOMcoKW/FJAM0eftnDZQP/vRHy/JVckyUbufWLWXHLnpY6IAsZeum5zzdZarot3uGL9TPYCli7bVruzJTWP+k32V88j/lL/UPrEz8SfyNh+i0PzLKY7S/A3gOAEl4G+p6wOuwN2IfQ3GOVbJQNDyWYX8/SBlxVGo4Zxgl/XdynHPBYMdZue+rt5fPfOJjUby6NSy0lc5U0dcd6U93NCQKMEbHUBZ1U6ue7rIHQKao/kk/+Z/yl/qX+JP4m/ZncuwvZtxOBjbbroaHS3A7uNJRBh0vY1jDQTEmTwTx8bOx97hKhERc5D7nvAtdClePPvRt54MahpxiWxk+5RLXYRLp+/4pU/+mp/tO+sn/lL/Uv8Qf8DYwPPEXXrCl/TnR7a8cFg3duLHClNNmbfOgEEZe2t1f1+3nc1aW805CxD2cAvIFEFDIcFmweEnEab9ty/Pax8aQUmykmzr60YETFWrDVdBN+sF9t1vyf8rkP+UPOUv9MxeCDVa8xB+zocpG4v9U2d/piD/mVTgZzXUIrxunJIZPYlCoDpwIfjreRnVOeJk5wnAK6HxpaQ7s36fzmOE6d+4C+TAkiAMOTZv9OlX0IdHom0bST/6n/NUR39S/xJ/A5sTfcKDCdZJe2DYJKhlZkAURZPhIqmbbOA++jWz/0v5Mvv3ljTsbMRqCPzdPNexlKAS6tthhjUWDuddCHkoUQgNSWGvcvrJ/3z7azL/5CxYqgybb4kQQSGa9OTSV9ONegr7vLOkn/1P+Uv8SfxJ/0/6clPa3H+cB/Y13gqpxt0eBTFd/kjSy+NHLUp0MexpKIw+EOa3GAPZyQtp6LQf2vYhn4v/58+c7ka587Y4X5Z1K+u3tJmTTdHV7ST/5byHAF0/5S/0D2yQKU4F/iT9wVo/Aib9pfyQJKNpE7W8/vSL0kLgg9lbgNqomAu41CVclVFsJBPYsDIc4un+F67ifuCktmcvfHH38kDQ4JXPmzCOTrqKUICjnZgrpQw/67OjZSfrJ/yoOIbASwpS/qdP/1L/En8TftD+TaX/lq+Ba+HHTnA2fwmJmUKe3hO6VCAmD5zwK8BWrAOmEZGw+qJC+WbPKeRdfEoGK37Vzm84jf3OP7PJMEf24j3pD3J9JJ30aJPkfcpDyhxJPjf6n/lW4gxGJP4m/aX+qQkzM/gyoFOkTC95GL8phQAOeRYI46npYU9z7ecW5ujCeh0I4HoG6Md713h8vixefWs446+wyf/4i59t/YH95/NGHVRKOEXlxckS1OkKTSb8tEeP7FhmmyVCn6GFJ+sn/lL/Uv8SfxN+0Pyej/fUbdsPqJfEgUDXu9idwVLD07PwUxrmezeVkDLk7xW6Ar0kST6ulXHr5VeXCi9aX+QsW29s5qOX5b/ncZ8qOnVsjvxMHIVwklzKJ9CmwjR3jLVG+d7WCpqg6EJb0k/8pf9KD1L9Jwz9wJfEHrRLGJv7a9HiX9mdS7P+AZErOdh3yQdl0jffdHBCGDxjn9+vBIYPRUaI0Hiqqiwo4n7Ju376tzJ0zt+zevaNs3bKp3PHFG8vTT23kBSEXjigHEU6iV2cy6Uf53I1qIMfK37LhvpN+8h+RReyasKb8mRWpf5OHf4k/6Ffib9qfKbK/g4OD1rEYMokBg3AjAtxD9LoYT+eEO1jsEnTDq4gKAKvyYxi0kTY+fBal2hECJnGCeM3YkKlL7kLBMdhEaUm/ssRGNjhitiX/LbFd+UBW4A+ylfKX+lfFA7FI/BEzEn8DHRpGGC3S/pyU9lcdVaHeOMU0aLze121gK33zUAwADQ7QhMhDmiF71QGW5A7DoWtTiDzsOw6KyvSquUkf9vmhJPmf8pf6B3Ik/nSREmwI/DRO+MmOM4XpH06xJf6G1YFTcYYtSvsz3eyvOjSayHMMd8JvBtHsDtJOaToqU8/pRo4JrRHTp1eZrUHsnUXQK0VjKKb31WjysHFwqUnf/KjMriyvageTgpnJ/8qlJospf6l/iT8gbuIv0JD2Z2bY3/6+zoctVGGMIz0lzPdAFWw3q0JYKuSAkIRYpe2JqeEM6DhrlBUJ3MtCAi6HWGWubp5WkvQrN8Sd5H/KX+pf4k/irzAx7U/aX4lB7V2016BzLxxXLWZE4lU4UXTMkrBe0u9YnRQS8bNY1SP2Vg6NuByFOzhsMJyP5CqMnpeI44Dj09kgRLqkDxPMR7iT/Dc7Uv5S/zqo0wCl9TAAG4k/ib9pf6a3/XX/RsdlwJPA4WgehUwmzr6HiOxI6IJrTCnX2vrjhUCdNY9YTg3RGiJyuU7qMxveMMPO6l1PsbLMJE76yf+QF5y2lD+pRMeRD71J/TOomBmJP35fVrxI/OW52D35iEfan2lpf/0tIQyDn1TU4HY2ao+I56DYdsTnDYcJ17WDEArUxI//lhS5Lo5RYDgd7jzhXCntqLRod3kab6L3wCkgTnlkj/OkDx/hU/IfNqT8SS/ECIuEdrpK/Uv8QQr0Y/lNSwaK4ofOxF+DhriS9me62N8q4/FuAvKOyEfl1Mw4FnUyLcLf7x4QnYR+hGJw7lxyeTzDlmsV6/BIyJ4XmK1AOmfmMkLkDYKKbQxN+sn/lD9pgXQt9Q9oACcCOxJ/wF5+YglAiWNiGPVF4m/an5CLaWx/PSSEu+Ctfna5s5ItvY3xiG8lcfc8nfTWD8yKQDU0RjqkxOR370lzTiINyf2j58S5KA5fKdyWpA93tCX/Q87aU3PKX+pf4k9gg6Az8Rd4SPtjYyrHdSbaX79lXH0OgaO0wrazGVAJiMLqlY7R1ciRv4jAqoCrVZCasSGefzsplEMp/LrhCJ9DFeQt6Sf/LWzeGaFT/lL/qjQk/gg7md+W+Jv2Z8ba3/Va6bZ2fFSvofoOOuDRd8DCfoau7JCQBi8jekjsZygq/A5y6EyKRcF+0dnn5GlbxDuZgpK+mNAYXVnEZfK/yxZkzKY75a9KCNqW+mcudOHEPEn8CYYk/qb9mW72V0NCMo3VWLY5JiBiLJqvCHkTHjYlTcdYkAJPvwZFsuqwACGEq2TyKhVj8RHqGGLDGuss6YsXMBJe1CPnyX8kQwxJ+Uv9QwzQjcQfoKFuib8dkQiYSPtjyZje9lfjOapg9SYY1fG50CHUQRhBF2TH26gndkRqNkuN8unowSHFEeOU7r6MuJasxnSMtEupxSb95H/KHzKQ+pf4A2Im/qb9Sfvb63/UCSjWjeJVb6Unbd4AzkX4EqE88XqPznFEuqW4tyTcFDRMk2kZAooiPayBUwIA4cu4pBZZ00QgWSNB0ne/k7kfrEr+W1T8elnKX+pf4k/ib48RqT34Dkn7M63tbzgszbmg3zXsgR2OrttRhYMuEPeg6DBUsxKl047/QnxIjv2QMLUsACbnxxeKdPpu6c1vGUr6yf+UP/yR1D+BQhchDCgKSPxJ/A1ZSPszM+2val3BQMfmT3SCIsT+BKnoOYk4pcVDIQM/TpvHoiN/gA1//LM5udK2nhb7JuRtCXTsXNY8UThpIlXSF4fMm+R/yp8EAYXhx2nqHzAhRiT+JP6m/Zmu9pe+DrS8/vlUTnx4DK400Q7WFQ84OC3qdjNI2npGAsLD5eC6en8qNXpVXIDzkIaUccGR9Ek/OBDsSP6n/EkSrCdNf6w1qX+JP4m/aX9msP21Z4F/wpBNXVQyelJATM0ZcM+I7Yd28i38mhQZdO4hHDsfSiswjW81k9gZSOJf7HShLbz/iIm1WRSm5Ek/+Z/yZwVJ/cMosyX+JP5iamxOOEn7k/YXIdDYME9wXkUOoDBeyLWo3cwswIoPEp2tnehI5vTRk0I8se5pUR5KtYNCcOu1UXg8NSpVJE/6yX9JSspf6h9goi3xR0xI/E37g4GUHU37izrYl+inZ6TT02H2aGc+0fkSDHMvpJjWFx8BCofDoBIZ+jRWFJfaK4uHfOSg2HWRd0IpjQbp/I0Ul66rpN/hTXDbjNEu+Z/yl/onRVCPU/0l/gCuib8YEX51S/szc+yvv87uzo+OtWxiEL0uDq69I3SJcMpkfW9VaIarU2IhQqE6kbogTffg+TEAEGnsysguJ30xI5hmzsUu+e95GzAj5S9EIvUv8SfxN+3PDLa/sXIvcOhxY7TBFwRUpyI8Dg/t2PGgq9KJZEgiDXmdqhrdiCUHm/YwWIE4NnwEnbDo/iawkSRX58IZyF9LVox6bJQEikkfXmlL/iMxEoqUPySijuCiatpS/ywbSEjiD8CZ+Jv2R2Jwcttf+jcC9A1ykmp7b6HqdkfcpaIzdcficEQy4uMXIcqkS+dqqCnWhDujFPr3QzJPiP6jPEqKMnwaBSf95H+VC8RGkpHyJ0ak/iX+JP6m/Un7K4clfC6cB7sulSf4Dx6UcDc0PSJYUlLYx9F5S4i7ofN6GY4IF0rrsIigd6RtLGgbG4FJH583+Z/yl/onYOjBicQfPfQl/uqZJe1P2t/wP2wrw8lorgPehH5gB092QhAwhCObn3p9pjCSyoEx0BKnJHSwdNL43F0GkRYPRv/hyCiyzr5N+sHQ1l0Ht/lP/qf8pf4l/oC8ib9woce2wBNhZNqfmWV/tdCKpcBOBo6H4aE6FmUonA2nwYBiRXs295rIQ4lCEKAQqlCudm7b6yKYLYWQ4dTYu2EiS9I3D+Bt8j/lL/VPgJD4E7iY+BvWBhuR9iftr4SgH+cB/yHeSanOhT0KfIrqopAGHOl6F3gcFqY+eSC8J04ZTi0nJD5eKOi1C6yj4p1aiXxk5x4elUjZvjRURzlJP3ib/Lc8sEv5S/1L/AE49euAqE4Tf9P+SB6woTPB/vYNXrzeL93EsA41V9XddQILtPlpB+8CLQm2cGB1YFYmjSdCn5A6tk4ZnRw9Jy1RSxsOTdJvvIWXjdfiUfJf/Ej5Q9M6SoSIpP4l/hh2G2b34Grib8XQjsb0nPTwiVPhK3Cb9ufksD9ee199JLScf7aVPtclDekukNrTYtAkXM1rZSGL8ipd7RSJnCqE0noxNspVQgfH0UJCWUlfXEn+w4OUPzTE2mP9Sf0TL2RUgiOBG4k/ib9pf8K8zjT7+/8BFS4IYLTMitEAAAAASUVORK5CYII=;" vertex="1" parent="1">
          <mxGeometry x="1209" y="634" width="174.21" height="94" as="geometry" />
        </mxCell>
      </root>
    </mxGraphModel>
  </diagram>
</mxfile>
